<ttFont>
    <TTGlyph name=".notdef" xMin="4" yMin="0" xMax="514" yMax="701">
      <contour>
        <pt x="259" y="302" on="1"/>
        <pt x="255" y="302" on="1"/>
        <pt x="155" y="93" on="1"/>
        <pt x="95" y="93" on="1"/>
        <pt x="229" y="353" on="1"/>
        <pt x="95" y="608" on="1"/>
        <pt x="155" y="608" on="1"/>
        <pt x="260" y="402" on="1"/>
        <pt x="264" y="402" on="1"/>
        <pt x="364" y="608" on="1"/>
        <pt x="424" y="608" on="1"/>
        <pt x="289" y="347" on="1"/>
        <pt x="424" y="93" on="1"/>
        <pt x="364" y="93" on="1"/>
      </contour>
      <contour>
        <pt x="59" y="649" on="1"/>
        <pt x="59" y="52" on="1"/>
        <pt x="459" y="52" on="1"/>
        <pt x="459" y="649" on="1"/>
      </contour>
      <contour>
        <pt x="4" y="0" on="1"/>
        <pt x="4" y="701" on="1"/>
        <pt x="514" y="701" on="1"/>
        <pt x="514" y="0" on="1"/>
      </contour>
    </TTGlyph>
    <TTGlyph name="A" xMin="23" yMin="0" xMax="667" yMax="674">
      <contour>
        <pt x="502" y="0" on="1"/>
        <pt x="461" y="138" on="1"/>
        <pt x="225" y="138" on="1"/>
        <pt x="184" y="0" on="1"/>
        <pt x="23" y="0" on="1"/>
        <pt x="248" y="674" on="1"/>
        <pt x="442" y="674" on="1"/>
        <pt x="667" y="0" on="1"/>
      </contour>
      <contour>
        <pt x="262" y="262" on="1"/>
        <pt x="424" y="262" on="1"/>
        <pt x="357" y="491" on="0"/>
        <pt x="343" y="562" on="1"/>
        <pt x="337" y="518" on="0"/>
      </contour>
    </TTGlyph>
    <TTGlyph name="AE" xMin="8" yMin="0" xMax="880" yMax="674">
      <contour>
        <pt x="616" y="123" on="1"/>
        <pt x="880" y="123" on="1"/>
        <pt x="880" y="0" on="1"/>
        <pt x="467" y="0" on="1"/>
        <pt x="467" y="138" on="1"/>
        <pt x="238" y="138" on="1"/>
        <pt x="169" y="0" on="1"/>
        <pt x="8" y="0" on="1"/>
        <pt x="333" y="674" on="1"/>
        <pt x="876" y="674" on="1"/>
        <pt x="876" y="551" on="1"/>
        <pt x="616" y="551" on="1"/>
        <pt x="616" y="398" on="1"/>
        <pt x="848" y="398" on="1"/>
        <pt x="848" y="276" on="1"/>
        <pt x="616" y="276" on="1"/>
      </contour>
      <contour>
        <pt x="467" y="262" on="1"/>
        <pt x="467" y="614" on="1"/>
        <pt x="433" y="526" on="0"/>
        <pt x="301" y="262" on="1"/>
      </contour>
    </TTGlyph>
    <TTGlyph name="Aacute" xMin="23" yMin="0" xMax="667" yMax="898">
      <contour>
        <pt x="502" y="0" on="1"/>
        <pt x="461" y="138" on="1"/>
        <pt x="225" y="138" on="1"/>
        <pt x="184" y="0" on="1"/>
        <pt x="23" y="0" on="1"/>
        <pt x="248" y="674" on="1"/>
        <pt x="442" y="674" on="1"/>
        <pt x="667" y="0" on="1"/>
      </contour>
      <contour>
        <pt x="262" y="262" on="1"/>
        <pt x="424" y="262" on="1"/>
        <pt x="357" y="491" on="0"/>
        <pt x="343" y="562" on="1"/>
        <pt x="337" y="518" on="0"/>
      </contour>
      <contour>
        <pt x="527" y="898" on="1"/>
        <pt x="416" y="721" on="1"/>
        <pt x="295" y="721" on="1"/>
        <pt x="381" y="898" on="1"/>
      </contour>
    </TTGlyph>
    <TTGlyph name="Abreve" xMin="23" yMin="0" xMax="667" yMax="898">
      <contour>
        <pt x="502" y="0" on="1"/>
        <pt x="461" y="138" on="1"/>
        <pt x="225" y="138" on="1"/>
        <pt x="184" y="0" on="1"/>
        <pt x="23" y="0" on="1"/>
        <pt x="248" y="674" on="1"/>
        <pt x="442" y="674" on="1"/>
        <pt x="667" y="0" on="1"/>
      </contour>
      <contour>
        <pt x="262" y="262" on="1"/>
        <pt x="424" y="262" on="1"/>
        <pt x="357" y="491" on="0"/>
        <pt x="343" y="562" on="1"/>
        <pt x="337" y="518" on="0"/>
      </contour>
      <contour>
        <pt x="428" y="898" on="1"/>
        <pt x="540" y="898" on="1"/>
        <pt x="540" y="805" on="0"/>
        <pt x="431" y="717" on="0"/>
        <pt x="253" y="717" on="0"/>
        <pt x="144" y="805" on="0"/>
        <pt x="144" y="898" on="1"/>
        <pt x="256" y="898" on="1"/>
        <pt x="256" y="856" on="0"/>
        <pt x="303" y="809" on="0"/>
        <pt x="381" y="809" on="0"/>
        <pt x="428" y="856" on="0"/>
      </contour>
    </TTGlyph>
    <TTGlyph name="Acircumflex" xMin="23" yMin="0" xMax="667" yMax="898">
      <contour>
        <pt x="502" y="0" on="1"/>
        <pt x="461" y="138" on="1"/>
        <pt x="225" y="138" on="1"/>
        <pt x="184" y="0" on="1"/>
        <pt x="23" y="0" on="1"/>
        <pt x="248" y="674" on="1"/>
        <pt x="442" y="674" on="1"/>
        <pt x="667" y="0" on="1"/>
      </contour>
      <contour>
        <pt x="262" y="262" on="1"/>
        <pt x="424" y="262" on="1"/>
        <pt x="357" y="491" on="0"/>
        <pt x="343" y="562" on="1"/>
        <pt x="337" y="518" on="0"/>
      </contour>
      <contour>
        <pt x="346" y="817" on="1"/>
        <pt x="267" y="721" on="1"/>
        <pt x="128" y="721" on="1"/>
        <pt x="284" y="898" on="1"/>
        <pt x="408" y="898" on="1"/>
        <pt x="564" y="721" on="1"/>
        <pt x="425" y="721" on="1"/>
      </contour>
    </TTGlyph>
    <TTGlyph name="Adieresis" xMin="23" yMin="0" xMax="667" yMax="891">
      <contour>
        <pt x="502" y="0" on="1"/>
        <pt x="461" y="138" on="1"/>
        <pt x="225" y="138" on="1"/>
        <pt x="184" y="0" on="1"/>
        <pt x="23" y="0" on="1"/>
        <pt x="248" y="674" on="1"/>
        <pt x="442" y="674" on="1"/>
        <pt x="667" y="0" on="1"/>
      </contour>
      <contour>
        <pt x="262" y="262" on="1"/>
        <pt x="424" y="262" on="1"/>
        <pt x="357" y="491" on="0"/>
        <pt x="343" y="562" on="1"/>
        <pt x="337" y="518" on="0"/>
      </contour>
      <contour>
        <pt x="300" y="775" on="0"/>
        <pt x="253" y="728" on="0"/>
        <pt x="182" y="728" on="0"/>
        <pt x="135" y="775" on="0"/>
        <pt x="135" y="844" on="0"/>
        <pt x="182" y="891" on="0"/>
        <pt x="253" y="891" on="0"/>
        <pt x="300" y="844" on="0"/>
      </contour>
      <contour>
        <pt x="569" y="775" on="0"/>
        <pt x="521" y="728" on="0"/>
        <pt x="450" y="728" on="0"/>
        <pt x="403" y="775" on="0"/>
        <pt x="403" y="844" on="0"/>
        <pt x="450" y="891" on="0"/>
        <pt x="521" y="891" on="0"/>
        <pt x="569" y="844" on="0"/>
      </contour>
    </TTGlyph>
    <TTGlyph name="Agrave" xMin="23" yMin="0" xMax="667" yMax="898">
      <contour>
        <pt x="502" y="0" on="1"/>
        <pt x="461" y="138" on="1"/>
        <pt x="225" y="138" on="1"/>
        <pt x="184" y="0" on="1"/>
        <pt x="23" y="0" on="1"/>
        <pt x="248" y="674" on="1"/>
        <pt x="442" y="674" on="1"/>
        <pt x="667" y="0" on="1"/>
      </contour>
      <contour>
        <pt x="262" y="262" on="1"/>
        <pt x="424" y="262" on="1"/>
        <pt x="357" y="491" on="0"/>
        <pt x="343" y="562" on="1"/>
        <pt x="337" y="518" on="0"/>
      </contour>
      <contour>
        <pt x="406" y="721" on="1"/>
        <pt x="285" y="721" on="1"/>
        <pt x="174" y="898" on="1"/>
        <pt x="320" y="898" on="1"/>
      </contour>
    </TTGlyph>
    <TTGlyph name="Amacron" xMin="23" yMin="0" xMax="667" yMax="860">
      <contour>
        <pt x="502" y="0" on="1"/>
        <pt x="461" y="138" on="1"/>
        <pt x="225" y="138" on="1"/>
        <pt x="184" y="0" on="1"/>
        <pt x="23" y="0" on="1"/>
        <pt x="248" y="674" on="1"/>
        <pt x="442" y="674" on="1"/>
        <pt x="667" y="0" on="1"/>
      </contour>
      <contour>
        <pt x="262" y="262" on="1"/>
        <pt x="424" y="262" on="1"/>
        <pt x="357" y="491" on="0"/>
        <pt x="343" y="562" on="1"/>
        <pt x="337" y="518" on="0"/>
      </contour>
      <contour>
        <pt x="527" y="860" on="1"/>
        <pt x="527" y="761" on="1"/>
        <pt x="171" y="761" on="1"/>
        <pt x="171" y="860" on="1"/>
      </contour>
    </TTGlyph>
    <TTGlyph name="Aogonek" xMin="18" yMin="-260" xMax="674" yMax="674">
      <contour>
        <pt x="544" y="-130" on="1"/>
        <pt x="544" y="-164" on="0"/>
        <pt x="631" y="-164" on="0"/>
        <pt x="674" y="-134" on="1"/>
        <pt x="674" y="-235" on="1"/>
        <pt x="626" y="-260" on="0"/>
        <pt x="495" y="-260" on="0"/>
        <pt x="428" y="-194" on="0"/>
        <pt x="428" y="-143" on="1"/>
        <pt x="428" y="-64" on="0"/>
        <pt x="497" y="0" on="1"/>
        <pt x="456" y="138" on="1"/>
        <pt x="220" y="138" on="1"/>
        <pt x="179" y="0" on="1"/>
        <pt x="18" y="0" on="1"/>
        <pt x="243" y="674" on="1"/>
        <pt x="437" y="674" on="1"/>
        <pt x="662" y="0" on="1"/>
        <pt x="544" y="-73" on="0"/>
      </contour>
      <contour>
        <pt x="257" y="262" on="1"/>
        <pt x="419" y="262" on="1"/>
        <pt x="352" y="491" on="0"/>
        <pt x="338" y="562" on="1"/>
        <pt x="332" y="518" on="0"/>
      </contour>
    </TTGlyph>
    <TTGlyph name="Aring" xMin="23" yMin="0" xMax="667" yMax="982">
      <contour>
        <pt x="502" y="0" on="1"/>
        <pt x="461" y="138" on="1"/>
        <pt x="225" y="138" on="1"/>
        <pt x="184" y="0" on="1"/>
        <pt x="23" y="0" on="1"/>
        <pt x="248" y="674" on="1"/>
        <pt x="442" y="674" on="1"/>
        <pt x="667" y="0" on="1"/>
      </contour>
      <contour>
        <pt x="262" y="262" on="1"/>
        <pt x="424" y="262" on="1"/>
        <pt x="357" y="491" on="0"/>
        <pt x="343" y="562" on="1"/>
        <pt x="337" y="518" on="0"/>
      </contour>
      <contour>
        <pt x="405" y="710" on="0"/>
        <pt x="293" y="710" on="0"/>
        <pt x="213" y="790" on="0"/>
        <pt x="213" y="902" on="0"/>
        <pt x="293" y="982" on="0"/>
        <pt x="405" y="982" on="0"/>
        <pt x="485" y="902" on="0"/>
        <pt x="485" y="790" on="0"/>
      </contour>
      <contour>
        <pt x="372" y="905" on="0"/>
        <pt x="326" y="905" on="0"/>
        <pt x="296" y="872" on="0"/>
        <pt x="296" y="826" on="0"/>
        <pt x="326" y="793" on="0"/>
        <pt x="372" y="793" on="0"/>
        <pt x="402" y="826" on="0"/>
        <pt x="402" y="872" on="0"/>
      </contour>
    </TTGlyph>
    <TTGlyph name="Atilde" xMin="23" yMin="0" xMax="667" yMax="887">
      <contour>
        <pt x="502" y="0" on="1"/>
        <pt x="461" y="138" on="1"/>
        <pt x="225" y="138" on="1"/>
        <pt x="184" y="0" on="1"/>
        <pt x="23" y="0" on="1"/>
        <pt x="248" y="674" on="1"/>
        <pt x="442" y="674" on="1"/>
        <pt x="667" y="0" on="1"/>
      </contour>
      <contour>
        <pt x="262" y="262" on="1"/>
        <pt x="424" y="262" on="1"/>
        <pt x="357" y="491" on="0"/>
        <pt x="343" y="562" on="1"/>
        <pt x="337" y="518" on="0"/>
      </contour>
      <contour>
        <pt x="409" y="741" on="1"/>
        <pt x="376" y="741" on="0"/>
        <pt x="304" y="776" on="0"/>
        <pt x="264" y="776" on="0"/>
        <pt x="236" y="759" on="0"/>
        <pt x="214" y="733" on="1"/>
        <pt x="149" y="797" on="1"/>
        <pt x="165" y="831" on="0"/>
        <pt x="228" y="879" on="0"/>
        <pt x="301" y="879" on="0"/>
        <pt x="382" y="844" on="0"/>
        <pt x="401" y="844" on="1"/>
        <pt x="450" y="844" on="0"/>
        <pt x="471" y="887" on="1"/>
        <pt x="545" y="826" on="1"/>
        <pt x="502" y="741" on="0"/>
      </contour>
    </TTGlyph>
    <TTGlyph name="B" xMin="65" yMin="0" xMax="570" yMax="674">
      <contour>
        <pt x="65" y="674" on="1"/>
        <pt x="327" y="674" on="1"/>
        <pt x="438" y="674" on="0"/>
        <pt x="554" y="569" on="0"/>
        <pt x="554" y="488" on="1"/>
        <pt x="554" y="435" on="0"/>
        <pt x="498" y="355" on="0"/>
        <pt x="453" y="341" on="1"/>
        <pt x="570" y="306" on="0"/>
        <pt x="570" y="183" on="1"/>
        <pt x="570" y="103" on="0"/>
        <pt x="455" y="0" on="0"/>
        <pt x="356" y="0" on="1"/>
        <pt x="65" y="0" on="1"/>
      </contour>
      <contour>
        <pt x="219" y="551" on="1"/>
        <pt x="219" y="400" on="1"/>
        <pt x="276" y="400" on="1"/>
        <pt x="336" y="400" on="0"/>
        <pt x="397" y="444" on="0"/>
        <pt x="397" y="480" on="1"/>
        <pt x="397" y="551" on="0"/>
        <pt x="301" y="551" on="1"/>
      </contour>
      <contour>
        <pt x="219" y="123" on="1"/>
        <pt x="300" y="123" on="1"/>
        <pt x="414" y="123" on="0"/>
        <pt x="414" y="279" on="0"/>
        <pt x="301" y="279" on="1"/>
        <pt x="219" y="279" on="1"/>
      </contour>
    </TTGlyph>
    <TTGlyph name="C" xMin="40" yMin="-8" xMax="563" yMax="683">
      <contour>
        <pt x="563" y="497" on="1"/>
        <pt x="488" y="543" on="0"/>
        <pt x="315" y="543" on="0"/>
        <pt x="205" y="430" on="0"/>
        <pt x="205" y="242" on="0"/>
        <pt x="315" y="133" on="0"/>
        <pt x="496" y="133" on="0"/>
        <pt x="563" y="181" on="1"/>
        <pt x="563" y="30" on="1"/>
        <pt x="502" y="-8" on="0"/>
        <pt x="387" y="-8" on="1"/>
        <pt x="239" y="-8" on="0"/>
        <pt x="40" y="183" on="0"/>
        <pt x="40" y="489" on="0"/>
        <pt x="233" y="683" on="0"/>
        <pt x="388" y="683" on="1"/>
        <pt x="502" y="683" on="0"/>
        <pt x="563" y="645" on="1"/>
      </contour>
    </TTGlyph>
    <TTGlyph name="Cacute" xMin="40" yMin="-8" xMax="563" yMax="898">
      <contour>
        <pt x="304" y="721" on="1"/>
        <pt x="390" y="898" on="1"/>
        <pt x="536" y="898" on="1"/>
        <pt x="425" y="721" on="1"/>
      </contour>
      <contour>
        <pt x="563" y="497" on="1"/>
        <pt x="488" y="543" on="0"/>
        <pt x="315" y="543" on="0"/>
        <pt x="205" y="430" on="0"/>
        <pt x="205" y="242" on="0"/>
        <pt x="315" y="133" on="0"/>
        <pt x="496" y="133" on="0"/>
        <pt x="563" y="181" on="1"/>
        <pt x="563" y="30" on="1"/>
        <pt x="502" y="-8" on="0"/>
        <pt x="387" y="-8" on="1"/>
        <pt x="239" y="-8" on="0"/>
        <pt x="40" y="183" on="0"/>
        <pt x="40" y="489" on="0"/>
        <pt x="233" y="683" on="0"/>
        <pt x="388" y="683" on="1"/>
        <pt x="502" y="683" on="0"/>
        <pt x="563" y="645" on="1"/>
      </contour>
    </TTGlyph>
    <TTGlyph name="Ccaron" xMin="40" yMin="-8" xMax="578" yMax="898">
      <contour>
        <pt x="422" y="721" on="1"/>
        <pt x="298" y="721" on="1"/>
        <pt x="142" y="898" on="1"/>
        <pt x="281" y="898" on="1"/>
        <pt x="360" y="802" on="1"/>
        <pt x="439" y="898" on="1"/>
        <pt x="578" y="898" on="1"/>
      </contour>
      <contour>
        <pt x="563" y="497" on="1"/>
        <pt x="488" y="543" on="0"/>
        <pt x="315" y="543" on="0"/>
        <pt x="205" y="430" on="0"/>
        <pt x="205" y="242" on="0"/>
        <pt x="315" y="133" on="0"/>
        <pt x="496" y="133" on="0"/>
        <pt x="563" y="181" on="1"/>
        <pt x="563" y="30" on="1"/>
        <pt x="502" y="-8" on="0"/>
        <pt x="387" y="-8" on="1"/>
        <pt x="239" y="-8" on="0"/>
        <pt x="40" y="183" on="0"/>
        <pt x="40" y="489" on="0"/>
        <pt x="233" y="683" on="0"/>
        <pt x="388" y="683" on="1"/>
        <pt x="502" y="683" on="0"/>
        <pt x="563" y="645" on="1"/>
      </contour>
    </TTGlyph>
    <TTGlyph name="Ccedilla" xMin="40" yMin="-268" xMax="563" yMax="683">
      <contour>
        <pt x="563" y="497" on="1"/>
        <pt x="488" y="543" on="0"/>
        <pt x="315" y="543" on="0"/>
        <pt x="205" y="430" on="0"/>
        <pt x="205" y="242" on="0"/>
        <pt x="315" y="133" on="0"/>
        <pt x="496" y="133" on="0"/>
        <pt x="563" y="181" on="1"/>
        <pt x="563" y="30" on="1"/>
        <pt x="502" y="-8" on="0"/>
        <pt x="387" y="-8" on="1"/>
        <pt x="239" y="-8" on="0"/>
        <pt x="40" y="183" on="0"/>
        <pt x="40" y="489" on="0"/>
        <pt x="233" y="683" on="0"/>
        <pt x="388" y="683" on="1"/>
        <pt x="502" y="683" on="0"/>
        <pt x="563" y="645" on="1"/>
      </contour>
      <contour>
        <pt x="448" y="-125" on="1"/>
        <pt x="448" y="-188" on="0"/>
        <pt x="357" y="-268" on="0"/>
        <pt x="269" y="-268" on="1"/>
        <pt x="269" y="-177" on="1"/>
        <pt x="305" y="-177" on="0"/>
        <pt x="344" y="-143" on="0"/>
        <pt x="344" y="-85" on="0"/>
        <pt x="318" y="-51" on="1"/>
        <pt x="431" y="-51" on="1"/>
        <pt x="448" y="-78" on="0"/>
      </contour>
    </TTGlyph>
    <TTGlyph name="Ccircumflex" xMin="40" yMin="-8" xMax="566" yMax="898">
      <contour>
        <pt x="286" y="898" on="1"/>
        <pt x="410" y="898" on="1"/>
        <pt x="566" y="721" on="1"/>
        <pt x="427" y="721" on="1"/>
        <pt x="348" y="817" on="1"/>
        <pt x="269" y="721" on="1"/>
        <pt x="130" y="721" on="1"/>
      </contour>
      <contour>
        <pt x="563" y="497" on="1"/>
        <pt x="488" y="543" on="0"/>
        <pt x="315" y="543" on="0"/>
        <pt x="205" y="430" on="0"/>
        <pt x="205" y="242" on="0"/>
        <pt x="315" y="133" on="0"/>
        <pt x="496" y="133" on="0"/>
        <pt x="563" y="181" on="1"/>
        <pt x="563" y="30" on="1"/>
        <pt x="502" y="-8" on="0"/>
        <pt x="387" y="-8" on="1"/>
        <pt x="239" y="-8" on="0"/>
        <pt x="40" y="183" on="0"/>
        <pt x="40" y="489" on="0"/>
        <pt x="233" y="683" on="0"/>
        <pt x="388" y="683" on="1"/>
        <pt x="502" y="683" on="0"/>
        <pt x="563" y="645" on="1"/>
      </contour>
    </TTGlyph>
    <TTGlyph name="Cdotaccent" xMin="40" yMin="-8" xMax="563" yMax="892">
      <contour>
        <pt x="563" y="497" on="1"/>
        <pt x="488" y="543" on="0"/>
        <pt x="315" y="543" on="0"/>
        <pt x="205" y="430" on="0"/>
        <pt x="205" y="242" on="0"/>
        <pt x="315" y="133" on="0"/>
        <pt x="496" y="133" on="0"/>
        <pt x="563" y="181" on="1"/>
        <pt x="563" y="30" on="1"/>
        <pt x="502" y="-8" on="0"/>
        <pt x="387" y="-8" on="1"/>
        <pt x="239" y="-8" on="0"/>
        <pt x="40" y="183" on="0"/>
        <pt x="40" y="489" on="0"/>
        <pt x="233" y="683" on="0"/>
        <pt x="388" y="683" on="1"/>
        <pt x="502" y="683" on="0"/>
        <pt x="563" y="645" on="1"/>
      </contour>
      <contour>
        <pt x="339" y="729" on="0"/>
        <pt x="292" y="776" on="0"/>
        <pt x="292" y="845" on="0"/>
        <pt x="339" y="892" on="0"/>
        <pt x="410" y="892" on="0"/>
        <pt x="457" y="845" on="0"/>
        <pt x="457" y="776" on="0"/>
        <pt x="410" y="729" on="0"/>
      </contour>
    </TTGlyph>
    <TTGlyph name="D" xMin="65" yMin="0" xMax="643" yMax="674">
      <contour>
        <pt x="65" y="674" on="1"/>
        <pt x="297" y="674" on="1"/>
        <pt x="449" y="674" on="0"/>
        <pt x="643" y="487" on="0"/>
        <pt x="643" y="348" on="1"/>
        <pt x="643" y="186" on="0"/>
        <pt x="452" y="0" on="0"/>
        <pt x="295" y="0" on="1"/>
        <pt x="65" y="0" on="1"/>
      </contour>
      <contour>
        <pt x="223" y="126" on="1"/>
        <pt x="293" y="126" on="1"/>
        <pt x="386" y="126" on="0"/>
        <pt x="487" y="242" on="0"/>
        <pt x="487" y="438" on="0"/>
        <pt x="385" y="547" on="0"/>
        <pt x="292" y="547" on="1"/>
        <pt x="223" y="547" on="1"/>
      </contour>
    </TTGlyph>
    <TTGlyph name="Dcaron" xMin="65" yMin="0" xMax="643" yMax="898">
      <contour>
        <pt x="65" y="674" on="1"/>
        <pt x="297" y="674" on="1"/>
        <pt x="449" y="674" on="0"/>
        <pt x="643" y="487" on="0"/>
        <pt x="643" y="348" on="1"/>
        <pt x="643" y="186" on="0"/>
        <pt x="452" y="0" on="0"/>
        <pt x="295" y="0" on="1"/>
        <pt x="65" y="0" on="1"/>
      </contour>
      <contour>
        <pt x="223" y="126" on="1"/>
        <pt x="293" y="126" on="1"/>
        <pt x="386" y="126" on="0"/>
        <pt x="487" y="242" on="0"/>
        <pt x="487" y="438" on="0"/>
        <pt x="385" y="547" on="0"/>
        <pt x="292" y="547" on="1"/>
        <pt x="223" y="547" on="1"/>
      </contour>
      <contour>
        <pt x="382" y="721" on="1"/>
        <pt x="258" y="721" on="1"/>
        <pt x="102" y="898" on="1"/>
        <pt x="241" y="898" on="1"/>
        <pt x="320" y="802" on="1"/>
        <pt x="399" y="898" on="1"/>
        <pt x="538" y="898" on="1"/>
      </contour>
    </TTGlyph>
    <TTGlyph name="Dcroat" xMin="65" yMin="0" xMax="709" yMax="674">
      <contour>
        <pt x="131" y="674" on="1"/>
        <pt x="363" y="674" on="1"/>
        <pt x="515" y="674" on="0"/>
        <pt x="709" y="487" on="0"/>
        <pt x="709" y="348" on="1"/>
        <pt x="709" y="186" on="0"/>
        <pt x="518" y="0" on="0"/>
        <pt x="361" y="0" on="1"/>
        <pt x="131" y="0" on="1"/>
        <pt x="131" y="269" on="1"/>
        <pt x="65" y="269" on="1"/>
        <pt x="65" y="393" on="1"/>
        <pt x="131" y="393" on="1"/>
      </contour>
      <contour>
        <pt x="289" y="126" on="1"/>
        <pt x="359" y="126" on="1"/>
        <pt x="452" y="126" on="0"/>
        <pt x="553" y="242" on="0"/>
        <pt x="553" y="438" on="0"/>
        <pt x="451" y="547" on="0"/>
        <pt x="358" y="547" on="1"/>
        <pt x="289" y="547" on="1"/>
        <pt x="289" y="393" on="1"/>
        <pt x="427" y="393" on="1"/>
        <pt x="427" y="269" on="1"/>
        <pt x="289" y="269" on="1"/>
      </contour>
    </TTGlyph>
    <TTGlyph name="Delta" xMin="35" yMin="0" xMax="646" yMax="674">
      <contour>
        <pt x="646" y="0" on="1"/>
        <pt x="35" y="0" on="1"/>
        <pt x="35" y="101" on="1"/>
        <pt x="245" y="674" on="1"/>
        <pt x="439" y="674" on="1"/>
        <pt x="646" y="101" on="1"/>
      </contour>
      <contour>
        <pt x="198" y="124" on="1"/>
        <pt x="482" y="124" on="1"/>
        <pt x="340" y="562" on="1"/>
      </contour>
    </TTGlyph>
    <TTGlyph name="E" xMin="65" yMin="0" xMax="484" yMax="674">
      <contour>
        <pt x="220" y="123" on="1"/>
        <pt x="484" y="123" on="1"/>
        <pt x="484" y="0" on="1"/>
        <pt x="65" y="0" on="1"/>
        <pt x="65" y="674" on="1"/>
        <pt x="480" y="674" on="1"/>
        <pt x="480" y="551" on="1"/>
        <pt x="220" y="551" on="1"/>
        <pt x="220" y="398" on="1"/>
        <pt x="452" y="398" on="1"/>
        <pt x="452" y="276" on="1"/>
        <pt x="220" y="276" on="1"/>
      </contour>
    </TTGlyph>
    <TTGlyph name="Eacute" xMin="65" yMin="0" xMax="484" yMax="898">
      <contour>
        <pt x="220" y="123" on="1"/>
        <pt x="484" y="123" on="1"/>
        <pt x="484" y="0" on="1"/>
        <pt x="65" y="0" on="1"/>
        <pt x="65" y="674" on="1"/>
        <pt x="480" y="674" on="1"/>
        <pt x="480" y="551" on="1"/>
        <pt x="220" y="551" on="1"/>
        <pt x="220" y="398" on="1"/>
        <pt x="452" y="398" on="1"/>
        <pt x="452" y="276" on="1"/>
        <pt x="220" y="276" on="1"/>
      </contour>
      <contour>
        <pt x="454" y="898" on="1"/>
        <pt x="343" y="721" on="1"/>
        <pt x="222" y="721" on="1"/>
        <pt x="308" y="898" on="1"/>
      </contour>
    </TTGlyph>
    <TTGlyph name="Ebreve" xMin="65" yMin="0" xMax="484" yMax="898">
      <contour>
        <pt x="220" y="123" on="1"/>
        <pt x="484" y="123" on="1"/>
        <pt x="484" y="0" on="1"/>
        <pt x="65" y="0" on="1"/>
        <pt x="65" y="674" on="1"/>
        <pt x="480" y="674" on="1"/>
        <pt x="480" y="551" on="1"/>
        <pt x="220" y="551" on="1"/>
        <pt x="220" y="398" on="1"/>
        <pt x="452" y="398" on="1"/>
        <pt x="452" y="276" on="1"/>
        <pt x="220" y="276" on="1"/>
      </contour>
      <contour>
        <pt x="370" y="898" on="1"/>
        <pt x="482" y="898" on="1"/>
        <pt x="482" y="805" on="0"/>
        <pt x="373" y="717" on="0"/>
        <pt x="195" y="717" on="0"/>
        <pt x="86" y="805" on="0"/>
        <pt x="86" y="898" on="1"/>
        <pt x="198" y="898" on="1"/>
        <pt x="198" y="856" on="0"/>
        <pt x="245" y="809" on="0"/>
        <pt x="323" y="809" on="0"/>
        <pt x="370" y="856" on="0"/>
      </contour>
    </TTGlyph>
    <TTGlyph name="Ecaron" xMin="61" yMin="0" xMax="497" yMax="898">
      <contour>
        <pt x="220" y="276" on="1"/>
        <pt x="220" y="123" on="1"/>
        <pt x="484" y="123" on="1"/>
        <pt x="484" y="0" on="1"/>
        <pt x="65" y="0" on="1"/>
        <pt x="65" y="674" on="1"/>
        <pt x="480" y="674" on="1"/>
        <pt x="480" y="551" on="1"/>
        <pt x="220" y="551" on="1"/>
        <pt x="220" y="398" on="1"/>
        <pt x="452" y="398" on="1"/>
        <pt x="452" y="276" on="1"/>
      </contour>
      <contour>
        <pt x="341" y="721" on="1"/>
        <pt x="217" y="721" on="1"/>
        <pt x="61" y="898" on="1"/>
        <pt x="200" y="898" on="1"/>
        <pt x="279" y="802" on="1"/>
        <pt x="358" y="898" on="1"/>
        <pt x="497" y="898" on="1"/>
      </contour>
    </TTGlyph>
    <TTGlyph name="Ecircumflex" xMin="54" yMin="0" xMax="490" yMax="898">
      <contour>
        <pt x="220" y="276" on="1"/>
        <pt x="220" y="123" on="1"/>
        <pt x="484" y="123" on="1"/>
        <pt x="484" y="0" on="1"/>
        <pt x="65" y="0" on="1"/>
        <pt x="65" y="674" on="1"/>
        <pt x="480" y="674" on="1"/>
        <pt x="480" y="551" on="1"/>
        <pt x="220" y="551" on="1"/>
        <pt x="220" y="398" on="1"/>
        <pt x="452" y="398" on="1"/>
        <pt x="452" y="276" on="1"/>
      </contour>
      <contour>
        <pt x="272" y="817" on="1"/>
        <pt x="193" y="721" on="1"/>
        <pt x="54" y="721" on="1"/>
        <pt x="210" y="898" on="1"/>
        <pt x="334" y="898" on="1"/>
        <pt x="490" y="721" on="1"/>
        <pt x="351" y="721" on="1"/>
      </contour>
    </TTGlyph>
    <TTGlyph name="Edieresis" xMin="55" yMin="0" xMax="489" yMax="890">
      <contour>
        <pt x="220" y="276" on="1"/>
        <pt x="220" y="123" on="1"/>
        <pt x="484" y="123" on="1"/>
        <pt x="484" y="0" on="1"/>
        <pt x="65" y="0" on="1"/>
        <pt x="65" y="674" on="1"/>
        <pt x="480" y="674" on="1"/>
        <pt x="480" y="551" on="1"/>
        <pt x="220" y="551" on="1"/>
        <pt x="220" y="398" on="1"/>
        <pt x="452" y="398" on="1"/>
        <pt x="452" y="276" on="1"/>
      </contour>
      <contour>
        <pt x="220" y="774" on="0"/>
        <pt x="173" y="727" on="0"/>
        <pt x="102" y="727" on="0"/>
        <pt x="55" y="774" on="0"/>
        <pt x="55" y="843" on="0"/>
        <pt x="102" y="890" on="0"/>
        <pt x="173" y="890" on="0"/>
        <pt x="220" y="843" on="0"/>
      </contour>
      <contour>
        <pt x="489" y="774" on="0"/>
        <pt x="441" y="727" on="0"/>
        <pt x="370" y="727" on="0"/>
        <pt x="323" y="774" on="0"/>
        <pt x="323" y="843" on="0"/>
        <pt x="370" y="890" on="0"/>
        <pt x="441" y="890" on="0"/>
        <pt x="489" y="843" on="0"/>
      </contour>
    </TTGlyph>
    <TTGlyph name="Edotaccent" xMin="65" yMin="0" xMax="484" yMax="891">
      <contour>
        <pt x="220" y="123" on="1"/>
        <pt x="484" y="123" on="1"/>
        <pt x="484" y="0" on="1"/>
        <pt x="65" y="0" on="1"/>
        <pt x="65" y="674" on="1"/>
        <pt x="480" y="674" on="1"/>
        <pt x="480" y="551" on="1"/>
        <pt x="220" y="551" on="1"/>
        <pt x="220" y="398" on="1"/>
        <pt x="452" y="398" on="1"/>
        <pt x="452" y="276" on="1"/>
        <pt x="220" y="276" on="1"/>
      </contour>
      <contour>
        <pt x="364" y="775" on="0"/>
        <pt x="317" y="728" on="0"/>
        <pt x="246" y="728" on="0"/>
        <pt x="199" y="775" on="0"/>
        <pt x="199" y="844" on="0"/>
        <pt x="246" y="891" on="0"/>
        <pt x="317" y="891" on="0"/>
        <pt x="364" y="844" on="0"/>
      </contour>
    </TTGlyph>
    <TTGlyph name="Egrave" xMin="65" yMin="0" xMax="484" yMax="898">
      <contour>
        <pt x="220" y="123" on="1"/>
        <pt x="484" y="123" on="1"/>
        <pt x="484" y="0" on="1"/>
        <pt x="65" y="0" on="1"/>
        <pt x="65" y="674" on="1"/>
        <pt x="480" y="674" on="1"/>
        <pt x="480" y="551" on="1"/>
        <pt x="220" y="551" on="1"/>
        <pt x="220" y="398" on="1"/>
        <pt x="452" y="398" on="1"/>
        <pt x="452" y="276" on="1"/>
        <pt x="220" y="276" on="1"/>
      </contour>
      <contour>
        <pt x="346" y="721" on="1"/>
        <pt x="225" y="721" on="1"/>
        <pt x="114" y="898" on="1"/>
        <pt x="260" y="898" on="1"/>
      </contour>
    </TTGlyph>
    <TTGlyph name="Emacron" xMin="65" yMin="0" xMax="484" yMax="863">
      <contour>
        <pt x="220" y="123" on="1"/>
        <pt x="484" y="123" on="1"/>
        <pt x="484" y="0" on="1"/>
        <pt x="65" y="0" on="1"/>
        <pt x="65" y="674" on="1"/>
        <pt x="480" y="674" on="1"/>
        <pt x="480" y="551" on="1"/>
        <pt x="220" y="551" on="1"/>
        <pt x="220" y="398" on="1"/>
        <pt x="452" y="398" on="1"/>
        <pt x="452" y="276" on="1"/>
        <pt x="220" y="276" on="1"/>
      </contour>
      <contour>
        <pt x="450" y="863" on="1"/>
        <pt x="450" y="764" on="1"/>
        <pt x="94" y="764" on="1"/>
        <pt x="94" y="863" on="1"/>
      </contour>
    </TTGlyph>
    <TTGlyph name="Eng" xMin="65" yMin="-197" xMax="632" yMax="674">
      <contour>
        <pt x="478" y="674" on="1"/>
        <pt x="632" y="674" on="1"/>
        <pt x="632" y="0" on="1"/>
        <pt x="630" y="-94" on="0"/>
        <pt x="527" y="-197" on="0"/>
        <pt x="437" y="-197" on="1"/>
        <pt x="368" y="-197" on="0"/>
        <pt x="330" y="-177" on="1"/>
        <pt x="330" y="-41" on="1"/>
        <pt x="367" y="-64" on="0"/>
        <pt x="407" y="-64" on="1"/>
        <pt x="472" y="-64" on="0"/>
        <pt x="478" y="0" on="1"/>
        <pt x="463" y="0" on="1"/>
        <pt x="302" y="279" on="1"/>
        <pt x="239" y="386" on="0"/>
        <pt x="212" y="463" on="1"/>
        <pt x="204" y="488" on="1"/>
        <pt x="219" y="398" on="0"/>
        <pt x="219" y="279" on="1"/>
        <pt x="219" y="0" on="1"/>
        <pt x="65" y="0" on="1"/>
        <pt x="65" y="674" on="1"/>
        <pt x="234" y="674" on="1"/>
        <pt x="391" y="395" on="1"/>
        <pt x="459" y="274" on="0"/>
        <pt x="488" y="190" on="1"/>
        <pt x="478" y="264" on="0"/>
        <pt x="478" y="395" on="1"/>
      </contour>
    </TTGlyph>
    <TTGlyph name="Eogonek" xMin="65" yMin="-260" xMax="496" yMax="674">
      <contour>
        <pt x="484" y="123" on="1"/>
        <pt x="484" y="0" on="1"/>
        <pt x="366" y="-73" on="0"/>
        <pt x="366" y="-130" on="1"/>
        <pt x="366" y="-164" on="0"/>
        <pt x="453" y="-164" on="0"/>
        <pt x="496" y="-134" on="1"/>
        <pt x="496" y="-235" on="1"/>
        <pt x="448" y="-260" on="0"/>
        <pt x="317" y="-260" on="0"/>
        <pt x="250" y="-194" on="0"/>
        <pt x="250" y="-143" on="1"/>
        <pt x="250" y="-64" on="0"/>
        <pt x="329" y="0" on="1"/>
        <pt x="65" y="0" on="1"/>
        <pt x="65" y="674" on="1"/>
        <pt x="480" y="674" on="1"/>
        <pt x="480" y="551" on="1"/>
        <pt x="220" y="551" on="1"/>
        <pt x="220" y="398" on="1"/>
        <pt x="452" y="398" on="1"/>
        <pt x="452" y="276" on="1"/>
        <pt x="220" y="276" on="1"/>
        <pt x="220" y="123" on="1"/>
      </contour>
    </TTGlyph>
    <TTGlyph name="Eth" xMin="65" yMin="0" xMax="709" yMax="674">
      <contour>
        <pt x="131" y="674" on="1"/>
        <pt x="363" y="674" on="1"/>
        <pt x="515" y="674" on="0"/>
        <pt x="709" y="487" on="0"/>
        <pt x="709" y="348" on="1"/>
        <pt x="709" y="186" on="0"/>
        <pt x="518" y="0" on="0"/>
        <pt x="361" y="0" on="1"/>
        <pt x="131" y="0" on="1"/>
        <pt x="131" y="269" on="1"/>
        <pt x="65" y="269" on="1"/>
        <pt x="65" y="393" on="1"/>
        <pt x="131" y="393" on="1"/>
      </contour>
      <contour>
        <pt x="289" y="126" on="1"/>
        <pt x="359" y="126" on="1"/>
        <pt x="452" y="126" on="0"/>
        <pt x="553" y="242" on="0"/>
        <pt x="553" y="438" on="0"/>
        <pt x="451" y="547" on="0"/>
        <pt x="358" y="547" on="1"/>
        <pt x="289" y="547" on="1"/>
        <pt x="289" y="393" on="1"/>
        <pt x="427" y="393" on="1"/>
        <pt x="427" y="269" on="1"/>
        <pt x="289" y="269" on="1"/>
      </contour>
    </TTGlyph>
    <TTGlyph name="Euro" xMin="40" yMin="-8" xMax="582" yMax="663">
      <contour>
        <pt x="445" y="526" on="1"/>
        <pt x="347" y="526" on="0"/>
        <pt x="299" y="445" on="1"/>
        <pt x="477" y="445" on="1"/>
        <pt x="477" y="355" on="1"/>
        <pt x="271" y="355" on="1"/>
        <pt x="269" y="331" on="0"/>
        <pt x="269" y="300" on="0"/>
        <pt x="270" y="291" on="1"/>
        <pt x="477" y="291" on="1"/>
        <pt x="477" y="201" on="1"/>
        <pt x="298" y="201" on="1"/>
        <pt x="343" y="126" on="0"/>
        <pt x="440" y="126" on="1"/>
        <pt x="522" y="126" on="0"/>
        <pt x="582" y="175" on="1"/>
        <pt x="582" y="27" on="1"/>
        <pt x="518" y="-8" on="0"/>
        <pt x="319" y="-8" on="0"/>
        <pt x="164" y="105" on="0"/>
        <pt x="133" y="201" on="1"/>
        <pt x="40" y="201" on="1"/>
        <pt x="40" y="291" on="1"/>
        <pt x="116" y="291" on="1"/>
        <pt x="115" y="301" on="0"/>
        <pt x="115" y="344" on="0"/>
        <pt x="116" y="355" on="1"/>
        <pt x="40" y="355" on="1"/>
        <pt x="40" y="445" on="1"/>
        <pt x="132" y="445" on="1"/>
        <pt x="163" y="549" on="0"/>
        <pt x="321" y="663" on="0"/>
        <pt x="519" y="663" on="0"/>
        <pt x="582" y="625" on="1"/>
        <pt x="582" y="478" on="1"/>
        <pt x="523" y="526" on="0"/>
      </contour>
    </TTGlyph>
    <TTGlyph name="F" xMin="65" yMin="0" xMax="476" yMax="674">
      <contour>
        <pt x="476" y="551" on="1"/>
        <pt x="220" y="551" on="1"/>
        <pt x="220" y="377" on="1"/>
        <pt x="443" y="377" on="1"/>
        <pt x="443" y="254" on="1"/>
        <pt x="220" y="254" on="1"/>
        <pt x="220" y="0" on="1"/>
        <pt x="65" y="0" on="1"/>
        <pt x="65" y="674" on="1"/>
        <pt x="476" y="674" on="1"/>
      </contour>
    </TTGlyph>
    <TTGlyph name="G" xMin="40" yMin="-8" xMax="646" yMax="686">
      <contour>
        <pt x="646" y="402" on="1"/>
        <pt x="646" y="62" on="1"/>
        <pt x="550" y="-8" on="0"/>
        <pt x="242" y="-8" on="0"/>
        <pt x="40" y="178" on="0"/>
        <pt x="40" y="496" on="0"/>
        <pt x="251" y="686" on="0"/>
        <pt x="413" y="686" on="1"/>
        <pt x="527" y="686" on="0"/>
        <pt x="610" y="644" on="1"/>
        <pt x="610" y="490" on="1"/>
        <pt x="514" y="545" on="0"/>
        <pt x="318" y="545" on="0"/>
        <pt x="206" y="432" on="0"/>
        <pt x="206" y="243" on="0"/>
        <pt x="316" y="131" on="0"/>
        <pt x="411" y="131" on="1"/>
        <pt x="454" y="131" on="0"/>
        <pt x="496" y="144" on="1"/>
        <pt x="496" y="271" on="1"/>
        <pt x="387" y="271" on="1"/>
        <pt x="387" y="402" on="1"/>
      </contour>
    </TTGlyph>
    <TTGlyph name="Gbreve" xMin="40" yMin="-8" xMax="646" yMax="898">
      <contour>
        <pt x="646" y="402" on="1"/>
        <pt x="646" y="62" on="1"/>
        <pt x="550" y="-8" on="0"/>
        <pt x="242" y="-8" on="0"/>
        <pt x="40" y="178" on="0"/>
        <pt x="40" y="496" on="0"/>
        <pt x="251" y="686" on="0"/>
        <pt x="413" y="686" on="1"/>
        <pt x="527" y="686" on="0"/>
        <pt x="610" y="644" on="1"/>
        <pt x="610" y="490" on="1"/>
        <pt x="514" y="545" on="0"/>
        <pt x="318" y="545" on="0"/>
        <pt x="206" y="432" on="0"/>
        <pt x="206" y="243" on="0"/>
        <pt x="316" y="131" on="0"/>
        <pt x="411" y="131" on="1"/>
        <pt x="454" y="131" on="0"/>
        <pt x="496" y="144" on="1"/>
        <pt x="496" y="271" on="1"/>
        <pt x="387" y="271" on="1"/>
        <pt x="387" y="402" on="1"/>
      </contour>
      <contour>
        <pt x="464" y="898" on="1"/>
        <pt x="576" y="898" on="1"/>
        <pt x="576" y="805" on="0"/>
        <pt x="467" y="717" on="0"/>
        <pt x="289" y="717" on="0"/>
        <pt x="180" y="805" on="0"/>
        <pt x="180" y="898" on="1"/>
        <pt x="292" y="898" on="1"/>
        <pt x="292" y="856" on="0"/>
        <pt x="339" y="809" on="0"/>
        <pt x="417" y="809" on="0"/>
        <pt x="464" y="856" on="0"/>
      </contour>
    </TTGlyph>
    <TTGlyph name="Gcircumflex" xMin="40" yMin="-8" xMax="646" yMax="898">
      <contour>
        <pt x="646" y="402" on="1"/>
        <pt x="646" y="62" on="1"/>
        <pt x="550" y="-8" on="0"/>
        <pt x="242" y="-8" on="0"/>
        <pt x="40" y="178" on="0"/>
        <pt x="40" y="496" on="0"/>
        <pt x="251" y="686" on="0"/>
        <pt x="413" y="686" on="1"/>
        <pt x="527" y="686" on="0"/>
        <pt x="610" y="644" on="1"/>
        <pt x="610" y="490" on="1"/>
        <pt x="514" y="545" on="0"/>
        <pt x="318" y="545" on="0"/>
        <pt x="206" y="432" on="0"/>
        <pt x="206" y="243" on="0"/>
        <pt x="316" y="131" on="0"/>
        <pt x="411" y="131" on="1"/>
        <pt x="454" y="131" on="0"/>
        <pt x="496" y="144" on="1"/>
        <pt x="496" y="271" on="1"/>
        <pt x="387" y="271" on="1"/>
        <pt x="387" y="402" on="1"/>
      </contour>
      <contour>
        <pt x="385" y="817" on="1"/>
        <pt x="306" y="721" on="1"/>
        <pt x="167" y="721" on="1"/>
        <pt x="323" y="898" on="1"/>
        <pt x="447" y="898" on="1"/>
        <pt x="603" y="721" on="1"/>
        <pt x="464" y="721" on="1"/>
      </contour>
    </TTGlyph>
    <TTGlyph name="Gdotaccent" xMin="40" yMin="-8" xMax="646" yMax="891">
      <contour>
        <pt x="646" y="402" on="1"/>
        <pt x="646" y="62" on="1"/>
        <pt x="550" y="-8" on="0"/>
        <pt x="242" y="-8" on="0"/>
        <pt x="40" y="178" on="0"/>
        <pt x="40" y="496" on="0"/>
        <pt x="251" y="686" on="0"/>
        <pt x="413" y="686" on="1"/>
        <pt x="527" y="686" on="0"/>
        <pt x="610" y="644" on="1"/>
        <pt x="610" y="490" on="1"/>
        <pt x="514" y="545" on="0"/>
        <pt x="318" y="545" on="0"/>
        <pt x="206" y="432" on="0"/>
        <pt x="206" y="243" on="0"/>
        <pt x="316" y="131" on="0"/>
        <pt x="411" y="131" on="1"/>
        <pt x="454" y="131" on="0"/>
        <pt x="496" y="144" on="1"/>
        <pt x="496" y="271" on="1"/>
        <pt x="387" y="271" on="1"/>
        <pt x="387" y="402" on="1"/>
      </contour>
      <contour>
        <pt x="468" y="775" on="0"/>
        <pt x="421" y="728" on="0"/>
        <pt x="350" y="728" on="0"/>
        <pt x="303" y="775" on="0"/>
        <pt x="303" y="844" on="0"/>
        <pt x="350" y="891" on="0"/>
        <pt x="421" y="891" on="0"/>
        <pt x="468" y="844" on="0"/>
      </contour>
    </TTGlyph>
    <TTGlyph name="H" xMin="65" yMin="0" xMax="621" yMax="674">
      <contour>
        <pt x="466" y="674" on="1"/>
        <pt x="621" y="674" on="1"/>
        <pt x="621" y="0" on="1"/>
        <pt x="466" y="0" on="1"/>
        <pt x="466" y="269" on="1"/>
        <pt x="219" y="269" on="1"/>
        <pt x="219" y="0" on="1"/>
        <pt x="65" y="0" on="1"/>
        <pt x="65" y="674" on="1"/>
        <pt x="219" y="674" on="1"/>
        <pt x="219" y="400" on="1"/>
        <pt x="466" y="400" on="1"/>
      </contour>
    </TTGlyph>
    <TTGlyph name="Hbar" xMin="45" yMin="0" xMax="749" yMax="674">
      <contour>
        <pt x="749" y="577" on="1"/>
        <pt x="749" y="495" on="1"/>
        <pt x="675" y="495" on="1"/>
        <pt x="675" y="0" on="1"/>
        <pt x="520" y="0" on="1"/>
        <pt x="520" y="269" on="1"/>
        <pt x="273" y="269" on="1"/>
        <pt x="273" y="0" on="1"/>
        <pt x="119" y="0" on="1"/>
        <pt x="119" y="495" on="1"/>
        <pt x="45" y="495" on="1"/>
        <pt x="45" y="577" on="1"/>
        <pt x="119" y="577" on="1"/>
        <pt x="119" y="674" on="1"/>
        <pt x="273" y="674" on="1"/>
        <pt x="273" y="577" on="1"/>
        <pt x="520" y="577" on="1"/>
        <pt x="520" y="674" on="1"/>
        <pt x="675" y="674" on="1"/>
        <pt x="675" y="577" on="1"/>
      </contour>
      <contour>
        <pt x="520" y="400" on="1"/>
        <pt x="520" y="495" on="1"/>
        <pt x="273" y="495" on="1"/>
        <pt x="273" y="400" on="1"/>
      </contour>
    </TTGlyph>
    <TTGlyph name="Hcircumflex" xMin="65" yMin="0" xMax="621" yMax="898">
      <contour>
        <pt x="466" y="674" on="1"/>
        <pt x="621" y="674" on="1"/>
        <pt x="621" y="0" on="1"/>
        <pt x="466" y="0" on="1"/>
        <pt x="466" y="269" on="1"/>
        <pt x="219" y="269" on="1"/>
        <pt x="219" y="0" on="1"/>
        <pt x="65" y="0" on="1"/>
        <pt x="65" y="674" on="1"/>
        <pt x="219" y="674" on="1"/>
        <pt x="219" y="400" on="1"/>
        <pt x="466" y="400" on="1"/>
      </contour>
      <contour>
        <pt x="341" y="817" on="1"/>
        <pt x="262" y="721" on="1"/>
        <pt x="123" y="721" on="1"/>
        <pt x="279" y="898" on="1"/>
        <pt x="403" y="898" on="1"/>
        <pt x="559" y="721" on="1"/>
        <pt x="420" y="721" on="1"/>
      </contour>
    </TTGlyph>
    <TTGlyph name="I" xMin="75" yMin="0" xMax="229" yMax="674">
      <contour>
        <pt x="75" y="0" on="1"/>
        <pt x="75" y="674" on="1"/>
        <pt x="229" y="674" on="1"/>
        <pt x="229" y="0" on="1"/>
      </contour>
    </TTGlyph>
    <TTGlyph name="IJ" xMin="75" yMin="-1" xMax="612" yMax="674">
      <contour>
        <pt x="387" y="132" on="1"/>
        <pt x="458" y="132" on="0"/>
        <pt x="458" y="208" on="1"/>
        <pt x="458" y="673" on="1"/>
        <pt x="612" y="673" on="1"/>
        <pt x="612" y="204" on="1"/>
        <pt x="612" y="107" on="0"/>
        <pt x="509" y="-1" on="0"/>
        <pt x="417" y="-1" on="1"/>
        <pt x="348" y="-1" on="0"/>
        <pt x="310" y="19" on="1"/>
        <pt x="310" y="155" on="1"/>
        <pt x="347" y="132" on="0"/>
      </contour>
      <contour>
        <pt x="75" y="0" on="1"/>
        <pt x="75" y="674" on="1"/>
        <pt x="229" y="674" on="1"/>
        <pt x="229" y="0" on="1"/>
      </contour>
    </TTGlyph>
    <TTGlyph name="Iacute" xMin="75" yMin="0" xMax="326" yMax="898">
      <contour>
        <pt x="94" y="721" on="1"/>
        <pt x="180" y="898" on="1"/>
        <pt x="326" y="898" on="1"/>
        <pt x="215" y="721" on="1"/>
      </contour>
      <contour>
        <pt x="75" y="0" on="1"/>
        <pt x="75" y="674" on="1"/>
        <pt x="229" y="674" on="1"/>
        <pt x="229" y="0" on="1"/>
      </contour>
    </TTGlyph>
    <TTGlyph name="Ibreve" xMin="-44" yMin="0" xMax="352" yMax="898">
      <contour>
        <pt x="75" y="0" on="1"/>
        <pt x="75" y="674" on="1"/>
        <pt x="229" y="674" on="1"/>
        <pt x="229" y="0" on="1"/>
      </contour>
      <contour>
        <pt x="-44" y="898" on="1"/>
        <pt x="68" y="898" on="1"/>
        <pt x="68" y="856" on="0"/>
        <pt x="115" y="809" on="0"/>
        <pt x="193" y="809" on="0"/>
        <pt x="240" y="856" on="0"/>
        <pt x="240" y="898" on="1"/>
        <pt x="352" y="898" on="1"/>
        <pt x="352" y="805" on="0"/>
        <pt x="243" y="717" on="0"/>
        <pt x="65" y="717" on="0"/>
        <pt x="-44" y="805" on="0"/>
      </contour>
    </TTGlyph>
    <TTGlyph name="Icircumflex" xMin="-64" yMin="0" xMax="372" yMax="898">
      <contour>
        <pt x="75" y="0" on="1"/>
        <pt x="75" y="674" on="1"/>
        <pt x="229" y="674" on="1"/>
        <pt x="229" y="0" on="1"/>
      </contour>
      <contour>
        <pt x="92" y="898" on="1"/>
        <pt x="216" y="898" on="1"/>
        <pt x="372" y="721" on="1"/>
        <pt x="233" y="721" on="1"/>
        <pt x="154" y="817" on="1"/>
        <pt x="75" y="721" on="1"/>
        <pt x="-64" y="721" on="1"/>
      </contour>
    </TTGlyph>
    <TTGlyph name="Idieresis" xMin="-59" yMin="0" xMax="375" yMax="891">
      <contour>
        <pt x="256" y="728" on="0"/>
        <pt x="209" y="775" on="0"/>
        <pt x="209" y="844" on="0"/>
        <pt x="256" y="891" on="0"/>
        <pt x="327" y="891" on="0"/>
        <pt x="375" y="844" on="0"/>
        <pt x="375" y="775" on="0"/>
        <pt x="327" y="728" on="0"/>
      </contour>
      <contour>
        <pt x="-12" y="728" on="0"/>
        <pt x="-59" y="775" on="0"/>
        <pt x="-59" y="844" on="0"/>
        <pt x="-12" y="891" on="0"/>
        <pt x="59" y="891" on="0"/>
        <pt x="106" y="844" on="0"/>
        <pt x="106" y="775" on="0"/>
        <pt x="59" y="728" on="0"/>
      </contour>
      <contour>
        <pt x="75" y="0" on="1"/>
        <pt x="75" y="674" on="1"/>
        <pt x="229" y="674" on="1"/>
        <pt x="229" y="0" on="1"/>
      </contour>
    </TTGlyph>
    <TTGlyph name="Idotaccent" xMin="71" yMin="0" xMax="236" yMax="891">
      <contour>
        <pt x="118" y="728" on="0"/>
        <pt x="71" y="775" on="0"/>
        <pt x="71" y="844" on="0"/>
        <pt x="118" y="891" on="0"/>
        <pt x="189" y="891" on="0"/>
        <pt x="236" y="844" on="0"/>
        <pt x="236" y="775" on="0"/>
        <pt x="189" y="728" on="0"/>
      </contour>
      <contour>
        <pt x="75" y="0" on="1"/>
        <pt x="75" y="674" on="1"/>
        <pt x="229" y="674" on="1"/>
        <pt x="229" y="0" on="1"/>
      </contour>
    </TTGlyph>
    <TTGlyph name="Igrave" xMin="-24" yMin="0" xMax="229" yMax="898">
      <contour>
        <pt x="122" y="898" on="1"/>
        <pt x="208" y="721" on="1"/>
        <pt x="87" y="721" on="1"/>
        <pt x="-24" y="898" on="1"/>
      </contour>
      <contour>
        <pt x="75" y="0" on="1"/>
        <pt x="75" y="674" on="1"/>
        <pt x="229" y="674" on="1"/>
        <pt x="229" y="0" on="1"/>
      </contour>
    </TTGlyph>
    <TTGlyph name="Imacron" xMin="-26" yMin="0" xMax="330" yMax="859">
      <contour>
        <pt x="330" y="760" on="1"/>
        <pt x="-26" y="760" on="1"/>
        <pt x="-26" y="859" on="1"/>
        <pt x="330" y="859" on="1"/>
      </contour>
      <contour>
        <pt x="75" y="0" on="1"/>
        <pt x="75" y="674" on="1"/>
        <pt x="229" y="674" on="1"/>
        <pt x="229" y="0" on="1"/>
      </contour>
    </TTGlyph>
    <TTGlyph name="Iogonek" xMin="-5" yMin="-260" xMax="241" yMax="674">
      <contour>
        <pt x="229" y="674" on="1"/>
        <pt x="229" y="0" on="1"/>
        <pt x="111" y="-73" on="0"/>
        <pt x="111" y="-130" on="1"/>
        <pt x="111" y="-164" on="0"/>
        <pt x="198" y="-164" on="0"/>
        <pt x="241" y="-134" on="1"/>
        <pt x="241" y="-235" on="1"/>
        <pt x="193" y="-260" on="0"/>
        <pt x="62" y="-260" on="0"/>
        <pt x="-5" y="-194" on="0"/>
        <pt x="-5" y="-143" on="1"/>
        <pt x="-5" y="-64" on="0"/>
        <pt x="75" y="1" on="1"/>
        <pt x="75" y="674" on="1"/>
      </contour>
    </TTGlyph>
    <TTGlyph name="Itilde" xMin="-52" yMin="0" xMax="344" yMax="887">
      <contour>
        <pt x="208" y="741" on="1"/>
        <pt x="175" y="741" on="0"/>
        <pt x="103" y="776" on="0"/>
        <pt x="63" y="776" on="0"/>
        <pt x="35" y="759" on="0"/>
        <pt x="13" y="733" on="1"/>
        <pt x="-52" y="797" on="1"/>
        <pt x="-36" y="831" on="0"/>
        <pt x="27" y="879" on="0"/>
        <pt x="100" y="879" on="0"/>
        <pt x="181" y="844" on="0"/>
        <pt x="200" y="844" on="1"/>
        <pt x="248" y="844" on="0"/>
        <pt x="270" y="887" on="1"/>
        <pt x="344" y="826" on="1"/>
        <pt x="302" y="741" on="0"/>
      </contour>
      <contour>
        <pt x="75" y="0" on="1"/>
        <pt x="75" y="674" on="1"/>
        <pt x="229" y="674" on="1"/>
        <pt x="229" y="0" on="1"/>
      </contour>
    </TTGlyph>
    <TTGlyph name="J" xMin="30" yMin="-1" xMax="332" yMax="673">
      <contour>
        <pt x="107" y="132" on="1"/>
        <pt x="178" y="132" on="0"/>
        <pt x="178" y="208" on="1"/>
        <pt x="178" y="673" on="1"/>
        <pt x="332" y="673" on="1"/>
        <pt x="332" y="204" on="1"/>
        <pt x="332" y="107" on="0"/>
        <pt x="229" y="-1" on="0"/>
        <pt x="137" y="-1" on="1"/>
        <pt x="68" y="-1" on="0"/>
        <pt x="30" y="19" on="1"/>
        <pt x="30" y="155" on="1"/>
        <pt x="67" y="132" on="0"/>
      </contour>
    </TTGlyph>
    <TTGlyph name="Jcircumflex" xMin="30" yMin="-1" xMax="475" yMax="898">
      <contour>
        <pt x="195" y="898" on="1"/>
        <pt x="319" y="898" on="1"/>
        <pt x="475" y="721" on="1"/>
        <pt x="336" y="721" on="1"/>
        <pt x="257" y="817" on="1"/>
        <pt x="178" y="721" on="1"/>
        <pt x="39" y="721" on="1"/>
      </contour>
      <contour>
        <pt x="107" y="132" on="1"/>
        <pt x="178" y="132" on="0"/>
        <pt x="178" y="208" on="1"/>
        <pt x="178" y="673" on="1"/>
        <pt x="332" y="673" on="1"/>
        <pt x="332" y="204" on="1"/>
        <pt x="332" y="107" on="0"/>
        <pt x="229" y="-1" on="0"/>
        <pt x="137" y="-1" on="1"/>
        <pt x="68" y="-1" on="0"/>
        <pt x="30" y="19" on="1"/>
        <pt x="30" y="155" on="1"/>
        <pt x="67" y="132" on="0"/>
      </contour>
    </TTGlyph>
    <TTGlyph name="K" xMin="65" yMin="0" xMax="645" yMax="674">
      <contour>
        <pt x="406" y="337" on="1"/>
        <pt x="645" y="0" on="1"/>
        <pt x="452" y="0" on="1"/>
        <pt x="226" y="335" on="1"/>
        <pt x="444" y="674" on="1"/>
        <pt x="627" y="674" on="1"/>
      </contour>
      <contour>
        <pt x="65" y="0" on="1"/>
        <pt x="65" y="674" on="1"/>
        <pt x="219" y="674" on="1"/>
        <pt x="219" y="0" on="1"/>
      </contour>
    </TTGlyph>
    <TTGlyph name="L" xMin="65" yMin="0" xMax="468" yMax="674">
      <contour>
        <pt x="219" y="135" on="1"/>
        <pt x="468" y="135" on="1"/>
        <pt x="468" y="0" on="1"/>
        <pt x="65" y="0" on="1"/>
        <pt x="65" y="674" on="1"/>
        <pt x="219" y="674" on="1"/>
      </contour>
    </TTGlyph>
    <TTGlyph name="Lacute" xMin="65" yMin="0" xMax="488" yMax="898">
      <contour>
        <pt x="219" y="674" on="1"/>
        <pt x="219" y="135" on="1"/>
        <pt x="468" y="135" on="1"/>
        <pt x="468" y="0" on="1"/>
        <pt x="65" y="0" on="1"/>
        <pt x="65" y="674" on="1"/>
      </contour>
      <contour>
        <pt x="488" y="898" on="1"/>
        <pt x="377" y="721" on="1"/>
        <pt x="256" y="721" on="1"/>
        <pt x="342" y="898" on="1"/>
      </contour>
    </TTGlyph>
    <TTGlyph name="Lcaron" xMin="65" yMin="0" xMax="501" yMax="699">
      <contour>
        <pt x="219" y="674" on="1"/>
        <pt x="219" y="135" on="1"/>
        <pt x="468" y="135" on="1"/>
        <pt x="468" y="0" on="1"/>
        <pt x="65" y="0" on="1"/>
        <pt x="65" y="674" on="1"/>
      </contour>
      <contour>
        <pt x="501" y="699" on="1"/>
        <pt x="385" y="488" on="1"/>
        <pt x="279" y="488" on="1"/>
        <pt x="350" y="699" on="1"/>
      </contour>
    </TTGlyph>
    <TTGlyph name="Ldot" xMin="65" yMin="0" xMax="471" yMax="674">
      <contour>
        <pt x="219" y="674" on="1"/>
        <pt x="219" y="135" on="1"/>
        <pt x="468" y="135" on="1"/>
        <pt x="468" y="0" on="1"/>
        <pt x="65" y="0" on="1"/>
        <pt x="65" y="674" on="1"/>
      </contour>
      <contour>
        <pt x="471" y="359" on="0"/>
        <pt x="424" y="312" on="0"/>
        <pt x="353" y="312" on="0"/>
        <pt x="306" y="359" on="0"/>
        <pt x="306" y="428" on="0"/>
        <pt x="353" y="475" on="0"/>
        <pt x="424" y="475" on="0"/>
        <pt x="471" y="428" on="0"/>
      </contour>
    </TTGlyph>
    <TTGlyph name="Lslash" xMin="45" yMin="0" xMax="528" yMax="674">
      <contour>
        <pt x="279" y="135" on="1"/>
        <pt x="528" y="135" on="1"/>
        <pt x="528" y="0" on="1"/>
        <pt x="125" y="0" on="1"/>
        <pt x="125" y="205" on="1"/>
        <pt x="45" y="160" on="1"/>
        <pt x="45" y="281" on="1"/>
        <pt x="125" y="326" on="1"/>
        <pt x="125" y="674" on="1"/>
        <pt x="279" y="674" on="1"/>
        <pt x="279" y="412" on="1"/>
        <pt x="443" y="504" on="1"/>
        <pt x="443" y="383" on="1"/>
        <pt x="279" y="291" on="1"/>
      </contour>
    </TTGlyph>
    <TTGlyph name="M" xMin="50" yMin="0" xMax="843" yMax="674">
      <contour>
        <pt x="50" y="0" on="1"/>
        <pt x="108" y="674" on="1"/>
        <pt x="277" y="674" on="1"/>
        <pt x="398" y="359" on="0"/>
        <pt x="429" y="267" on="0"/>
        <pt x="439" y="226" on="1"/>
        <pt x="455" y="292" on="0"/>
        <pt x="509" y="430" on="1"/>
        <pt x="604" y="674" on="1"/>
        <pt x="773" y="674" on="1"/>
        <pt x="843" y="0" on="1"/>
        <pt x="689" y="0" on="1"/>
        <pt x="664" y="261" on="1"/>
        <pt x="651" y="458" on="1"/>
        <pt x="630" y="397" on="0"/>
        <pt x="484" y="7" on="1"/>
        <pt x="393" y="7" on="1"/>
        <pt x="255" y="379" on="0"/>
        <pt x="234" y="458" on="1"/>
        <pt x="234" y="387" on="0"/>
        <pt x="225" y="261" on="1"/>
        <pt x="204" y="0" on="1"/>
      </contour>
    </TTGlyph>
    <TTGlyph name="N" xMin="65" yMin="0" xMax="632" yMax="674">
      <contour>
        <pt x="65" y="0" on="1"/>
        <pt x="65" y="674" on="1"/>
        <pt x="234" y="674" on="1"/>
        <pt x="391" y="395" on="1"/>
        <pt x="459" y="274" on="0"/>
        <pt x="488" y="190" on="1"/>
        <pt x="478" y="264" on="0"/>
        <pt x="478" y="395" on="1"/>
        <pt x="478" y="674" on="1"/>
        <pt x="632" y="674" on="1"/>
        <pt x="632" y="0" on="1"/>
        <pt x="463" y="0" on="1"/>
        <pt x="302" y="279" on="1"/>
        <pt x="239" y="386" on="0"/>
        <pt x="212" y="463" on="1"/>
        <pt x="204" y="488" on="1"/>
        <pt x="219" y="398" on="0"/>
        <pt x="219" y="279" on="1"/>
        <pt x="219" y="0" on="1"/>
      </contour>
    </TTGlyph>
    <TTGlyph name="Nacute" xMin="65" yMin="0" xMax="632" yMax="898">
      <contour>
        <pt x="65" y="0" on="1"/>
        <pt x="65" y="674" on="1"/>
        <pt x="234" y="674" on="1"/>
        <pt x="391" y="395" on="1"/>
        <pt x="459" y="274" on="0"/>
        <pt x="488" y="190" on="1"/>
        <pt x="478" y="264" on="0"/>
        <pt x="478" y="395" on="1"/>
        <pt x="478" y="674" on="1"/>
        <pt x="632" y="674" on="1"/>
        <pt x="632" y="0" on="1"/>
        <pt x="463" y="0" on="1"/>
        <pt x="302" y="279" on="1"/>
        <pt x="239" y="386" on="0"/>
        <pt x="212" y="463" on="1"/>
        <pt x="204" y="488" on="1"/>
        <pt x="219" y="398" on="0"/>
        <pt x="219" y="279" on="1"/>
        <pt x="219" y="0" on="1"/>
      </contour>
      <contour>
        <pt x="302" y="721" on="1"/>
        <pt x="388" y="898" on="1"/>
        <pt x="534" y="898" on="1"/>
        <pt x="423" y="721" on="1"/>
      </contour>
    </TTGlyph>
    <TTGlyph name="Ncaron" xMin="65" yMin="0" xMax="632" yMax="898">
      <contour>
        <pt x="415" y="721" on="1"/>
        <pt x="291" y="721" on="1"/>
        <pt x="135" y="898" on="1"/>
        <pt x="274" y="898" on="1"/>
        <pt x="353" y="802" on="1"/>
        <pt x="432" y="898" on="1"/>
        <pt x="571" y="898" on="1"/>
      </contour>
      <contour>
        <pt x="65" y="0" on="1"/>
        <pt x="65" y="674" on="1"/>
        <pt x="234" y="674" on="1"/>
        <pt x="391" y="395" on="1"/>
        <pt x="459" y="274" on="0"/>
        <pt x="488" y="190" on="1"/>
        <pt x="478" y="264" on="0"/>
        <pt x="478" y="395" on="1"/>
        <pt x="478" y="674" on="1"/>
        <pt x="632" y="674" on="1"/>
        <pt x="632" y="0" on="1"/>
        <pt x="463" y="0" on="1"/>
        <pt x="302" y="279" on="1"/>
        <pt x="239" y="386" on="0"/>
        <pt x="212" y="463" on="1"/>
        <pt x="204" y="488" on="1"/>
        <pt x="219" y="398" on="0"/>
        <pt x="219" y="279" on="1"/>
        <pt x="219" y="0" on="1"/>
      </contour>
    </TTGlyph>
    <TTGlyph name="Ntilde" xMin="65" yMin="0" xMax="632" yMax="887">
      <contour>
        <pt x="416" y="741" on="1"/>
        <pt x="383" y="741" on="0"/>
        <pt x="311" y="776" on="0"/>
        <pt x="271" y="776" on="0"/>
        <pt x="243" y="759" on="0"/>
        <pt x="221" y="733" on="1"/>
        <pt x="156" y="797" on="1"/>
        <pt x="172" y="831" on="0"/>
        <pt x="235" y="879" on="0"/>
        <pt x="308" y="879" on="0"/>
        <pt x="389" y="844" on="0"/>
        <pt x="408" y="844" on="1"/>
        <pt x="456" y="844" on="0"/>
        <pt x="478" y="887" on="1"/>
        <pt x="552" y="826" on="1"/>
        <pt x="510" y="741" on="0"/>
      </contour>
      <contour>
        <pt x="65" y="0" on="1"/>
        <pt x="65" y="674" on="1"/>
        <pt x="234" y="674" on="1"/>
        <pt x="391" y="395" on="1"/>
        <pt x="459" y="274" on="0"/>
        <pt x="488" y="190" on="1"/>
        <pt x="478" y="264" on="0"/>
        <pt x="478" y="395" on="1"/>
        <pt x="478" y="674" on="1"/>
        <pt x="632" y="674" on="1"/>
        <pt x="632" y="0" on="1"/>
        <pt x="463" y="0" on="1"/>
        <pt x="302" y="279" on="1"/>
        <pt x="239" y="386" on="0"/>
        <pt x="212" y="463" on="1"/>
        <pt x="204" y="488" on="1"/>
        <pt x="219" y="398" on="0"/>
        <pt x="219" y="279" on="1"/>
        <pt x="219" y="0" on="1"/>
      </contour>
    </TTGlyph>
    <TTGlyph name="O" xMin="40" yMin="-7" xMax="696" yMax="685">
      <contour>
        <pt x="205" y="434" on="0"/>
        <pt x="205" y="244" on="0"/>
        <pt x="293" y="133" on="0"/>
        <pt x="443" y="133" on="0"/>
        <pt x="531" y="244" on="0"/>
        <pt x="531" y="434" on="0"/>
        <pt x="443" y="545" on="0"/>
        <pt x="293" y="545" on="0"/>
      </contour>
      <contour>
        <pt x="218" y="-7" on="0"/>
        <pt x="40" y="183" on="0"/>
        <pt x="40" y="494" on="0"/>
        <pt x="219" y="685" on="0"/>
        <pt x="518" y="685" on="0"/>
        <pt x="696" y="495" on="0"/>
        <pt x="696" y="184" on="0"/>
        <pt x="517" y="-7" on="0"/>
      </contour>
    </TTGlyph>
    <TTGlyph name="OE" xMin="40" yMin="-7" xMax="940" yMax="685">
      <contour>
        <pt x="666" y="123" on="1"/>
        <pt x="940" y="123" on="1"/>
        <pt x="940" y="0" on="1"/>
        <pt x="521" y="0" on="1"/>
        <pt x="521" y="44" on="1"/>
        <pt x="451" y="-7" on="0"/>
        <pt x="363" y="-7" on="1"/>
        <pt x="214" y="-7" on="0"/>
        <pt x="40" y="182" on="0"/>
        <pt x="40" y="495" on="0"/>
        <pt x="214" y="685" on="0"/>
        <pt x="363" y="685" on="1"/>
        <pt x="451" y="685" on="0"/>
        <pt x="521" y="635" on="1"/>
        <pt x="521" y="674" on="1"/>
        <pt x="936" y="674" on="1"/>
        <pt x="936" y="551" on="1"/>
        <pt x="666" y="551" on="1"/>
        <pt x="666" y="398" on="1"/>
        <pt x="908" y="398" on="1"/>
        <pt x="908" y="276" on="1"/>
        <pt x="666" y="276" on="1"/>
      </contour>
      <contour>
        <pt x="289" y="133" on="0"/>
        <pt x="437" y="133" on="0"/>
        <pt x="521" y="244" on="0"/>
        <pt x="521" y="434" on="0"/>
        <pt x="437" y="545" on="0"/>
        <pt x="289" y="545" on="0"/>
        <pt x="205" y="434" on="0"/>
        <pt x="205" y="244" on="0"/>
      </contour>
    </TTGlyph>
    <TTGlyph name="Oacute" xMin="40" yMin="-7" xMax="696" yMax="898">
      <contour>
        <pt x="205" y="434" on="0"/>
        <pt x="205" y="244" on="0"/>
        <pt x="293" y="133" on="0"/>
        <pt x="443" y="133" on="0"/>
        <pt x="531" y="244" on="0"/>
        <pt x="531" y="434" on="0"/>
        <pt x="443" y="545" on="0"/>
        <pt x="293" y="545" on="0"/>
      </contour>
      <contour>
        <pt x="218" y="-7" on="0"/>
        <pt x="40" y="183" on="0"/>
        <pt x="40" y="494" on="0"/>
        <pt x="219" y="685" on="0"/>
        <pt x="518" y="685" on="0"/>
        <pt x="696" y="495" on="0"/>
        <pt x="696" y="184" on="0"/>
        <pt x="517" y="-7" on="0"/>
      </contour>
      <contour>
        <pt x="311" y="721" on="1"/>
        <pt x="397" y="898" on="1"/>
        <pt x="543" y="898" on="1"/>
        <pt x="432" y="721" on="1"/>
      </contour>
    </TTGlyph>
    <TTGlyph name="Obreve" xMin="40" yMin="-7" xMax="696" yMax="898">
      <contour>
        <pt x="218" y="-7" on="0"/>
        <pt x="40" y="183" on="0"/>
        <pt x="40" y="494" on="0"/>
        <pt x="219" y="685" on="0"/>
        <pt x="518" y="685" on="0"/>
        <pt x="696" y="495" on="0"/>
        <pt x="696" y="184" on="0"/>
        <pt x="517" y="-7" on="0"/>
      </contour>
      <contour>
        <pt x="205" y="434" on="0"/>
        <pt x="205" y="244" on="0"/>
        <pt x="293" y="133" on="0"/>
        <pt x="443" y="133" on="0"/>
        <pt x="531" y="244" on="0"/>
        <pt x="531" y="434" on="0"/>
        <pt x="443" y="545" on="0"/>
        <pt x="293" y="545" on="0"/>
      </contour>
      <contour>
        <pt x="183" y="898" on="1"/>
        <pt x="295" y="898" on="1"/>
        <pt x="295" y="856" on="0"/>
        <pt x="342" y="809" on="0"/>
        <pt x="420" y="809" on="0"/>
        <pt x="467" y="856" on="0"/>
        <pt x="467" y="898" on="1"/>
        <pt x="579" y="898" on="1"/>
        <pt x="579" y="805" on="0"/>
        <pt x="470" y="717" on="0"/>
        <pt x="292" y="717" on="0"/>
        <pt x="183" y="805" on="0"/>
      </contour>
    </TTGlyph>
    <TTGlyph name="Ocircumflex" xMin="40" yMin="-7" xMax="696" yMax="898">
      <contour>
        <pt x="310" y="898" on="1"/>
        <pt x="434" y="898" on="1"/>
        <pt x="590" y="721" on="1"/>
        <pt x="451" y="721" on="1"/>
        <pt x="372" y="817" on="1"/>
        <pt x="293" y="721" on="1"/>
        <pt x="154" y="721" on="1"/>
      </contour>
      <contour>
        <pt x="218" y="-7" on="0"/>
        <pt x="40" y="183" on="0"/>
        <pt x="40" y="494" on="0"/>
        <pt x="219" y="685" on="0"/>
        <pt x="518" y="685" on="0"/>
        <pt x="696" y="495" on="0"/>
        <pt x="696" y="184" on="0"/>
        <pt x="517" y="-7" on="0"/>
      </contour>
      <contour>
        <pt x="205" y="434" on="0"/>
        <pt x="205" y="244" on="0"/>
        <pt x="293" y="133" on="0"/>
        <pt x="443" y="133" on="0"/>
        <pt x="531" y="244" on="0"/>
        <pt x="531" y="434" on="0"/>
        <pt x="443" y="545" on="0"/>
        <pt x="293" y="545" on="0"/>
      </contour>
    </TTGlyph>
    <TTGlyph name="Odieresis" xMin="40" yMin="-7" xMax="696" yMax="891">
      <contour>
        <pt x="205" y="434" on="0"/>
        <pt x="205" y="244" on="0"/>
        <pt x="293" y="133" on="0"/>
        <pt x="443" y="133" on="0"/>
        <pt x="531" y="244" on="0"/>
        <pt x="531" y="434" on="0"/>
        <pt x="443" y="545" on="0"/>
        <pt x="293" y="545" on="0"/>
      </contour>
      <contour>
        <pt x="218" y="-7" on="0"/>
        <pt x="40" y="183" on="0"/>
        <pt x="40" y="494" on="0"/>
        <pt x="219" y="685" on="0"/>
        <pt x="518" y="685" on="0"/>
        <pt x="696" y="495" on="0"/>
        <pt x="696" y="184" on="0"/>
        <pt x="517" y="-7" on="0"/>
      </contour>
      <contour>
        <pt x="475" y="728" on="0"/>
        <pt x="428" y="775" on="0"/>
        <pt x="428" y="844" on="0"/>
        <pt x="475" y="891" on="0"/>
        <pt x="546" y="891" on="0"/>
        <pt x="594" y="844" on="0"/>
        <pt x="594" y="775" on="0"/>
        <pt x="546" y="728" on="0"/>
      </contour>
      <contour>
        <pt x="207" y="728" on="0"/>
        <pt x="160" y="775" on="0"/>
        <pt x="160" y="844" on="0"/>
        <pt x="207" y="891" on="0"/>
        <pt x="278" y="891" on="0"/>
        <pt x="325" y="844" on="0"/>
        <pt x="325" y="775" on="0"/>
        <pt x="278" y="728" on="0"/>
      </contour>
    </TTGlyph>
    <TTGlyph name="Ograve" xMin="40" yMin="-7" xMax="696" yMax="898">
      <contour>
        <pt x="352" y="898" on="1"/>
        <pt x="438" y="721" on="1"/>
        <pt x="317" y="721" on="1"/>
        <pt x="206" y="898" on="1"/>
      </contour>
      <contour>
        <pt x="205" y="434" on="0"/>
        <pt x="205" y="244" on="0"/>
        <pt x="293" y="133" on="0"/>
        <pt x="443" y="133" on="0"/>
        <pt x="531" y="244" on="0"/>
        <pt x="531" y="434" on="0"/>
        <pt x="443" y="545" on="0"/>
        <pt x="293" y="545" on="0"/>
      </contour>
      <contour>
        <pt x="218" y="-7" on="0"/>
        <pt x="40" y="183" on="0"/>
        <pt x="40" y="494" on="0"/>
        <pt x="219" y="685" on="0"/>
        <pt x="518" y="685" on="0"/>
        <pt x="696" y="495" on="0"/>
        <pt x="696" y="184" on="0"/>
        <pt x="517" y="-7" on="0"/>
      </contour>
    </TTGlyph>
    <TTGlyph name="Ohungarumlaut" xMin="40" yMin="-7" xMax="696" yMax="898">
      <contour>
        <pt x="205" y="434" on="0"/>
        <pt x="205" y="244" on="0"/>
        <pt x="293" y="133" on="0"/>
        <pt x="443" y="133" on="0"/>
        <pt x="531" y="244" on="0"/>
        <pt x="531" y="434" on="0"/>
        <pt x="443" y="545" on="0"/>
        <pt x="293" y="545" on="0"/>
      </contour>
      <contour>
        <pt x="218" y="-7" on="0"/>
        <pt x="40" y="183" on="0"/>
        <pt x="40" y="494" on="0"/>
        <pt x="219" y="685" on="0"/>
        <pt x="518" y="685" on="0"/>
        <pt x="696" y="495" on="0"/>
        <pt x="696" y="184" on="0"/>
        <pt x="517" y="-7" on="0"/>
      </contour>
      <contour>
        <pt x="228" y="721" on="1"/>
        <pt x="314" y="898" on="1"/>
        <pt x="447" y="898" on="1"/>
        <pt x="336" y="721" on="1"/>
      </contour>
      <contour>
        <pt x="415" y="721" on="1"/>
        <pt x="509" y="898" on="1"/>
        <pt x="654" y="898" on="1"/>
        <pt x="523" y="721" on="1"/>
      </contour>
    </TTGlyph>
    <TTGlyph name="Omacron" xMin="40" yMin="-7" xMax="696" yMax="859">
      <contour>
        <pt x="205" y="434" on="0"/>
        <pt x="205" y="244" on="0"/>
        <pt x="293" y="133" on="0"/>
        <pt x="443" y="133" on="0"/>
        <pt x="531" y="244" on="0"/>
        <pt x="531" y="434" on="0"/>
        <pt x="443" y="545" on="0"/>
        <pt x="293" y="545" on="0"/>
      </contour>
      <contour>
        <pt x="218" y="-7" on="0"/>
        <pt x="40" y="183" on="0"/>
        <pt x="40" y="494" on="0"/>
        <pt x="219" y="685" on="0"/>
        <pt x="518" y="685" on="0"/>
        <pt x="696" y="495" on="0"/>
        <pt x="696" y="184" on="0"/>
        <pt x="517" y="-7" on="0"/>
      </contour>
      <contour>
        <pt x="545" y="760" on="1"/>
        <pt x="189" y="760" on="1"/>
        <pt x="189" y="859" on="1"/>
        <pt x="545" y="859" on="1"/>
      </contour>
    </TTGlyph>
    <TTGlyph name="Oslash" xMin="38" yMin="-7" xMax="695" yMax="685">
      <contour>
        <pt x="616" y="577" on="1"/>
        <pt x="694" y="485" on="0"/>
        <pt x="694" y="184" on="0"/>
        <pt x="515" y="-7" on="0"/>
        <pt x="366" y="-7" on="1"/>
        <pt x="280" y="-7" on="0"/>
        <pt x="210" y="27" on="1"/>
        <pt x="185" y="-7" on="1"/>
        <pt x="39" y="-7" on="1"/>
        <pt x="117" y="99" on="1"/>
        <pt x="38" y="192" on="0"/>
        <pt x="38" y="494" on="0"/>
        <pt x="217" y="685" on="0"/>
        <pt x="366" y="685" on="1"/>
        <pt x="455" y="685" on="0"/>
        <pt x="525" y="650" on="1"/>
        <pt x="550" y="684" on="1"/>
        <pt x="695" y="684" on="1"/>
      </contour>
      <contour>
        <pt x="366" y="553" on="1"/>
        <pt x="288" y="553" on="0"/>
        <pt x="196" y="437" on="0"/>
        <pt x="196" y="339" on="1"/>
        <pt x="196" y="275" on="0"/>
        <pt x="214" y="230" on="1"/>
        <pt x="441" y="537" on="1"/>
        <pt x="406" y="553" on="0"/>
      </contour>
      <contour>
        <pt x="366" y="125" on="1"/>
        <pt x="444" y="125" on="0"/>
        <pt x="536" y="241" on="0"/>
        <pt x="536" y="339" on="1"/>
        <pt x="536" y="400" on="0"/>
        <pt x="519" y="445" on="1"/>
        <pt x="294" y="140" on="1"/>
        <pt x="326" y="125" on="0"/>
      </contour>
    </TTGlyph>
    <TTGlyph name="Otilde" xMin="40" yMin="-7" xMax="696" yMax="886">
      <contour>
        <pt x="430" y="740" on="1"/>
        <pt x="397" y="740" on="0"/>
        <pt x="325" y="775" on="0"/>
        <pt x="285" y="775" on="0"/>
        <pt x="257" y="758" on="0"/>
        <pt x="235" y="732" on="1"/>
        <pt x="170" y="796" on="1"/>
        <pt x="186" y="830" on="0"/>
        <pt x="249" y="878" on="0"/>
        <pt x="322" y="878" on="0"/>
        <pt x="403" y="843" on="0"/>
        <pt x="422" y="843" on="1"/>
        <pt x="470" y="843" on="0"/>
        <pt x="492" y="886" on="1"/>
        <pt x="566" y="825" on="1"/>
        <pt x="524" y="740" on="0"/>
      </contour>
      <contour>
        <pt x="205" y="434" on="0"/>
        <pt x="205" y="244" on="0"/>
        <pt x="293" y="133" on="0"/>
        <pt x="443" y="133" on="0"/>
        <pt x="531" y="244" on="0"/>
        <pt x="531" y="434" on="0"/>
        <pt x="443" y="545" on="0"/>
        <pt x="293" y="545" on="0"/>
      </contour>
      <contour>
        <pt x="218" y="-7" on="0"/>
        <pt x="40" y="183" on="0"/>
        <pt x="40" y="494" on="0"/>
        <pt x="219" y="685" on="0"/>
        <pt x="518" y="685" on="0"/>
        <pt x="696" y="495" on="0"/>
        <pt x="696" y="184" on="0"/>
        <pt x="517" y="-7" on="0"/>
      </contour>
    </TTGlyph>
    <TTGlyph name="P" xMin="65" yMin="0" xMax="548" yMax="674">
      <contour>
        <pt x="65" y="674" on="1"/>
        <pt x="297" y="674" on="1"/>
        <pt x="409" y="674" on="0"/>
        <pt x="548" y="548" on="0"/>
        <pt x="548" y="340" on="0"/>
        <pt x="403" y="218" on="0"/>
        <pt x="297" y="218" on="1"/>
        <pt x="219" y="218" on="1"/>
        <pt x="219" y="0" on="1"/>
        <pt x="65" y="0" on="1"/>
      </contour>
      <contour>
        <pt x="219" y="340" on="1"/>
        <pt x="295" y="340" on="1"/>
        <pt x="342" y="346" on="0"/>
        <pt x="392" y="407" on="0"/>
        <pt x="392" y="488" on="0"/>
        <pt x="340" y="548" on="0"/>
        <pt x="295" y="551" on="1"/>
        <pt x="219" y="551" on="1"/>
      </contour>
    </TTGlyph>
    <TTGlyph name="Q" xMin="40" yMin="-151" xMax="738" yMax="685">
      <contour>
        <pt x="40" y="184" on="0"/>
        <pt x="40" y="494" on="0"/>
        <pt x="219" y="685" on="0"/>
        <pt x="518" y="685" on="0"/>
        <pt x="696" y="495" on="0"/>
        <pt x="696" y="339" on="1"/>
        <pt x="696" y="233" on="0"/>
        <pt x="610" y="73" on="0"/>
        <pt x="532" y="31" on="1"/>
        <pt x="738" y="-84" on="1"/>
        <pt x="563" y="-151" on="1"/>
        <pt x="364" y="-7" on="1"/>
        <pt x="216" y="-6" on="0"/>
      </contour>
      <contour>
        <pt x="205" y="434" on="0"/>
        <pt x="205" y="244" on="0"/>
        <pt x="293" y="133" on="0"/>
        <pt x="443" y="133" on="0"/>
        <pt x="531" y="244" on="0"/>
        <pt x="531" y="434" on="0"/>
        <pt x="443" y="545" on="0"/>
        <pt x="293" y="545" on="0"/>
      </contour>
    </TTGlyph>
    <TTGlyph name="R" xMin="65" yMin="0" xMax="596" yMax="674">
      <contour>
        <pt x="219" y="234" on="1"/>
        <pt x="219" y="0" on="1"/>
        <pt x="65" y="0" on="1"/>
        <pt x="65" y="674" on="1"/>
        <pt x="298" y="674" on="1"/>
        <pt x="411" y="674" on="0"/>
        <pt x="548" y="554" on="0"/>
        <pt x="548" y="458" on="1"/>
        <pt x="548" y="314" on="0"/>
        <pt x="425" y="259" on="1"/>
        <pt x="596" y="0" on="1"/>
        <pt x="412" y="0" on="1"/>
        <pt x="266" y="234" on="1"/>
      </contour>
      <contour>
        <pt x="219" y="549" on="1"/>
        <pt x="219" y="359" on="1"/>
        <pt x="292" y="359" on="1"/>
        <pt x="392" y="359" on="0"/>
        <pt x="392" y="457" on="1"/>
        <pt x="392" y="500" on="0"/>
        <pt x="340" y="549" on="0"/>
        <pt x="295" y="549" on="1"/>
      </contour>
    </TTGlyph>
    <TTGlyph name="Racute" xMin="65" yMin="0" xMax="596" yMax="898">
      <contour>
        <pt x="219" y="234" on="1"/>
        <pt x="219" y="0" on="1"/>
        <pt x="65" y="0" on="1"/>
        <pt x="65" y="674" on="1"/>
        <pt x="298" y="674" on="1"/>
        <pt x="411" y="674" on="0"/>
        <pt x="548" y="554" on="0"/>
        <pt x="548" y="458" on="1"/>
        <pt x="548" y="314" on="0"/>
        <pt x="425" y="259" on="1"/>
        <pt x="596" y="0" on="1"/>
        <pt x="412" y="0" on="1"/>
        <pt x="266" y="234" on="1"/>
      </contour>
      <contour>
        <pt x="219" y="549" on="1"/>
        <pt x="219" y="359" on="1"/>
        <pt x="292" y="359" on="1"/>
        <pt x="392" y="359" on="0"/>
        <pt x="392" y="457" on="1"/>
        <pt x="392" y="500" on="0"/>
        <pt x="340" y="549" on="0"/>
        <pt x="295" y="549" on="1"/>
      </contour>
      <contour>
        <pt x="466" y="898" on="1"/>
        <pt x="355" y="721" on="1"/>
        <pt x="234" y="721" on="1"/>
        <pt x="320" y="898" on="1"/>
      </contour>
    </TTGlyph>
    <TTGlyph name="Rcaron" xMin="65" yMin="0" xMax="596" yMax="898">
      <contour>
        <pt x="219" y="234" on="1"/>
        <pt x="219" y="0" on="1"/>
        <pt x="65" y="0" on="1"/>
        <pt x="65" y="674" on="1"/>
        <pt x="298" y="674" on="1"/>
        <pt x="411" y="674" on="0"/>
        <pt x="548" y="554" on="0"/>
        <pt x="548" y="458" on="1"/>
        <pt x="548" y="314" on="0"/>
        <pt x="425" y="259" on="1"/>
        <pt x="596" y="0" on="1"/>
        <pt x="412" y="0" on="1"/>
        <pt x="266" y="234" on="1"/>
      </contour>
      <contour>
        <pt x="219" y="549" on="1"/>
        <pt x="219" y="359" on="1"/>
        <pt x="292" y="359" on="1"/>
        <pt x="392" y="359" on="0"/>
        <pt x="392" y="457" on="1"/>
        <pt x="392" y="500" on="0"/>
        <pt x="340" y="549" on="0"/>
        <pt x="295" y="549" on="1"/>
      </contour>
      <contour>
        <pt x="378" y="721" on="1"/>
        <pt x="254" y="721" on="1"/>
        <pt x="98" y="898" on="1"/>
        <pt x="237" y="898" on="1"/>
        <pt x="316" y="802" on="1"/>
        <pt x="395" y="898" on="1"/>
        <pt x="534" y="898" on="1"/>
      </contour>
    </TTGlyph>
    <TTGlyph name="S" xMin="39" yMin="-8" xMax="484" yMax="678">
      <contour>
        <pt x="286" y="547" on="1"/>
        <pt x="247" y="547" on="0"/>
        <pt x="206" y="515" on="0"/>
        <pt x="206" y="465" on="0"/>
        <pt x="256" y="426" on="0"/>
        <pt x="337" y="390" on="0"/>
        <pt x="378" y="369" on="0"/>
        <pt x="431" y="332" on="0"/>
        <pt x="446" y="312" on="1"/>
        <pt x="484" y="262" on="0"/>
        <pt x="484" y="196" on="1"/>
        <pt x="484" y="105" on="0"/>
        <pt x="350" y="-8" on="0"/>
        <pt x="120" y="-8" on="0"/>
        <pt x="45" y="34" on="1"/>
        <pt x="45" y="189" on="1"/>
        <pt x="136" y="123" on="0"/>
        <pt x="239" y="123" on="1"/>
        <pt x="274" y="123" on="0"/>
        <pt x="320" y="160" on="0"/>
        <pt x="320" y="190" on="1"/>
        <pt x="320" y="212" on="0"/>
        <pt x="298" y="234" on="0"/>
        <pt x="283" y="245" on="0"/>
        <pt x="254" y="260" on="0"/>
        <pt x="244" y="265" on="1"/>
        <pt x="213" y="280" on="0"/>
        <pt x="183" y="293" on="1"/>
        <pt x="118" y="323" on="0"/>
        <pt x="39" y="411" on="0"/>
        <pt x="39" y="571" on="0"/>
        <pt x="167" y="678" on="0"/>
        <pt x="381" y="678" on="0"/>
        <pt x="454" y="644" on="1"/>
        <pt x="454" y="500" on="1"/>
        <pt x="373" y="547" on="0"/>
      </contour>
    </TTGlyph>
    <TTGlyph name="Sacute" xMin="39" yMin="-8" xMax="484" yMax="898">
      <contour>
        <pt x="286" y="547" on="1"/>
        <pt x="247" y="547" on="0"/>
        <pt x="206" y="515" on="0"/>
        <pt x="206" y="465" on="0"/>
        <pt x="256" y="426" on="0"/>
        <pt x="337" y="390" on="0"/>
        <pt x="378" y="369" on="0"/>
        <pt x="431" y="332" on="0"/>
        <pt x="446" y="312" on="1"/>
        <pt x="484" y="262" on="0"/>
        <pt x="484" y="196" on="1"/>
        <pt x="484" y="105" on="0"/>
        <pt x="350" y="-8" on="0"/>
        <pt x="120" y="-8" on="0"/>
        <pt x="45" y="34" on="1"/>
        <pt x="45" y="189" on="1"/>
        <pt x="136" y="123" on="0"/>
        <pt x="239" y="123" on="1"/>
        <pt x="274" y="123" on="0"/>
        <pt x="320" y="160" on="0"/>
        <pt x="320" y="190" on="1"/>
        <pt x="320" y="212" on="0"/>
        <pt x="298" y="234" on="0"/>
        <pt x="283" y="245" on="0"/>
        <pt x="254" y="260" on="0"/>
        <pt x="244" y="265" on="1"/>
        <pt x="213" y="280" on="0"/>
        <pt x="183" y="293" on="1"/>
        <pt x="118" y="323" on="0"/>
        <pt x="39" y="411" on="0"/>
        <pt x="39" y="571" on="0"/>
        <pt x="167" y="678" on="0"/>
        <pt x="381" y="678" on="0"/>
        <pt x="454" y="644" on="1"/>
        <pt x="454" y="500" on="1"/>
        <pt x="373" y="547" on="0"/>
      </contour>
      <contour>
        <pt x="202" y="721" on="1"/>
        <pt x="288" y="898" on="1"/>
        <pt x="434" y="898" on="1"/>
        <pt x="323" y="721" on="1"/>
      </contour>
    </TTGlyph>
    <TTGlyph name="Scaron" xMin="39" yMin="-8" xMax="484" yMax="898">
      <contour>
        <pt x="328" y="721" on="1"/>
        <pt x="204" y="721" on="1"/>
        <pt x="48" y="898" on="1"/>
        <pt x="187" y="898" on="1"/>
        <pt x="266" y="802" on="1"/>
        <pt x="345" y="898" on="1"/>
        <pt x="484" y="898" on="1"/>
      </contour>
      <contour>
        <pt x="286" y="547" on="1"/>
        <pt x="247" y="547" on="0"/>
        <pt x="206" y="515" on="0"/>
        <pt x="206" y="465" on="0"/>
        <pt x="256" y="426" on="0"/>
        <pt x="337" y="390" on="0"/>
        <pt x="378" y="369" on="0"/>
        <pt x="431" y="332" on="0"/>
        <pt x="446" y="312" on="1"/>
        <pt x="484" y="262" on="0"/>
        <pt x="484" y="196" on="1"/>
        <pt x="484" y="105" on="0"/>
        <pt x="350" y="-8" on="0"/>
        <pt x="120" y="-8" on="0"/>
        <pt x="45" y="34" on="1"/>
        <pt x="45" y="189" on="1"/>
        <pt x="136" y="123" on="0"/>
        <pt x="239" y="123" on="1"/>
        <pt x="274" y="123" on="0"/>
        <pt x="320" y="160" on="0"/>
        <pt x="320" y="190" on="1"/>
        <pt x="320" y="212" on="0"/>
        <pt x="298" y="234" on="0"/>
        <pt x="283" y="245" on="0"/>
        <pt x="254" y="260" on="0"/>
        <pt x="244" y="265" on="1"/>
        <pt x="213" y="280" on="0"/>
        <pt x="183" y="293" on="1"/>
        <pt x="118" y="323" on="0"/>
        <pt x="39" y="411" on="0"/>
        <pt x="39" y="571" on="0"/>
        <pt x="167" y="678" on="0"/>
        <pt x="381" y="678" on="0"/>
        <pt x="454" y="644" on="1"/>
        <pt x="454" y="500" on="1"/>
        <pt x="373" y="547" on="0"/>
      </contour>
    </TTGlyph>
    <TTGlyph name="Scircumflex" xMin="39" yMin="-8" xMax="489" yMax="898">
      <contour>
        <pt x="209" y="898" on="1"/>
        <pt x="333" y="898" on="1"/>
        <pt x="489" y="721" on="1"/>
        <pt x="350" y="721" on="1"/>
        <pt x="271" y="817" on="1"/>
        <pt x="192" y="721" on="1"/>
        <pt x="53" y="721" on="1"/>
      </contour>
      <contour>
        <pt x="286" y="547" on="1"/>
        <pt x="247" y="547" on="0"/>
        <pt x="206" y="515" on="0"/>
        <pt x="206" y="465" on="0"/>
        <pt x="256" y="426" on="0"/>
        <pt x="337" y="390" on="0"/>
        <pt x="378" y="369" on="0"/>
        <pt x="431" y="332" on="0"/>
        <pt x="446" y="312" on="1"/>
        <pt x="484" y="262" on="0"/>
        <pt x="484" y="196" on="1"/>
        <pt x="484" y="105" on="0"/>
        <pt x="350" y="-8" on="0"/>
        <pt x="120" y="-8" on="0"/>
        <pt x="45" y="34" on="1"/>
        <pt x="45" y="189" on="1"/>
        <pt x="136" y="123" on="0"/>
        <pt x="239" y="123" on="1"/>
        <pt x="274" y="123" on="0"/>
        <pt x="320" y="160" on="0"/>
        <pt x="320" y="190" on="1"/>
        <pt x="320" y="212" on="0"/>
        <pt x="298" y="234" on="0"/>
        <pt x="283" y="245" on="0"/>
        <pt x="254" y="260" on="0"/>
        <pt x="244" y="265" on="1"/>
        <pt x="213" y="280" on="0"/>
        <pt x="183" y="293" on="1"/>
        <pt x="118" y="323" on="0"/>
        <pt x="39" y="411" on="0"/>
        <pt x="39" y="571" on="0"/>
        <pt x="167" y="678" on="0"/>
        <pt x="381" y="678" on="0"/>
        <pt x="454" y="644" on="1"/>
        <pt x="454" y="500" on="1"/>
        <pt x="373" y="547" on="0"/>
      </contour>
    </TTGlyph>
    <TTGlyph name="T" xMin="30" yMin="0" xMax="514" yMax="674">
      <contour>
        <pt x="514" y="674" on="1"/>
        <pt x="514" y="550" on="1"/>
        <pt x="350" y="550" on="1"/>
        <pt x="350" y="0" on="1"/>
        <pt x="195" y="0" on="1"/>
        <pt x="195" y="550" on="1"/>
        <pt x="30" y="550" on="1"/>
        <pt x="30" y="674" on="1"/>
      </contour>
    </TTGlyph>
    <TTGlyph name="Tbar" xMin="30" yMin="0" xMax="514" yMax="674">
      <contour>
        <pt x="514" y="550" on="1"/>
        <pt x="350" y="550" on="1"/>
        <pt x="350" y="385" on="1"/>
        <pt x="460" y="385" on="1"/>
        <pt x="460" y="272" on="1"/>
        <pt x="350" y="272" on="1"/>
        <pt x="350" y="0" on="1"/>
        <pt x="195" y="0" on="1"/>
        <pt x="195" y="272" on="1"/>
        <pt x="85" y="272" on="1"/>
        <pt x="85" y="385" on="1"/>
        <pt x="195" y="385" on="1"/>
        <pt x="195" y="550" on="1"/>
        <pt x="30" y="550" on="1"/>
        <pt x="30" y="674" on="1"/>
        <pt x="514" y="674" on="1"/>
      </contour>
    </TTGlyph>
    <TTGlyph name="Tcaron" xMin="30" yMin="0" xMax="514" yMax="898">
      <contour>
        <pt x="514" y="674" on="1"/>
        <pt x="514" y="550" on="1"/>
        <pt x="350" y="550" on="1"/>
        <pt x="350" y="0" on="1"/>
        <pt x="195" y="0" on="1"/>
        <pt x="195" y="550" on="1"/>
        <pt x="30" y="550" on="1"/>
        <pt x="30" y="674" on="1"/>
      </contour>
      <contour>
        <pt x="334" y="721" on="1"/>
        <pt x="210" y="721" on="1"/>
        <pt x="54" y="898" on="1"/>
        <pt x="193" y="898" on="1"/>
        <pt x="272" y="802" on="1"/>
        <pt x="351" y="898" on="1"/>
        <pt x="490" y="898" on="1"/>
      </contour>
    </TTGlyph>
    <TTGlyph name="Thorn" xMin="65" yMin="0" xMax="548" yMax="674">
      <contour>
        <pt x="219" y="564" on="1"/>
        <pt x="297" y="564" on="1"/>
        <pt x="410" y="564" on="0"/>
        <pt x="548" y="439" on="0"/>
        <pt x="548" y="231" on="0"/>
        <pt x="403" y="110" on="0"/>
        <pt x="297" y="110" on="1"/>
        <pt x="219" y="110" on="1"/>
        <pt x="219" y="0" on="1"/>
        <pt x="65" y="0" on="1"/>
        <pt x="65" y="674" on="1"/>
        <pt x="219" y="674" on="1"/>
      </contour>
      <contour>
        <pt x="219" y="232" on="1"/>
        <pt x="285" y="232" on="1"/>
        <pt x="338" y="232" on="0"/>
        <pt x="392" y="290" on="0"/>
        <pt x="392" y="379" on="0"/>
        <pt x="342" y="441" on="0"/>
        <pt x="285" y="441" on="1"/>
        <pt x="219" y="441" on="1"/>
      </contour>
    </TTGlyph>
    <TTGlyph name="U" xMin="60" yMin="-10" xMax="608" yMax="674">
      <contour>
        <pt x="454" y="260" on="1"/>
        <pt x="454" y="674" on="1"/>
        <pt x="608" y="674" on="1"/>
        <pt x="608" y="261" on="1"/>
        <pt x="608" y="129" on="0"/>
        <pt x="460" y="-10" on="0"/>
        <pt x="210" y="-10" on="0"/>
        <pt x="60" y="128" on="0"/>
        <pt x="60" y="254" on="1"/>
        <pt x="60" y="674" on="1"/>
        <pt x="214" y="674" on="1"/>
        <pt x="214" y="255" on="1"/>
        <pt x="214" y="130" on="0"/>
        <pt x="454" y="130" on="0"/>
      </contour>
    </TTGlyph>
    <TTGlyph name="Uacute" xMin="60" yMin="-10" xMax="608" yMax="898">
      <contour>
        <pt x="454" y="260" on="1"/>
        <pt x="454" y="674" on="1"/>
        <pt x="608" y="674" on="1"/>
        <pt x="608" y="261" on="1"/>
        <pt x="608" y="129" on="0"/>
        <pt x="460" y="-10" on="0"/>
        <pt x="210" y="-10" on="0"/>
        <pt x="60" y="128" on="0"/>
        <pt x="60" y="254" on="1"/>
        <pt x="60" y="674" on="1"/>
        <pt x="214" y="674" on="1"/>
        <pt x="214" y="255" on="1"/>
        <pt x="214" y="130" on="0"/>
        <pt x="454" y="130" on="0"/>
      </contour>
      <contour>
        <pt x="287" y="721" on="1"/>
        <pt x="373" y="898" on="1"/>
        <pt x="519" y="898" on="1"/>
        <pt x="408" y="721" on="1"/>
      </contour>
    </TTGlyph>
    <TTGlyph name="Ubreve" xMin="60" yMin="-10" xMax="608" yMax="898">
      <contour>
        <pt x="454" y="260" on="1"/>
        <pt x="454" y="674" on="1"/>
        <pt x="608" y="674" on="1"/>
        <pt x="608" y="261" on="1"/>
        <pt x="608" y="129" on="0"/>
        <pt x="460" y="-10" on="0"/>
        <pt x="210" y="-10" on="0"/>
        <pt x="60" y="128" on="0"/>
        <pt x="60" y="254" on="1"/>
        <pt x="60" y="674" on="1"/>
        <pt x="214" y="674" on="1"/>
        <pt x="214" y="255" on="1"/>
        <pt x="214" y="130" on="0"/>
        <pt x="454" y="130" on="0"/>
      </contour>
      <contour>
        <pt x="132" y="898" on="1"/>
        <pt x="244" y="898" on="1"/>
        <pt x="244" y="856" on="0"/>
        <pt x="291" y="809" on="0"/>
        <pt x="369" y="809" on="0"/>
        <pt x="416" y="856" on="0"/>
        <pt x="416" y="898" on="1"/>
        <pt x="528" y="898" on="1"/>
        <pt x="528" y="805" on="0"/>
        <pt x="419" y="717" on="0"/>
        <pt x="241" y="717" on="0"/>
        <pt x="132" y="805" on="0"/>
      </contour>
    </TTGlyph>
    <TTGlyph name="Ucircumflex" xMin="60" yMin="-10" xMax="608" yMax="898">
      <contour>
        <pt x="270" y="898" on="1"/>
        <pt x="394" y="898" on="1"/>
        <pt x="550" y="721" on="1"/>
        <pt x="411" y="721" on="1"/>
        <pt x="332" y="817" on="1"/>
        <pt x="253" y="721" on="1"/>
        <pt x="114" y="721" on="1"/>
      </contour>
      <contour>
        <pt x="454" y="260" on="1"/>
        <pt x="454" y="674" on="1"/>
        <pt x="608" y="674" on="1"/>
        <pt x="608" y="261" on="1"/>
        <pt x="608" y="129" on="0"/>
        <pt x="460" y="-10" on="0"/>
        <pt x="210" y="-10" on="0"/>
        <pt x="60" y="128" on="0"/>
        <pt x="60" y="254" on="1"/>
        <pt x="60" y="674" on="1"/>
        <pt x="214" y="674" on="1"/>
        <pt x="214" y="255" on="1"/>
        <pt x="214" y="130" on="0"/>
        <pt x="454" y="130" on="0"/>
      </contour>
    </TTGlyph>
    <TTGlyph name="Udieresis" xMin="60" yMin="-10" xMax="608" yMax="890">
      <contour>
        <pt x="454" y="260" on="1"/>
        <pt x="454" y="674" on="1"/>
        <pt x="608" y="674" on="1"/>
        <pt x="608" y="261" on="1"/>
        <pt x="608" y="129" on="0"/>
        <pt x="460" y="-10" on="0"/>
        <pt x="210" y="-10" on="0"/>
        <pt x="60" y="128" on="0"/>
        <pt x="60" y="254" on="1"/>
        <pt x="60" y="674" on="1"/>
        <pt x="214" y="674" on="1"/>
        <pt x="214" y="255" on="1"/>
        <pt x="214" y="130" on="0"/>
        <pt x="454" y="130" on="0"/>
      </contour>
      <contour>
        <pt x="437" y="727" on="0"/>
        <pt x="390" y="774" on="0"/>
        <pt x="390" y="843" on="0"/>
        <pt x="437" y="890" on="0"/>
        <pt x="508" y="890" on="0"/>
        <pt x="556" y="843" on="0"/>
        <pt x="556" y="774" on="0"/>
        <pt x="508" y="727" on="0"/>
      </contour>
      <contour>
        <pt x="169" y="727" on="0"/>
        <pt x="122" y="774" on="0"/>
        <pt x="122" y="843" on="0"/>
        <pt x="169" y="890" on="0"/>
        <pt x="240" y="890" on="0"/>
        <pt x="287" y="843" on="0"/>
        <pt x="287" y="774" on="0"/>
        <pt x="240" y="727" on="0"/>
      </contour>
    </TTGlyph>
    <TTGlyph name="Ugrave" xMin="60" yMin="-10" xMax="608" yMax="898">
      <contour>
        <pt x="316" y="898" on="1"/>
        <pt x="402" y="721" on="1"/>
        <pt x="281" y="721" on="1"/>
        <pt x="170" y="898" on="1"/>
      </contour>
      <contour>
        <pt x="454" y="260" on="1"/>
        <pt x="454" y="674" on="1"/>
        <pt x="608" y="674" on="1"/>
        <pt x="608" y="261" on="1"/>
        <pt x="608" y="129" on="0"/>
        <pt x="460" y="-10" on="0"/>
        <pt x="210" y="-10" on="0"/>
        <pt x="60" y="128" on="0"/>
        <pt x="60" y="254" on="1"/>
        <pt x="60" y="674" on="1"/>
        <pt x="214" y="674" on="1"/>
        <pt x="214" y="255" on="1"/>
        <pt x="214" y="130" on="0"/>
        <pt x="454" y="130" on="0"/>
      </contour>
    </TTGlyph>
    <TTGlyph name="Uhungarumlaut" xMin="60" yMin="-10" xMax="616" yMax="898">
      <contour>
        <pt x="190" y="721" on="1"/>
        <pt x="276" y="898" on="1"/>
        <pt x="409" y="898" on="1"/>
        <pt x="298" y="721" on="1"/>
      </contour>
      <contour>
        <pt x="377" y="721" on="1"/>
        <pt x="471" y="898" on="1"/>
        <pt x="616" y="898" on="1"/>
        <pt x="485" y="721" on="1"/>
      </contour>
      <contour>
        <pt x="454" y="260" on="1"/>
        <pt x="454" y="674" on="1"/>
        <pt x="608" y="674" on="1"/>
        <pt x="608" y="261" on="1"/>
        <pt x="608" y="129" on="0"/>
        <pt x="460" y="-10" on="0"/>
        <pt x="210" y="-10" on="0"/>
        <pt x="60" y="128" on="0"/>
        <pt x="60" y="254" on="1"/>
        <pt x="60" y="674" on="1"/>
        <pt x="214" y="674" on="1"/>
        <pt x="214" y="255" on="1"/>
        <pt x="214" y="130" on="0"/>
        <pt x="454" y="130" on="0"/>
      </contour>
    </TTGlyph>
    <TTGlyph name="Umacron" xMin="60" yMin="-10" xMax="608" yMax="859">
      <contour>
        <pt x="520" y="760" on="1"/>
        <pt x="164" y="760" on="1"/>
        <pt x="164" y="859" on="1"/>
        <pt x="520" y="859" on="1"/>
      </contour>
      <contour>
        <pt x="454" y="260" on="1"/>
        <pt x="454" y="674" on="1"/>
        <pt x="608" y="674" on="1"/>
        <pt x="608" y="261" on="1"/>
        <pt x="608" y="129" on="0"/>
        <pt x="460" y="-10" on="0"/>
        <pt x="210" y="-10" on="0"/>
        <pt x="60" y="128" on="0"/>
        <pt x="60" y="254" on="1"/>
        <pt x="60" y="674" on="1"/>
        <pt x="214" y="674" on="1"/>
        <pt x="214" y="255" on="1"/>
        <pt x="214" y="130" on="0"/>
        <pt x="454" y="130" on="0"/>
      </contour>
    </TTGlyph>
    <TTGlyph name="Uogonek" xMin="60" yMin="-252" xMax="608" yMax="674">
      <contour>
        <pt x="454" y="674" on="1"/>
        <pt x="608" y="674" on="1"/>
        <pt x="608" y="261" on="1"/>
        <pt x="608" y="163" on="0"/>
        <pt x="523" y="34" on="0"/>
        <pt x="448" y="8" on="1"/>
        <pt x="330" y="-65" on="0"/>
        <pt x="330" y="-122" on="1"/>
        <pt x="330" y="-156" on="0"/>
        <pt x="417" y="-156" on="0"/>
        <pt x="460" y="-126" on="1"/>
        <pt x="460" y="-227" on="1"/>
        <pt x="412" y="-252" on="0"/>
        <pt x="281" y="-252" on="0"/>
        <pt x="214" y="-186" on="0"/>
        <pt x="214" y="-135" on="1"/>
        <pt x="214" y="-67" on="0"/>
        <pt x="277" y="-6" on="1"/>
        <pt x="177" y="9" on="0"/>
        <pt x="60" y="143" on="0"/>
        <pt x="60" y="254" on="1"/>
        <pt x="60" y="674" on="1"/>
        <pt x="214" y="674" on="1"/>
        <pt x="214" y="255" on="1"/>
        <pt x="214" y="130" on="0"/>
        <pt x="454" y="130" on="0"/>
        <pt x="454" y="260" on="1"/>
      </contour>
    </TTGlyph>
    <TTGlyph name="Uring" xMin="60" yMin="-10" xMax="608" yMax="982">
      <contour>
        <pt x="454" y="260" on="1"/>
        <pt x="454" y="674" on="1"/>
        <pt x="608" y="674" on="1"/>
        <pt x="608" y="261" on="1"/>
        <pt x="608" y="129" on="0"/>
        <pt x="460" y="-10" on="0"/>
        <pt x="210" y="-10" on="0"/>
        <pt x="60" y="128" on="0"/>
        <pt x="60" y="254" on="1"/>
        <pt x="60" y="674" on="1"/>
        <pt x="214" y="674" on="1"/>
        <pt x="214" y="255" on="1"/>
        <pt x="214" y="130" on="0"/>
        <pt x="454" y="130" on="0"/>
      </contour>
      <contour>
        <pt x="283" y="872" on="0"/>
        <pt x="283" y="826" on="0"/>
        <pt x="313" y="793" on="0"/>
        <pt x="359" y="793" on="0"/>
        <pt x="389" y="826" on="0"/>
        <pt x="389" y="872" on="0"/>
        <pt x="359" y="905" on="0"/>
        <pt x="313" y="905" on="0"/>
      </contour>
      <contour>
        <pt x="200" y="790" on="0"/>
        <pt x="200" y="902" on="0"/>
        <pt x="280" y="982" on="0"/>
        <pt x="392" y="982" on="0"/>
        <pt x="472" y="902" on="0"/>
        <pt x="472" y="790" on="0"/>
        <pt x="392" y="710" on="0"/>
        <pt x="280" y="710" on="0"/>
      </contour>
    </TTGlyph>
    <TTGlyph name="Utilde" xMin="60" yMin="-10" xMax="608" yMax="886">
      <contour>
        <pt x="404" y="740" on="1"/>
        <pt x="371" y="740" on="0"/>
        <pt x="299" y="775" on="0"/>
        <pt x="259" y="775" on="0"/>
        <pt x="231" y="758" on="0"/>
        <pt x="209" y="732" on="1"/>
        <pt x="144" y="796" on="1"/>
        <pt x="160" y="830" on="0"/>
        <pt x="223" y="878" on="0"/>
        <pt x="296" y="878" on="0"/>
        <pt x="377" y="843" on="0"/>
        <pt x="396" y="843" on="1"/>
        <pt x="444" y="843" on="0"/>
        <pt x="466" y="886" on="1"/>
        <pt x="540" y="825" on="1"/>
        <pt x="498" y="740" on="0"/>
      </contour>
      <contour>
        <pt x="454" y="260" on="1"/>
        <pt x="454" y="674" on="1"/>
        <pt x="608" y="674" on="1"/>
        <pt x="608" y="261" on="1"/>
        <pt x="608" y="129" on="0"/>
        <pt x="460" y="-10" on="0"/>
        <pt x="210" y="-10" on="0"/>
        <pt x="60" y="128" on="0"/>
        <pt x="60" y="254" on="1"/>
        <pt x="60" y="674" on="1"/>
        <pt x="214" y="674" on="1"/>
        <pt x="214" y="255" on="1"/>
        <pt x="214" y="130" on="0"/>
        <pt x="454" y="130" on="0"/>
      </contour>
    </TTGlyph>
    <TTGlyph name="V" xMin="19" yMin="0" xMax="640" yMax="674">
      <contour>
        <pt x="640" y="674" on="1"/>
        <pt x="413" y="0" on="1"/>
        <pt x="243" y="0" on="1"/>
        <pt x="19" y="674" on="1"/>
        <pt x="185" y="674" on="1"/>
        <pt x="266" y="405" on="1"/>
        <pt x="310" y="261" on="0"/>
        <pt x="330" y="139" on="1"/>
        <pt x="346" y="243" on="0"/>
        <pt x="395" y="405" on="1"/>
        <pt x="476" y="674" on="1"/>
      </contour>
    </TTGlyph>
    <TTGlyph name="W" xMin="19" yMin="0" xMax="952" yMax="674">
      <contour>
        <pt x="431" y="664" on="1"/>
        <pt x="545" y="664" on="1"/>
        <pt x="655" y="269" on="0"/>
        <pt x="677" y="168" on="1"/>
        <pt x="690" y="257" on="0"/>
        <pt x="733" y="427" on="1"/>
        <pt x="795" y="674" on="1"/>
        <pt x="952" y="674" on="1"/>
        <pt x="772" y="0" on="1"/>
        <pt x="600" y="0" on="1"/>
        <pt x="497" y="372" on="0"/>
        <pt x="488" y="426" on="1"/>
        <pt x="485" y="385" on="0"/>
        <pt x="434" y="213" on="1"/>
        <pt x="372" y="0" on="1"/>
        <pt x="200" y="0" on="1"/>
        <pt x="19" y="674" on="1"/>
        <pt x="181" y="674" on="1"/>
        <pt x="263" y="346" on="0"/>
        <pt x="289" y="217" on="0"/>
        <pt x="296" y="168" on="1"/>
        <pt x="312" y="241" on="0"/>
      </contour>
    </TTGlyph>
    <TTGlyph name="Wacute" xMin="19" yMin="0" xMax="952" yMax="898">
      <contour>
        <pt x="443" y="721" on="1"/>
        <pt x="529" y="898" on="1"/>
        <pt x="675" y="898" on="1"/>
        <pt x="564" y="721" on="1"/>
      </contour>
      <contour>
        <pt x="431" y="664" on="1"/>
        <pt x="545" y="664" on="1"/>
        <pt x="655" y="269" on="0"/>
        <pt x="677" y="168" on="1"/>
        <pt x="690" y="257" on="0"/>
        <pt x="733" y="427" on="1"/>
        <pt x="795" y="674" on="1"/>
        <pt x="952" y="674" on="1"/>
        <pt x="772" y="0" on="1"/>
        <pt x="600" y="0" on="1"/>
        <pt x="497" y="372" on="0"/>
        <pt x="488" y="426" on="1"/>
        <pt x="485" y="385" on="0"/>
        <pt x="434" y="213" on="1"/>
        <pt x="372" y="0" on="1"/>
        <pt x="200" y="0" on="1"/>
        <pt x="19" y="674" on="1"/>
        <pt x="181" y="674" on="1"/>
        <pt x="263" y="346" on="0"/>
        <pt x="289" y="217" on="0"/>
        <pt x="296" y="168" on="1"/>
        <pt x="312" y="241" on="0"/>
      </contour>
    </TTGlyph>
    <TTGlyph name="Wcircumflex" xMin="19" yMin="0" xMax="952" yMax="898">
      <contour>
        <pt x="430" y="898" on="1"/>
        <pt x="554" y="898" on="1"/>
        <pt x="710" y="721" on="1"/>
        <pt x="571" y="721" on="1"/>
        <pt x="492" y="817" on="1"/>
        <pt x="413" y="721" on="1"/>
        <pt x="274" y="721" on="1"/>
      </contour>
      <contour>
        <pt x="431" y="664" on="1"/>
        <pt x="545" y="664" on="1"/>
        <pt x="655" y="269" on="0"/>
        <pt x="677" y="168" on="1"/>
        <pt x="690" y="257" on="0"/>
        <pt x="733" y="427" on="1"/>
        <pt x="795" y="674" on="1"/>
        <pt x="952" y="674" on="1"/>
        <pt x="772" y="0" on="1"/>
        <pt x="600" y="0" on="1"/>
        <pt x="497" y="372" on="0"/>
        <pt x="488" y="426" on="1"/>
        <pt x="485" y="385" on="0"/>
        <pt x="434" y="213" on="1"/>
        <pt x="372" y="0" on="1"/>
        <pt x="200" y="0" on="1"/>
        <pt x="19" y="674" on="1"/>
        <pt x="181" y="674" on="1"/>
        <pt x="263" y="346" on="0"/>
        <pt x="289" y="217" on="0"/>
        <pt x="296" y="168" on="1"/>
        <pt x="312" y="241" on="0"/>
      </contour>
    </TTGlyph>
    <TTGlyph name="Wdieresis" xMin="19" yMin="0" xMax="952" yMax="891">
      <contour>
        <pt x="319" y="728" on="0"/>
        <pt x="272" y="775" on="0"/>
        <pt x="272" y="844" on="0"/>
        <pt x="319" y="891" on="0"/>
        <pt x="390" y="891" on="0"/>
        <pt x="437" y="844" on="0"/>
        <pt x="437" y="775" on="0"/>
        <pt x="390" y="728" on="0"/>
      </contour>
      <contour>
        <pt x="587" y="728" on="0"/>
        <pt x="540" y="775" on="0"/>
        <pt x="540" y="844" on="0"/>
        <pt x="587" y="891" on="0"/>
        <pt x="658" y="891" on="0"/>
        <pt x="706" y="844" on="0"/>
        <pt x="706" y="775" on="0"/>
        <pt x="658" y="728" on="0"/>
      </contour>
      <contour>
        <pt x="431" y="664" on="1"/>
        <pt x="545" y="664" on="1"/>
        <pt x="655" y="269" on="0"/>
        <pt x="677" y="168" on="1"/>
        <pt x="690" y="257" on="0"/>
        <pt x="733" y="427" on="1"/>
        <pt x="795" y="674" on="1"/>
        <pt x="952" y="674" on="1"/>
        <pt x="772" y="0" on="1"/>
        <pt x="600" y="0" on="1"/>
        <pt x="497" y="372" on="0"/>
        <pt x="488" y="426" on="1"/>
        <pt x="485" y="385" on="0"/>
        <pt x="434" y="213" on="1"/>
        <pt x="372" y="0" on="1"/>
        <pt x="200" y="0" on="1"/>
        <pt x="19" y="674" on="1"/>
        <pt x="181" y="674" on="1"/>
        <pt x="263" y="346" on="0"/>
        <pt x="289" y="217" on="0"/>
        <pt x="296" y="168" on="1"/>
        <pt x="312" y="241" on="0"/>
      </contour>
    </TTGlyph>
    <TTGlyph name="Wgrave" xMin="19" yMin="0" xMax="952" yMax="898">
      <contour>
        <pt x="431" y="664" on="1"/>
        <pt x="545" y="664" on="1"/>
        <pt x="655" y="269" on="0"/>
        <pt x="677" y="168" on="1"/>
        <pt x="690" y="257" on="0"/>
        <pt x="733" y="427" on="1"/>
        <pt x="795" y="674" on="1"/>
        <pt x="952" y="674" on="1"/>
        <pt x="772" y="0" on="1"/>
        <pt x="600" y="0" on="1"/>
        <pt x="497" y="372" on="0"/>
        <pt x="488" y="426" on="1"/>
        <pt x="485" y="385" on="0"/>
        <pt x="434" y="213" on="1"/>
        <pt x="372" y="0" on="1"/>
        <pt x="200" y="0" on="1"/>
        <pt x="19" y="674" on="1"/>
        <pt x="181" y="674" on="1"/>
        <pt x="263" y="346" on="0"/>
        <pt x="289" y="217" on="0"/>
        <pt x="296" y="168" on="1"/>
        <pt x="312" y="241" on="0"/>
      </contour>
      <contour>
        <pt x="460" y="898" on="1"/>
        <pt x="546" y="721" on="1"/>
        <pt x="425" y="721" on="1"/>
        <pt x="314" y="898" on="1"/>
      </contour>
    </TTGlyph>
    <TTGlyph name="X" xMin="27" yMin="0" xMax="636" yMax="674">
      <contour>
        <pt x="331" y="210" on="1"/>
        <pt x="213" y="0" on="1"/>
        <pt x="27" y="0" on="1"/>
        <pt x="240" y="342" on="1"/>
        <pt x="37" y="674" on="1"/>
        <pt x="216" y="674" on="1"/>
        <pt x="328" y="477" on="1"/>
        <pt x="435" y="674" on="1"/>
        <pt x="623" y="674" on="1"/>
        <pt x="419" y="341" on="1"/>
        <pt x="636" y="0" on="1"/>
        <pt x="453" y="0" on="1"/>
      </contour>
    </TTGlyph>
    <TTGlyph name="Y" xMin="13" yMin="0" xMax="630" yMax="674">
      <contour>
        <pt x="397" y="0" on="1"/>
        <pt x="243" y="0" on="1"/>
        <pt x="243" y="247" on="1"/>
        <pt x="13" y="674" on="1"/>
        <pt x="193" y="674" on="1"/>
        <pt x="294" y="432" on="0"/>
        <pt x="319" y="360" on="1"/>
        <pt x="329" y="405" on="0"/>
        <pt x="407" y="576" on="1"/>
        <pt x="451" y="674" on="1"/>
        <pt x="630" y="674" on="1"/>
        <pt x="397" y="248" on="1"/>
      </contour>
    </TTGlyph>
    <TTGlyph name="Yacute" xMin="13" yMin="0" xMax="630" yMax="898">
      <contour>
        <pt x="397" y="0" on="1"/>
        <pt x="243" y="0" on="1"/>
        <pt x="243" y="247" on="1"/>
        <pt x="13" y="674" on="1"/>
        <pt x="193" y="674" on="1"/>
        <pt x="294" y="432" on="0"/>
        <pt x="319" y="360" on="1"/>
        <pt x="329" y="405" on="0"/>
        <pt x="407" y="576" on="1"/>
        <pt x="451" y="674" on="1"/>
        <pt x="630" y="674" on="1"/>
        <pt x="397" y="248" on="1"/>
      </contour>
      <contour>
        <pt x="507" y="898" on="1"/>
        <pt x="396" y="721" on="1"/>
        <pt x="275" y="721" on="1"/>
        <pt x="361" y="898" on="1"/>
      </contour>
    </TTGlyph>
    <TTGlyph name="Ycircumflex" xMin="13" yMin="0" xMax="630" yMax="898">
      <contour>
        <pt x="397" y="0" on="1"/>
        <pt x="243" y="0" on="1"/>
        <pt x="243" y="247" on="1"/>
        <pt x="13" y="674" on="1"/>
        <pt x="193" y="674" on="1"/>
        <pt x="294" y="432" on="0"/>
        <pt x="319" y="360" on="1"/>
        <pt x="329" y="405" on="0"/>
        <pt x="407" y="576" on="1"/>
        <pt x="451" y="674" on="1"/>
        <pt x="630" y="674" on="1"/>
        <pt x="397" y="248" on="1"/>
      </contour>
      <contour>
        <pt x="321" y="817" on="1"/>
        <pt x="242" y="721" on="1"/>
        <pt x="103" y="721" on="1"/>
        <pt x="259" y="898" on="1"/>
        <pt x="383" y="898" on="1"/>
        <pt x="539" y="721" on="1"/>
        <pt x="400" y="721" on="1"/>
      </contour>
    </TTGlyph>
    <TTGlyph name="Ydieresis" xMin="13" yMin="0" xMax="630" yMax="890">
      <contour>
        <pt x="397" y="0" on="1"/>
        <pt x="243" y="0" on="1"/>
        <pt x="243" y="247" on="1"/>
        <pt x="13" y="674" on="1"/>
        <pt x="193" y="674" on="1"/>
        <pt x="294" y="432" on="0"/>
        <pt x="319" y="360" on="1"/>
        <pt x="329" y="405" on="0"/>
        <pt x="407" y="576" on="1"/>
        <pt x="451" y="674" on="1"/>
        <pt x="630" y="674" on="1"/>
        <pt x="397" y="248" on="1"/>
      </contour>
      <contour>
        <pt x="277" y="774" on="0"/>
        <pt x="230" y="727" on="0"/>
        <pt x="159" y="727" on="0"/>
        <pt x="112" y="774" on="0"/>
        <pt x="112" y="843" on="0"/>
        <pt x="159" y="890" on="0"/>
        <pt x="230" y="890" on="0"/>
        <pt x="277" y="843" on="0"/>
      </contour>
      <contour>
        <pt x="546" y="774" on="0"/>
        <pt x="498" y="727" on="0"/>
        <pt x="427" y="727" on="0"/>
        <pt x="380" y="774" on="0"/>
        <pt x="380" y="843" on="0"/>
        <pt x="427" y="890" on="0"/>
        <pt x="498" y="890" on="0"/>
        <pt x="546" y="843" on="0"/>
      </contour>
    </TTGlyph>
    <TTGlyph name="Ygrave" xMin="13" yMin="0" xMax="630" yMax="898">
      <contour>
        <pt x="397" y="0" on="1"/>
        <pt x="243" y="0" on="1"/>
        <pt x="243" y="247" on="1"/>
        <pt x="13" y="674" on="1"/>
        <pt x="193" y="674" on="1"/>
        <pt x="294" y="432" on="0"/>
        <pt x="319" y="360" on="1"/>
        <pt x="329" y="405" on="0"/>
        <pt x="407" y="576" on="1"/>
        <pt x="451" y="674" on="1"/>
        <pt x="630" y="674" on="1"/>
        <pt x="397" y="248" on="1"/>
      </contour>
      <contour>
        <pt x="386" y="721" on="1"/>
        <pt x="265" y="721" on="1"/>
        <pt x="154" y="898" on="1"/>
        <pt x="300" y="898" on="1"/>
      </contour>
    </TTGlyph>
    <TTGlyph name="Z" xMin="60" yMin="0" xMax="561" yMax="674">
      <contour>
        <pt x="549" y="674" on="1"/>
        <pt x="549" y="565" on="1"/>
        <pt x="245" y="124" on="1"/>
        <pt x="561" y="124" on="1"/>
        <pt x="561" y="0" on="1"/>
        <pt x="60" y="0" on="1"/>
        <pt x="60" y="113" on="1"/>
        <pt x="362" y="550" on="1"/>
        <pt x="66" y="550" on="1"/>
        <pt x="66" y="674" on="1"/>
      </contour>
    </TTGlyph>
    <TTGlyph name="Zacute" xMin="60" yMin="0" xMax="561" yMax="898">
      <contour>
        <pt x="549" y="674" on="1"/>
        <pt x="549" y="565" on="1"/>
        <pt x="245" y="124" on="1"/>
        <pt x="561" y="124" on="1"/>
        <pt x="561" y="0" on="1"/>
        <pt x="60" y="0" on="1"/>
        <pt x="60" y="113" on="1"/>
        <pt x="362" y="550" on="1"/>
        <pt x="66" y="550" on="1"/>
        <pt x="66" y="674" on="1"/>
      </contour>
      <contour>
        <pt x="272" y="721" on="1"/>
        <pt x="358" y="898" on="1"/>
        <pt x="504" y="898" on="1"/>
        <pt x="393" y="721" on="1"/>
      </contour>
    </TTGlyph>
    <TTGlyph name="Zcaron" xMin="60" yMin="0" xMax="561" yMax="898">
      <contour>
        <pt x="382" y="721" on="1"/>
        <pt x="258" y="721" on="1"/>
        <pt x="102" y="898" on="1"/>
        <pt x="241" y="898" on="1"/>
        <pt x="320" y="802" on="1"/>
        <pt x="399" y="898" on="1"/>
        <pt x="538" y="898" on="1"/>
      </contour>
      <contour>
        <pt x="549" y="674" on="1"/>
        <pt x="549" y="565" on="1"/>
        <pt x="245" y="124" on="1"/>
        <pt x="561" y="124" on="1"/>
        <pt x="561" y="0" on="1"/>
        <pt x="60" y="0" on="1"/>
        <pt x="60" y="113" on="1"/>
        <pt x="362" y="550" on="1"/>
        <pt x="66" y="550" on="1"/>
        <pt x="66" y="674" on="1"/>
      </contour>
    </TTGlyph>
    <TTGlyph name="Zdotaccent" xMin="60" yMin="0" xMax="561" yMax="891">
      <contour>
        <pt x="293" y="728" on="0"/>
        <pt x="246" y="775" on="0"/>
        <pt x="246" y="844" on="0"/>
        <pt x="293" y="891" on="0"/>
        <pt x="364" y="891" on="0"/>
        <pt x="411" y="844" on="0"/>
        <pt x="411" y="775" on="0"/>
        <pt x="364" y="728" on="0"/>
      </contour>
      <contour>
        <pt x="549" y="674" on="1"/>
        <pt x="549" y="565" on="1"/>
        <pt x="245" y="124" on="1"/>
        <pt x="561" y="124" on="1"/>
        <pt x="561" y="0" on="1"/>
        <pt x="60" y="0" on="1"/>
        <pt x="60" y="113" on="1"/>
        <pt x="362" y="550" on="1"/>
        <pt x="66" y="550" on="1"/>
        <pt x="66" y="674" on="1"/>
      </contour>
    </TTGlyph>
    <TTGlyph name="a" xMin="35" yMin="-3" xMax="461" yMax="516">
      <contour>
        <pt x="74" y="482" on="1"/>
        <pt x="134" y="516" on="0"/>
        <pt x="355" y="516" on="0"/>
        <pt x="461" y="423" on="0"/>
        <pt x="461" y="325" on="1"/>
        <pt x="461" y="0" on="1"/>
        <pt x="318" y="0" on="1"/>
        <pt x="318" y="62" on="1"/>
        <pt x="286" y="-3" on="0"/>
        <pt x="192" y="-3" on="1"/>
        <pt x="118" y="-3" on="0"/>
        <pt x="35" y="81" on="0"/>
        <pt x="35" y="217" on="0"/>
        <pt x="142" y="298" on="0"/>
        <pt x="247" y="298" on="1"/>
        <pt x="311" y="298" on="1"/>
        <pt x="311" y="333" on="1"/>
        <pt x="311" y="397" on="0"/>
        <pt x="144" y="397" on="0"/>
        <pt x="74" y="351" on="1"/>
      </contour>
      <contour>
        <pt x="311" y="208" on="1"/>
        <pt x="264" y="208" on="1"/>
        <pt x="227" y="208" on="0"/>
        <pt x="187" y="176" on="0"/>
        <pt x="187" y="151" on="1"/>
        <pt x="187" y="100" on="0"/>
        <pt x="246" y="100" on="1"/>
        <pt x="277" y="100" on="0"/>
        <pt x="311" y="138" on="0"/>
        <pt x="311" y="171" on="1"/>
      </contour>
    </TTGlyph>
    <TTGlyph name="aacute" xMin="35" yMin="-3" xMax="461" yMax="731">
      <contour>
        <pt x="74" y="482" on="1"/>
        <pt x="134" y="516" on="0"/>
        <pt x="355" y="516" on="0"/>
        <pt x="461" y="423" on="0"/>
        <pt x="461" y="325" on="1"/>
        <pt x="461" y="0" on="1"/>
        <pt x="318" y="0" on="1"/>
        <pt x="318" y="62" on="1"/>
        <pt x="286" y="-3" on="0"/>
        <pt x="192" y="-3" on="1"/>
        <pt x="118" y="-3" on="0"/>
        <pt x="35" y="81" on="0"/>
        <pt x="35" y="217" on="0"/>
        <pt x="142" y="298" on="0"/>
        <pt x="247" y="298" on="1"/>
        <pt x="311" y="298" on="1"/>
        <pt x="311" y="333" on="1"/>
        <pt x="311" y="397" on="0"/>
        <pt x="144" y="397" on="0"/>
        <pt x="74" y="351" on="1"/>
      </contour>
      <contour>
        <pt x="311" y="208" on="1"/>
        <pt x="264" y="208" on="1"/>
        <pt x="227" y="208" on="0"/>
        <pt x="187" y="176" on="0"/>
        <pt x="187" y="151" on="1"/>
        <pt x="187" y="100" on="0"/>
        <pt x="246" y="100" on="1"/>
        <pt x="277" y="100" on="0"/>
        <pt x="311" y="138" on="0"/>
        <pt x="311" y="171" on="1"/>
      </contour>
      <contour>
        <pt x="426" y="731" on="1"/>
        <pt x="315" y="554" on="1"/>
        <pt x="194" y="554" on="1"/>
        <pt x="280" y="731" on="1"/>
      </contour>
    </TTGlyph>
    <TTGlyph name="abreve" xMin="35" yMin="-3" xMax="461" yMax="730">
      <contour>
        <pt x="74" y="482" on="1"/>
        <pt x="134" y="516" on="0"/>
        <pt x="355" y="516" on="0"/>
        <pt x="461" y="423" on="0"/>
        <pt x="461" y="325" on="1"/>
        <pt x="461" y="0" on="1"/>
        <pt x="318" y="0" on="1"/>
        <pt x="318" y="62" on="1"/>
        <pt x="286" y="-3" on="0"/>
        <pt x="192" y="-3" on="1"/>
        <pt x="118" y="-3" on="0"/>
        <pt x="35" y="81" on="0"/>
        <pt x="35" y="217" on="0"/>
        <pt x="142" y="298" on="0"/>
        <pt x="247" y="298" on="1"/>
        <pt x="311" y="298" on="1"/>
        <pt x="311" y="333" on="1"/>
        <pt x="311" y="397" on="0"/>
        <pt x="144" y="397" on="0"/>
        <pt x="74" y="351" on="1"/>
      </contour>
      <contour>
        <pt x="311" y="208" on="1"/>
        <pt x="264" y="208" on="1"/>
        <pt x="227" y="208" on="0"/>
        <pt x="187" y="176" on="0"/>
        <pt x="187" y="151" on="1"/>
        <pt x="187" y="100" on="0"/>
        <pt x="246" y="100" on="1"/>
        <pt x="277" y="100" on="0"/>
        <pt x="311" y="138" on="0"/>
        <pt x="311" y="171" on="1"/>
      </contour>
      <contour>
        <pt x="343" y="730" on="1"/>
        <pt x="455" y="730" on="1"/>
        <pt x="455" y="637" on="0"/>
        <pt x="346" y="549" on="0"/>
        <pt x="168" y="549" on="0"/>
        <pt x="59" y="637" on="0"/>
        <pt x="59" y="730" on="1"/>
        <pt x="171" y="730" on="1"/>
        <pt x="171" y="688" on="0"/>
        <pt x="218" y="641" on="0"/>
        <pt x="296" y="641" on="0"/>
        <pt x="343" y="688" on="0"/>
      </contour>
    </TTGlyph>
    <TTGlyph name="acircumflex" xMin="35" yMin="-3" xMax="474" yMax="731">
      <contour>
        <pt x="74" y="482" on="1"/>
        <pt x="134" y="516" on="0"/>
        <pt x="355" y="516" on="0"/>
        <pt x="461" y="423" on="0"/>
        <pt x="461" y="325" on="1"/>
        <pt x="461" y="0" on="1"/>
        <pt x="318" y="0" on="1"/>
        <pt x="318" y="62" on="1"/>
        <pt x="286" y="-3" on="0"/>
        <pt x="192" y="-3" on="1"/>
        <pt x="118" y="-3" on="0"/>
        <pt x="35" y="81" on="0"/>
        <pt x="35" y="217" on="0"/>
        <pt x="142" y="298" on="0"/>
        <pt x="247" y="298" on="1"/>
        <pt x="311" y="298" on="1"/>
        <pt x="311" y="333" on="1"/>
        <pt x="311" y="397" on="0"/>
        <pt x="144" y="397" on="0"/>
        <pt x="74" y="351" on="1"/>
      </contour>
      <contour>
        <pt x="311" y="208" on="1"/>
        <pt x="264" y="208" on="1"/>
        <pt x="227" y="208" on="0"/>
        <pt x="187" y="176" on="0"/>
        <pt x="187" y="151" on="1"/>
        <pt x="187" y="100" on="0"/>
        <pt x="246" y="100" on="1"/>
        <pt x="277" y="100" on="0"/>
        <pt x="311" y="138" on="0"/>
        <pt x="311" y="171" on="1"/>
      </contour>
      <contour>
        <pt x="256" y="650" on="1"/>
        <pt x="177" y="554" on="1"/>
        <pt x="38" y="554" on="1"/>
        <pt x="194" y="731" on="1"/>
        <pt x="318" y="731" on="1"/>
        <pt x="474" y="554" on="1"/>
        <pt x="335" y="554" on="1"/>
      </contour>
    </TTGlyph>
    <TTGlyph name="acute" xMin="134" yMin="621" xMax="366" yMax="798">
      <contour>
        <pt x="134" y="621" on="1"/>
        <pt x="220" y="798" on="1"/>
        <pt x="366" y="798" on="1"/>
        <pt x="255" y="621" on="1"/>
      </contour>
    </TTGlyph>
    <TTGlyph name="adieresis" xMin="35" yMin="-3" xMax="482" yMax="724">
      <contour>
        <pt x="74" y="482" on="1"/>
        <pt x="134" y="516" on="0"/>
        <pt x="355" y="516" on="0"/>
        <pt x="461" y="423" on="0"/>
        <pt x="461" y="325" on="1"/>
        <pt x="461" y="0" on="1"/>
        <pt x="318" y="0" on="1"/>
        <pt x="318" y="62" on="1"/>
        <pt x="286" y="-3" on="0"/>
        <pt x="192" y="-3" on="1"/>
        <pt x="118" y="-3" on="0"/>
        <pt x="35" y="81" on="0"/>
        <pt x="35" y="217" on="0"/>
        <pt x="142" y="298" on="0"/>
        <pt x="247" y="298" on="1"/>
        <pt x="311" y="298" on="1"/>
        <pt x="311" y="333" on="1"/>
        <pt x="311" y="397" on="0"/>
        <pt x="144" y="397" on="0"/>
        <pt x="74" y="351" on="1"/>
      </contour>
      <contour>
        <pt x="311" y="208" on="1"/>
        <pt x="264" y="208" on="1"/>
        <pt x="227" y="208" on="0"/>
        <pt x="187" y="176" on="0"/>
        <pt x="187" y="151" on="1"/>
        <pt x="187" y="100" on="0"/>
        <pt x="246" y="100" on="1"/>
        <pt x="277" y="100" on="0"/>
        <pt x="311" y="138" on="0"/>
        <pt x="311" y="171" on="1"/>
      </contour>
      <contour>
        <pt x="213" y="608" on="0"/>
        <pt x="166" y="561" on="0"/>
        <pt x="95" y="561" on="0"/>
        <pt x="48" y="608" on="0"/>
        <pt x="48" y="677" on="0"/>
        <pt x="95" y="724" on="0"/>
        <pt x="166" y="724" on="0"/>
        <pt x="213" y="677" on="0"/>
      </contour>
      <contour>
        <pt x="482" y="608" on="0"/>
        <pt x="434" y="561" on="0"/>
        <pt x="363" y="561" on="0"/>
        <pt x="316" y="608" on="0"/>
        <pt x="316" y="677" on="0"/>
        <pt x="363" y="724" on="0"/>
        <pt x="434" y="724" on="0"/>
        <pt x="482" y="677" on="0"/>
      </contour>
    </TTGlyph>
    <TTGlyph name="ae" xMin="40" yMin="-5" xMax="768" yMax="516">
      <contour>
        <pt x="603" y="108" on="1"/>
        <pt x="680" y="108" on="0"/>
        <pt x="737" y="151" on="1"/>
        <pt x="737" y="29" on="1"/>
        <pt x="684" y="-5" on="0"/>
        <pt x="585" y="-5" on="1"/>
        <pt x="528" y="-5" on="0"/>
        <pt x="420" y="41" on="0"/>
        <pt x="392" y="88" on="1"/>
        <pt x="376" y="50" on="0"/>
        <pt x="290" y="-4" on="0"/>
        <pt x="133" y="-4" on="0"/>
        <pt x="40" y="76" on="0"/>
        <pt x="40" y="217" on="0"/>
        <pt x="147" y="298" on="0"/>
        <pt x="252" y="298" on="1"/>
        <pt x="316" y="298" on="1"/>
        <pt x="316" y="333" on="1"/>
        <pt x="316" y="397" on="0"/>
        <pt x="149" y="397" on="0"/>
        <pt x="79" y="351" on="1"/>
        <pt x="79" y="482" on="1"/>
        <pt x="139" y="516" on="0"/>
        <pt x="242" y="516" on="1"/>
        <pt x="296" y="516" on="0"/>
        <pt x="375" y="476" on="0"/>
        <pt x="391" y="442" on="1"/>
        <pt x="414" y="475" on="0"/>
        <pt x="498" y="512" on="0"/>
        <pt x="548" y="512" on="1"/>
        <pt x="650" y="512" on="0"/>
        <pt x="768" y="393" on="0"/>
        <pt x="768" y="275" on="1"/>
        <pt x="768" y="252" on="0"/>
        <pt x="760" y="196" on="1"/>
        <pt x="461" y="196" on="1"/>
        <pt x="477" y="154" on="0"/>
        <pt x="551" y="108" on="0"/>
      </contour>
      <contour>
        <pt x="632" y="300" on="1"/>
        <pt x="632" y="311" on="1"/>
        <pt x="625" y="401" on="0"/>
        <pt x="554" y="401" on="1"/>
        <pt x="520" y="401" on="0"/>
        <pt x="465" y="349" on="0"/>
        <pt x="456" y="300" on="1"/>
      </contour>
      <contour>
        <pt x="316" y="171" on="1"/>
        <pt x="316" y="208" on="1"/>
        <pt x="269" y="208" on="1"/>
        <pt x="232" y="208" on="0"/>
        <pt x="192" y="176" on="0"/>
        <pt x="192" y="151" on="1"/>
        <pt x="192" y="100" on="0"/>
        <pt x="251" y="100" on="1"/>
        <pt x="282" y="100" on="0"/>
        <pt x="316" y="138" on="0"/>
      </contour>
    </TTGlyph>
    <TTGlyph name="agrave" xMin="35" yMin="-3" xMax="461" yMax="731">
      <contour>
        <pt x="74" y="482" on="1"/>
        <pt x="134" y="516" on="0"/>
        <pt x="355" y="516" on="0"/>
        <pt x="461" y="423" on="0"/>
        <pt x="461" y="325" on="1"/>
        <pt x="461" y="0" on="1"/>
        <pt x="318" y="0" on="1"/>
        <pt x="318" y="62" on="1"/>
        <pt x="286" y="-3" on="0"/>
        <pt x="192" y="-3" on="1"/>
        <pt x="118" y="-3" on="0"/>
        <pt x="35" y="81" on="0"/>
        <pt x="35" y="217" on="0"/>
        <pt x="142" y="298" on="0"/>
        <pt x="247" y="298" on="1"/>
        <pt x="311" y="298" on="1"/>
        <pt x="311" y="333" on="1"/>
        <pt x="311" y="397" on="0"/>
        <pt x="144" y="397" on="0"/>
        <pt x="74" y="351" on="1"/>
      </contour>
      <contour>
        <pt x="311" y="208" on="1"/>
        <pt x="264" y="208" on="1"/>
        <pt x="227" y="208" on="0"/>
        <pt x="187" y="176" on="0"/>
        <pt x="187" y="151" on="1"/>
        <pt x="187" y="100" on="0"/>
        <pt x="246" y="100" on="1"/>
        <pt x="277" y="100" on="0"/>
        <pt x="311" y="138" on="0"/>
        <pt x="311" y="171" on="1"/>
      </contour>
      <contour>
        <pt x="326" y="554" on="1"/>
        <pt x="205" y="554" on="1"/>
        <pt x="94" y="731" on="1"/>
        <pt x="240" y="731" on="1"/>
      </contour>
    </TTGlyph>
    <TTGlyph name="amacron" xMin="35" yMin="-3" xMax="461" yMax="692">
      <contour>
        <pt x="74" y="482" on="1"/>
        <pt x="134" y="516" on="0"/>
        <pt x="355" y="516" on="0"/>
        <pt x="461" y="423" on="0"/>
        <pt x="461" y="325" on="1"/>
        <pt x="461" y="0" on="1"/>
        <pt x="318" y="0" on="1"/>
        <pt x="318" y="62" on="1"/>
        <pt x="286" y="-3" on="0"/>
        <pt x="192" y="-3" on="1"/>
        <pt x="118" y="-3" on="0"/>
        <pt x="35" y="81" on="0"/>
        <pt x="35" y="217" on="0"/>
        <pt x="142" y="298" on="0"/>
        <pt x="247" y="298" on="1"/>
        <pt x="311" y="298" on="1"/>
        <pt x="311" y="333" on="1"/>
        <pt x="311" y="397" on="0"/>
        <pt x="144" y="397" on="0"/>
        <pt x="74" y="351" on="1"/>
      </contour>
      <contour>
        <pt x="311" y="208" on="1"/>
        <pt x="264" y="208" on="1"/>
        <pt x="227" y="208" on="0"/>
        <pt x="187" y="176" on="0"/>
        <pt x="187" y="151" on="1"/>
        <pt x="187" y="100" on="0"/>
        <pt x="246" y="100" on="1"/>
        <pt x="277" y="100" on="0"/>
        <pt x="311" y="138" on="0"/>
        <pt x="311" y="171" on="1"/>
      </contour>
      <contour>
        <pt x="436" y="692" on="1"/>
        <pt x="436" y="593" on="1"/>
        <pt x="80" y="593" on="1"/>
        <pt x="80" y="692" on="1"/>
      </contour>
    </TTGlyph>
    <TTGlyph name="ampersand" xMin="50" yMin="-8" xMax="737" yMax="688">
      <contour>
        <pt x="335" y="-8" on="1"/>
        <pt x="203" y="-8" on="0"/>
        <pt x="50" y="104" on="0"/>
        <pt x="50" y="184" on="1"/>
        <pt x="50" y="308" on="0"/>
        <pt x="192" y="354" on="1"/>
        <pt x="124" y="429" on="0"/>
        <pt x="124" y="502" on="1"/>
        <pt x="124" y="591" on="0"/>
        <pt x="246" y="688" on="0"/>
        <pt x="444" y="688" on="0"/>
        <pt x="563" y="589" on="0"/>
        <pt x="563" y="500" on="1"/>
        <pt x="563" y="441" on="0"/>
        <pt x="496" y="350" on="0"/>
        <pt x="421" y="312" on="1"/>
        <pt x="519" y="216" on="1"/>
        <pt x="537" y="255" on="0"/>
        <pt x="537" y="301" on="1"/>
        <pt x="668" y="301" on="1"/>
        <pt x="668" y="201" on="0"/>
        <pt x="612" y="123" on="1"/>
        <pt x="737" y="0" on="1"/>
        <pt x="558" y="0" on="1"/>
        <pt x="519" y="39" on="1"/>
        <pt x="438" y="-8" on="0"/>
      </contour>
      <contour>
        <pt x="416" y="529" on="0"/>
        <pt x="375" y="569" on="0"/>
        <pt x="310" y="569" on="0"/>
        <pt x="272" y="535" on="0"/>
        <pt x="272" y="504" on="1"/>
        <pt x="272" y="460" on="0"/>
        <pt x="341" y="391" on="1"/>
        <pt x="416" y="432" on="0"/>
        <pt x="416" y="492" on="1"/>
      </contour>
      <contour>
        <pt x="232" y="257" on="0"/>
        <pt x="199" y="217" on="0"/>
        <pt x="199" y="155" on="0"/>
        <pt x="277" y="112" on="0"/>
        <pt x="383" y="112" on="0"/>
        <pt x="425" y="130" on="1"/>
        <pt x="294" y="258" on="0"/>
        <pt x="282" y="269" on="0"/>
        <pt x="278" y="273" on="1"/>
      </contour>
    </TTGlyph>
    <TTGlyph name="aogonek" xMin="35" yMin="-260" xMax="473" yMax="516">
      <contour>
        <pt x="461" y="325" on="1"/>
        <pt x="461" y="0" on="1"/>
        <pt x="343" y="-73" on="0"/>
        <pt x="343" y="-130" on="1"/>
        <pt x="343" y="-164" on="0"/>
        <pt x="430" y="-164" on="0"/>
        <pt x="473" y="-134" on="1"/>
        <pt x="473" y="-235" on="1"/>
        <pt x="425" y="-260" on="0"/>
        <pt x="294" y="-260" on="0"/>
        <pt x="227" y="-194" on="0"/>
        <pt x="227" y="-143" on="1"/>
        <pt x="227" y="-58" on="0"/>
        <pt x="318" y="10" on="1"/>
        <pt x="318" y="62" on="1"/>
        <pt x="286" y="-3" on="0"/>
        <pt x="192" y="-3" on="1"/>
        <pt x="118" y="-3" on="0"/>
        <pt x="35" y="81" on="0"/>
        <pt x="35" y="217" on="0"/>
        <pt x="142" y="298" on="0"/>
        <pt x="247" y="298" on="1"/>
        <pt x="311" y="298" on="1"/>
        <pt x="311" y="333" on="1"/>
        <pt x="311" y="397" on="0"/>
        <pt x="144" y="397" on="0"/>
        <pt x="74" y="351" on="1"/>
        <pt x="74" y="482" on="1"/>
        <pt x="134" y="516" on="0"/>
        <pt x="355" y="516" on="0"/>
        <pt x="461" y="423" on="0"/>
      </contour>
      <contour>
        <pt x="311" y="208" on="1"/>
        <pt x="264" y="208" on="1"/>
        <pt x="227" y="208" on="0"/>
        <pt x="187" y="176" on="0"/>
        <pt x="187" y="151" on="1"/>
        <pt x="187" y="100" on="0"/>
        <pt x="246" y="100" on="1"/>
        <pt x="277" y="100" on="0"/>
        <pt x="311" y="138" on="0"/>
        <pt x="311" y="171" on="1"/>
      </contour>
    </TTGlyph>
    <TTGlyph name="approxequal" xMin="21" yMin="148" xMax="565" yMax="533">
      <contour>
        <pt x="407" y="360" on="1"/>
        <pt x="355" y="360" on="0"/>
        <pt x="238" y="405" on="0"/>
        <pt x="177" y="405" on="0"/>
        <pt x="136" y="379" on="0"/>
        <pt x="113" y="352" on="1"/>
        <pt x="21" y="425" on="1"/>
        <pt x="92" y="524" on="0"/>
        <pt x="178" y="524" on="1"/>
        <pt x="238" y="524" on="0"/>
        <pt x="357" y="479" on="0"/>
        <pt x="409" y="479" on="0"/>
        <pt x="449" y="505" on="0"/>
        <pt x="473" y="533" on="1"/>
        <pt x="565" y="459" on="1"/>
        <pt x="496" y="360" on="0"/>
      </contour>
      <contour>
        <pt x="407" y="156" on="1"/>
        <pt x="355" y="156" on="0"/>
        <pt x="238" y="201" on="0"/>
        <pt x="177" y="201" on="0"/>
        <pt x="136" y="175" on="0"/>
        <pt x="113" y="148" on="1"/>
        <pt x="21" y="221" on="1"/>
        <pt x="92" y="320" on="0"/>
        <pt x="178" y="320" on="1"/>
        <pt x="238" y="320" on="0"/>
        <pt x="357" y="275" on="0"/>
        <pt x="409" y="275" on="0"/>
        <pt x="449" y="301" on="0"/>
        <pt x="473" y="329" on="1"/>
        <pt x="565" y="255" on="1"/>
        <pt x="496" y="156" on="0"/>
      </contour>
    </TTGlyph>
    <TTGlyph name="aring" xMin="35" yMin="-3" xMax="461" yMax="815">
      <contour>
        <pt x="74" y="482" on="1"/>
        <pt x="134" y="516" on="0"/>
        <pt x="355" y="516" on="0"/>
        <pt x="461" y="423" on="0"/>
        <pt x="461" y="325" on="1"/>
        <pt x="461" y="0" on="1"/>
        <pt x="318" y="0" on="1"/>
        <pt x="318" y="62" on="1"/>
        <pt x="286" y="-3" on="0"/>
        <pt x="192" y="-3" on="1"/>
        <pt x="118" y="-3" on="0"/>
        <pt x="35" y="81" on="0"/>
        <pt x="35" y="217" on="0"/>
        <pt x="142" y="298" on="0"/>
        <pt x="247" y="298" on="1"/>
        <pt x="311" y="298" on="1"/>
        <pt x="311" y="333" on="1"/>
        <pt x="311" y="397" on="0"/>
        <pt x="144" y="397" on="0"/>
        <pt x="74" y="351" on="1"/>
      </contour>
      <contour>
        <pt x="311" y="208" on="1"/>
        <pt x="264" y="208" on="1"/>
        <pt x="227" y="208" on="0"/>
        <pt x="187" y="176" on="0"/>
        <pt x="187" y="151" on="1"/>
        <pt x="187" y="100" on="0"/>
        <pt x="246" y="100" on="1"/>
        <pt x="277" y="100" on="0"/>
        <pt x="311" y="138" on="0"/>
        <pt x="311" y="171" on="1"/>
      </contour>
      <contour>
        <pt x="316" y="543" on="0"/>
        <pt x="204" y="543" on="0"/>
        <pt x="124" y="623" on="0"/>
        <pt x="124" y="735" on="0"/>
        <pt x="204" y="815" on="0"/>
        <pt x="316" y="815" on="0"/>
        <pt x="396" y="735" on="0"/>
        <pt x="396" y="623" on="0"/>
      </contour>
      <contour>
        <pt x="283" y="738" on="0"/>
        <pt x="237" y="738" on="0"/>
        <pt x="207" y="705" on="0"/>
        <pt x="207" y="659" on="0"/>
        <pt x="237" y="626" on="0"/>
        <pt x="283" y="626" on="0"/>
        <pt x="313" y="659" on="0"/>
        <pt x="313" y="705" on="0"/>
      </contour>
    </TTGlyph>
    <TTGlyph name="asciicircum" xMin="33" yMin="332" xMax="458" yMax="594">
      <contour>
        <pt x="458" y="332" on="1"/>
        <pt x="323" y="332" on="1"/>
        <pt x="246" y="478" on="1"/>
        <pt x="168" y="332" on="1"/>
        <pt x="33" y="332" on="1"/>
        <pt x="184" y="594" on="1"/>
        <pt x="307" y="594" on="1"/>
      </contour>
    </TTGlyph>
    <TTGlyph name="asciitilde" xMin="28" yMin="180" xMax="625" yMax="379">
      <contour>
        <pt x="452" y="189" on="1"/>
        <pt x="395" y="189" on="0"/>
        <pt x="266" y="238" on="0"/>
        <pt x="199" y="238" on="0"/>
        <pt x="155" y="210" on="0"/>
        <pt x="129" y="180" on="1"/>
        <pt x="28" y="260" on="1"/>
        <pt x="59" y="304" on="0"/>
        <pt x="149" y="369" on="0"/>
        <pt x="266" y="369" on="0"/>
        <pt x="397" y="320" on="0"/>
        <pt x="454" y="320" on="0"/>
        <pt x="498" y="348" on="0"/>
        <pt x="524" y="379" on="1"/>
        <pt x="625" y="298" on="1"/>
        <pt x="548" y="189" on="0"/>
      </contour>
    </TTGlyph>
    <TTGlyph name="asterisk" xMin="28" yMin="243" xMax="481" yMax="674">
      <contour>
        <pt x="339" y="428" on="1"/>
        <pt x="337" y="428" on="1"/>
        <pt x="358" y="412" on="0"/>
        <pt x="373" y="392" on="1"/>
        <pt x="431" y="312" on="1"/>
        <pt x="335" y="243" on="1"/>
        <pt x="278" y="322" on="1"/>
        <pt x="262" y="344" on="0"/>
        <pt x="256" y="365" on="1"/>
        <pt x="248" y="346" on="0"/>
        <pt x="232" y="323" on="1"/>
        <pt x="173" y="243" on="1"/>
        <pt x="78" y="313" on="1"/>
        <pt x="136" y="392" on="1"/>
        <pt x="151" y="412" on="0"/>
        <pt x="171" y="427" on="1"/>
        <pt x="148" y="427" on="0"/>
        <pt x="122" y="436" on="1"/>
        <pt x="28" y="467" on="1"/>
        <pt x="65" y="579" on="1"/>
        <pt x="158" y="549" on="1"/>
        <pt x="184" y="540" on="0"/>
        <pt x="203" y="526" on="1"/>
        <pt x="196" y="550" on="0"/>
        <pt x="196" y="576" on="1"/>
        <pt x="196" y="674" on="1"/>
        <pt x="314" y="674" on="1"/>
        <pt x="314" y="576" on="1"/>
        <pt x="314" y="550" on="0"/>
        <pt x="307" y="526" on="1"/>
        <pt x="325" y="539" on="0"/>
        <pt x="351" y="548" on="1"/>
        <pt x="445" y="578" on="1"/>
        <pt x="481" y="466" on="1"/>
        <pt x="389" y="436" on="1"/>
        <pt x="364" y="428" on="0"/>
      </contour>
    </TTGlyph>
    <TTGlyph name="at" xMin="40" yMin="-216" xMax="942" yMax="671">
      <contour>
        <pt x="468" y="-216" on="1"/>
        <pt x="334" y="-216" on="0"/>
        <pt x="136" y="-99" on="0"/>
        <pt x="40" y="87" on="0"/>
        <pt x="40" y="329" on="0"/>
        <pt x="170" y="547" on="0"/>
        <pt x="390" y="671" on="0"/>
        <pt x="631" y="671" on="0"/>
        <pt x="822" y="579" on="0"/>
        <pt x="942" y="396" on="0"/>
        <pt x="942" y="159" on="0"/>
        <pt x="823" y="0" on="0"/>
        <pt x="739" y="0" on="1"/>
        <pt x="621" y="0" on="0"/>
        <pt x="586" y="109" on="1"/>
        <pt x="566" y="56" on="0"/>
        <pt x="485" y="1" on="0"/>
        <pt x="434" y="1" on="1"/>
        <pt x="353" y="1" on="0"/>
        <pt x="259" y="124" on="0"/>
        <pt x="259" y="317" on="0"/>
        <pt x="381" y="444" on="0"/>
        <pt x="545" y="444" on="0"/>
        <pt x="584" y="371" on="1"/>
        <pt x="588" y="420" on="0"/>
        <pt x="589" y="442" on="1"/>
        <pt x="705" y="442" on="1"/>
        <pt x="692" y="221" on="1"/>
        <pt x="692" y="113" on="0"/>
        <pt x="743" y="113" on="1"/>
        <pt x="778" y="113" on="0"/>
        <pt x="822" y="196" on="0"/>
        <pt x="822" y="267" on="1"/>
        <pt x="822" y="409" on="0"/>
        <pt x="649" y="553" on="0"/>
        <pt x="514" y="553" on="1"/>
        <pt x="411" y="553" on="0"/>
        <pt x="250" y="450" on="0"/>
        <pt x="168" y="288" on="0"/>
        <pt x="168" y="196" on="1"/>
        <pt x="168" y="61" on="0"/>
        <pt x="340" y="-98" on="0"/>
        <pt x="467" y="-98" on="1"/>
        <pt x="572" y="-98" on="0"/>
        <pt x="668" y="-52" on="1"/>
        <pt x="664" y="-175" on="1"/>
        <pt x="572" y="-216" on="0"/>
      </contour>
      <contour>
        <pt x="576" y="204" on="1"/>
        <pt x="577" y="244" on="1"/>
        <pt x="571" y="291" on="0"/>
        <pt x="521" y="340" on="0"/>
        <pt x="446" y="340" on="0"/>
        <pt x="387" y="270" on="0"/>
        <pt x="387" y="161" on="0"/>
        <pt x="440" y="105" on="0"/>
        <pt x="509" y="105" on="0"/>
        <pt x="566" y="156" on="0"/>
      </contour>
    </TTGlyph>
    <TTGlyph name="atilde" xMin="35" yMin="-3" xMax="461" yMax="720">
      <contour>
        <pt x="74" y="482" on="1"/>
        <pt x="134" y="516" on="0"/>
        <pt x="355" y="516" on="0"/>
        <pt x="461" y="423" on="0"/>
        <pt x="461" y="325" on="1"/>
        <pt x="461" y="0" on="1"/>
        <pt x="318" y="0" on="1"/>
        <pt x="318" y="62" on="1"/>
        <pt x="286" y="-3" on="0"/>
        <pt x="192" y="-3" on="1"/>
        <pt x="118" y="-3" on="0"/>
        <pt x="35" y="81" on="0"/>
        <pt x="35" y="217" on="0"/>
        <pt x="142" y="298" on="0"/>
        <pt x="247" y="298" on="1"/>
        <pt x="311" y="298" on="1"/>
        <pt x="311" y="333" on="1"/>
        <pt x="311" y="397" on="0"/>
        <pt x="144" y="397" on="0"/>
        <pt x="74" y="351" on="1"/>
      </contour>
      <contour>
        <pt x="311" y="208" on="1"/>
        <pt x="264" y="208" on="1"/>
        <pt x="227" y="208" on="0"/>
        <pt x="187" y="176" on="0"/>
        <pt x="187" y="151" on="1"/>
        <pt x="187" y="100" on="0"/>
        <pt x="246" y="100" on="1"/>
        <pt x="277" y="100" on="0"/>
        <pt x="311" y="138" on="0"/>
        <pt x="311" y="171" on="1"/>
      </contour>
      <contour>
        <pt x="318" y="574" on="1"/>
        <pt x="285" y="574" on="0"/>
        <pt x="213" y="609" on="0"/>
        <pt x="173" y="609" on="0"/>
        <pt x="145" y="592" on="0"/>
        <pt x="123" y="566" on="1"/>
        <pt x="58" y="630" on="1"/>
        <pt x="74" y="664" on="0"/>
        <pt x="137" y="712" on="0"/>
        <pt x="210" y="712" on="0"/>
        <pt x="291" y="677" on="0"/>
        <pt x="310" y="677" on="1"/>
        <pt x="358" y="677" on="0"/>
        <pt x="380" y="720" on="1"/>
        <pt x="454" y="659" on="1"/>
        <pt x="412" y="574" on="0"/>
      </contour>
    </TTGlyph>
    <TTGlyph name="b" xMin="60" yMin="-6" xMax="576" yMax="707">
      <contour>
        <pt x="206" y="707" on="1"/>
        <pt x="206" y="429" on="1"/>
        <pt x="258" y="513" on="0"/>
        <pt x="452" y="513" on="0"/>
        <pt x="576" y="375" on="0"/>
        <pt x="576" y="148" on="0"/>
        <pt x="457" y="-6" on="0"/>
        <pt x="257" y="-6" on="0"/>
        <pt x="206" y="79" on="1"/>
        <pt x="206" y="0" on="1"/>
        <pt x="60" y="0" on="1"/>
        <pt x="60" y="707" on="1"/>
      </contour>
      <contour>
        <pt x="206" y="194" on="0"/>
        <pt x="268" y="116" on="0"/>
        <pt x="364" y="116" on="0"/>
        <pt x="428" y="191" on="0"/>
        <pt x="428" y="318" on="0"/>
        <pt x="365" y="392" on="0"/>
        <pt x="273" y="392" on="0"/>
        <pt x="206" y="322" on="0"/>
      </contour>
    </TTGlyph>
    <TTGlyph name="backslash" xMin="-45" yMin="-103" xMax="466" yMax="707">
      <contour>
        <pt x="107" y="707" on="1"/>
        <pt x="466" y="-103" on="1"/>
        <pt x="315" y="-103" on="1"/>
        <pt x="-45" y="707" on="1"/>
      </contour>
    </TTGlyph>
    <TTGlyph name="bar" xMin="70" yMin="-194" xMax="210" yMax="695">
      <contour>
        <pt x="70" y="-194" on="1"/>
        <pt x="70" y="695" on="1"/>
        <pt x="210" y="695" on="1"/>
        <pt x="210" y="-194" on="1"/>
      </contour>
    </TTGlyph>
    <TTGlyph name="braceleft" xMin="40" yMin="-206" xMax="355" yMax="715">
      <contour>
        <pt x="40" y="325" on="1"/>
        <pt x="57" y="325" on="1"/>
        <pt x="96" y="325" on="0"/>
        <pt x="142" y="383" on="0"/>
        <pt x="142" y="421" on="1"/>
        <pt x="142" y="437" on="0"/>
        <pt x="130" y="513" on="0"/>
        <pt x="130" y="535" on="1"/>
        <pt x="130" y="613" on="0"/>
        <pt x="219" y="715" on="0"/>
        <pt x="289" y="715" on="1"/>
        <pt x="320" y="715" on="0"/>
        <pt x="355" y="703" on="1"/>
        <pt x="355" y="568" on="1"/>
        <pt x="340" y="577" on="0"/>
        <pt x="303" y="577" on="0"/>
        <pt x="273" y="546" on="0"/>
        <pt x="273" y="510" on="0"/>
        <pt x="285" y="431" on="0"/>
        <pt x="285" y="407" on="1"/>
        <pt x="285" y="346" on="0"/>
        <pt x="216" y="261" on="0"/>
        <pt x="169" y="255" on="1"/>
        <pt x="216" y="249" on="0"/>
        <pt x="285" y="163" on="0"/>
        <pt x="285" y="102" on="1"/>
        <pt x="285" y="78" on="0"/>
        <pt x="273" y="-1" on="0"/>
        <pt x="273" y="-37" on="0"/>
        <pt x="303" y="-68" on="0"/>
        <pt x="340" y="-68" on="0"/>
        <pt x="355" y="-59" on="1"/>
        <pt x="355" y="-194" on="1"/>
        <pt x="320" y="-206" on="0"/>
        <pt x="289" y="-206" on="1"/>
        <pt x="219" y="-206" on="0"/>
        <pt x="130" y="-104" on="0"/>
        <pt x="130" y="-26" on="1"/>
        <pt x="130" y="-4" on="0"/>
        <pt x="142" y="72" on="0"/>
        <pt x="142" y="88" on="1"/>
        <pt x="142" y="126" on="0"/>
        <pt x="96" y="185" on="0"/>
        <pt x="57" y="185" on="1"/>
        <pt x="40" y="184" on="1"/>
      </contour>
    </TTGlyph>
    <TTGlyph name="braceright" xMin="25" yMin="-206" xMax="340" yMax="715">
      <contour>
        <pt x="323" y="325" on="1"/>
        <pt x="340" y="325" on="1"/>
        <pt x="340" y="184" on="1"/>
        <pt x="333" y="185" on="0"/>
        <pt x="323" y="185" on="1"/>
        <pt x="284" y="185" on="0"/>
        <pt x="238" y="126" on="0"/>
        <pt x="238" y="88" on="1"/>
        <pt x="238" y="72" on="0"/>
        <pt x="250" y="-4" on="0"/>
        <pt x="250" y="-26" on="1"/>
        <pt x="250" y="-104" on="0"/>
        <pt x="161" y="-206" on="0"/>
        <pt x="91" y="-206" on="1"/>
        <pt x="60" y="-206" on="0"/>
        <pt x="25" y="-194" on="1"/>
        <pt x="25" y="-59" on="1"/>
        <pt x="40" y="-68" on="0"/>
        <pt x="77" y="-68" on="0"/>
        <pt x="107" y="-37" on="0"/>
        <pt x="107" y="-1" on="0"/>
        <pt x="95" y="78" on="0"/>
        <pt x="95" y="102" on="1"/>
        <pt x="95" y="163" on="0"/>
        <pt x="164" y="249" on="0"/>
        <pt x="211" y="255" on="1"/>
        <pt x="164" y="261" on="0"/>
        <pt x="95" y="346" on="0"/>
        <pt x="95" y="407" on="1"/>
        <pt x="95" y="431" on="0"/>
        <pt x="107" y="510" on="0"/>
        <pt x="107" y="546" on="0"/>
        <pt x="77" y="577" on="0"/>
        <pt x="40" y="577" on="0"/>
        <pt x="25" y="568" on="1"/>
        <pt x="25" y="703" on="1"/>
        <pt x="60" y="715" on="0"/>
        <pt x="91" y="715" on="1"/>
        <pt x="161" y="715" on="0"/>
        <pt x="250" y="613" on="0"/>
        <pt x="250" y="535" on="1"/>
        <pt x="250" y="513" on="0"/>
        <pt x="238" y="437" on="0"/>
        <pt x="238" y="421" on="1"/>
        <pt x="238" y="383" on="0"/>
        <pt x="284" y="325" on="0"/>
      </contour>
    </TTGlyph>
    <TTGlyph name="bracketleft" xMin="65" yMin="-196" xMax="348" yMax="707">
      <contour>
        <pt x="348" y="580" on="1"/>
        <pt x="203" y="580" on="1"/>
        <pt x="203" y="-68" on="1"/>
        <pt x="348" y="-68" on="1"/>
        <pt x="348" y="-196" on="1"/>
        <pt x="65" y="-196" on="1"/>
        <pt x="65" y="707" on="1"/>
        <pt x="348" y="707" on="1"/>
      </contour>
    </TTGlyph>
    <TTGlyph name="bracketright" xMin="15" yMin="-196" xMax="298" yMax="707">
      <contour>
        <pt x="298" y="707" on="1"/>
        <pt x="298" y="-196" on="1"/>
        <pt x="15" y="-196" on="1"/>
        <pt x="15" y="-68" on="1"/>
        <pt x="160" y="-68" on="1"/>
        <pt x="160" y="580" on="1"/>
        <pt x="15" y="580" on="1"/>
        <pt x="15" y="707" on="1"/>
      </contour>
    </TTGlyph>
    <TTGlyph name="breve" xMin="52" yMin="617" xMax="448" yMax="798">
      <contour>
        <pt x="52" y="798" on="1"/>
        <pt x="164" y="798" on="1"/>
        <pt x="164" y="756" on="0"/>
        <pt x="211" y="709" on="0"/>
        <pt x="289" y="709" on="0"/>
        <pt x="336" y="756" on="0"/>
        <pt x="336" y="798" on="1"/>
        <pt x="448" y="798" on="1"/>
        <pt x="448" y="705" on="0"/>
        <pt x="339" y="617" on="0"/>
        <pt x="161" y="617" on="0"/>
        <pt x="52" y="705" on="0"/>
      </contour>
    </TTGlyph>
    <TTGlyph name="brokenbar" xMin="70" yMin="-117" xMax="210" yMax="707">
      <contour>
        <pt x="210" y="-117" on="1"/>
        <pt x="70" y="-117" on="1"/>
        <pt x="70" y="221" on="1"/>
        <pt x="210" y="221" on="1"/>
      </contour>
      <contour>
        <pt x="210" y="369" on="1"/>
        <pt x="70" y="369" on="1"/>
        <pt x="70" y="707" on="1"/>
        <pt x="210" y="707" on="1"/>
      </contour>
    </TTGlyph>
    <TTGlyph name="bullet" xMin="80" yMin="223" xMax="345" yMax="489">
      <contour>
        <pt x="80" y="299" on="0"/>
        <pt x="80" y="413" on="0"/>
        <pt x="155" y="489" on="0"/>
        <pt x="268" y="489" on="0"/>
        <pt x="345" y="412" on="0"/>
        <pt x="345" y="300" on="0"/>
        <pt x="269" y="223" on="0"/>
        <pt x="156" y="223" on="0"/>
      </contour>
    </TTGlyph>
    <TTGlyph name="c" xMin="35" yMin="-8" xMax="439" yMax="515">
      <contour>
        <pt x="187" y="185" on="0"/>
        <pt x="259" y="111" on="0"/>
        <pt x="381" y="111" on="0"/>
        <pt x="439" y="146" on="1"/>
        <pt x="439" y="24" on="1"/>
        <pt x="380" y="-8" on="0"/>
        <pt x="297" y="-8" on="1"/>
        <pt x="183" y="-8" on="0"/>
        <pt x="35" y="137" on="0"/>
        <pt x="35" y="252" on="1"/>
        <pt x="37" y="366" on="0"/>
        <pt x="181" y="515" on="0"/>
        <pt x="306" y="515" on="1"/>
        <pt x="383" y="515" on="0"/>
        <pt x="439" y="486" on="1"/>
        <pt x="439" y="361" on="1"/>
        <pt x="386" y="394" on="0"/>
        <pt x="260" y="394" on="0"/>
        <pt x="184" y="321" on="0"/>
        <pt x="183" y="252" on="1"/>
      </contour>
    </TTGlyph>
    <TTGlyph name="cacute" xMin="35" yMin="-8" xMax="469" yMax="730">
      <contour>
        <pt x="187" y="185" on="0"/>
        <pt x="259" y="111" on="0"/>
        <pt x="381" y="111" on="0"/>
        <pt x="439" y="146" on="1"/>
        <pt x="439" y="24" on="1"/>
        <pt x="380" y="-8" on="0"/>
        <pt x="297" y="-8" on="1"/>
        <pt x="183" y="-8" on="0"/>
        <pt x="35" y="137" on="0"/>
        <pt x="35" y="252" on="1"/>
        <pt x="37" y="366" on="0"/>
        <pt x="181" y="515" on="0"/>
        <pt x="306" y="515" on="1"/>
        <pt x="383" y="515" on="0"/>
        <pt x="439" y="486" on="1"/>
        <pt x="439" y="361" on="1"/>
        <pt x="386" y="394" on="0"/>
        <pt x="260" y="394" on="0"/>
        <pt x="184" y="321" on="0"/>
        <pt x="183" y="252" on="1"/>
      </contour>
      <contour>
        <pt x="237" y="553" on="1"/>
        <pt x="323" y="730" on="1"/>
        <pt x="469" y="730" on="1"/>
        <pt x="358" y="553" on="1"/>
      </contour>
    </TTGlyph>
    <TTGlyph name="caron" xMin="32" yMin="621" xMax="468" yMax="798">
      <contour>
        <pt x="312" y="621" on="1"/>
        <pt x="188" y="621" on="1"/>
        <pt x="32" y="798" on="1"/>
        <pt x="171" y="798" on="1"/>
        <pt x="250" y="702" on="1"/>
        <pt x="329" y="798" on="1"/>
        <pt x="468" y="798" on="1"/>
      </contour>
    </TTGlyph>
    <TTGlyph name="ccaron" xMin="35" yMin="-8" xMax="493" yMax="730">
      <contour>
        <pt x="337" y="553" on="1"/>
        <pt x="213" y="553" on="1"/>
        <pt x="57" y="730" on="1"/>
        <pt x="196" y="730" on="1"/>
        <pt x="275" y="634" on="1"/>
        <pt x="354" y="730" on="1"/>
        <pt x="493" y="730" on="1"/>
      </contour>
      <contour>
        <pt x="439" y="361" on="1"/>
        <pt x="386" y="394" on="0"/>
        <pt x="260" y="394" on="0"/>
        <pt x="184" y="321" on="0"/>
        <pt x="183" y="252" on="1"/>
        <pt x="187" y="185" on="0"/>
        <pt x="259" y="111" on="0"/>
        <pt x="381" y="111" on="0"/>
        <pt x="439" y="146" on="1"/>
        <pt x="439" y="24" on="1"/>
        <pt x="380" y="-8" on="0"/>
        <pt x="297" y="-8" on="1"/>
        <pt x="183" y="-8" on="0"/>
        <pt x="35" y="137" on="0"/>
        <pt x="35" y="252" on="1"/>
        <pt x="37" y="366" on="0"/>
        <pt x="181" y="515" on="0"/>
        <pt x="306" y="515" on="1"/>
        <pt x="383" y="515" on="0"/>
        <pt x="439" y="486" on="1"/>
      </contour>
    </TTGlyph>
    <TTGlyph name="ccedilla" xMin="35" yMin="-268" xMax="439" yMax="515">
      <contour>
        <pt x="369" y="-125" on="1"/>
        <pt x="369" y="-188" on="0"/>
        <pt x="278" y="-268" on="0"/>
        <pt x="190" y="-268" on="1"/>
        <pt x="190" y="-177" on="1"/>
        <pt x="226" y="-177" on="0"/>
        <pt x="265" y="-143" on="0"/>
        <pt x="265" y="-85" on="0"/>
        <pt x="239" y="-51" on="1"/>
        <pt x="352" y="-51" on="1"/>
        <pt x="369" y="-78" on="0"/>
      </contour>
      <contour>
        <pt x="187" y="185" on="0"/>
        <pt x="259" y="111" on="0"/>
        <pt x="381" y="111" on="0"/>
        <pt x="439" y="146" on="1"/>
        <pt x="439" y="24" on="1"/>
        <pt x="380" y="-8" on="0"/>
        <pt x="297" y="-8" on="1"/>
        <pt x="183" y="-8" on="0"/>
        <pt x="35" y="137" on="0"/>
        <pt x="35" y="252" on="1"/>
        <pt x="37" y="366" on="0"/>
        <pt x="181" y="515" on="0"/>
        <pt x="306" y="515" on="1"/>
        <pt x="383" y="515" on="0"/>
        <pt x="439" y="486" on="1"/>
        <pt x="439" y="361" on="1"/>
        <pt x="386" y="394" on="0"/>
        <pt x="260" y="394" on="0"/>
        <pt x="184" y="321" on="0"/>
        <pt x="183" y="252" on="1"/>
      </contour>
    </TTGlyph>
    <TTGlyph name="ccircumflex" xMin="35" yMin="-8" xMax="488" yMax="731">
      <contour>
        <pt x="208" y="731" on="1"/>
        <pt x="332" y="731" on="1"/>
        <pt x="488" y="554" on="1"/>
        <pt x="349" y="554" on="1"/>
        <pt x="270" y="650" on="1"/>
        <pt x="191" y="554" on="1"/>
        <pt x="52" y="554" on="1"/>
      </contour>
      <contour>
        <pt x="439" y="361" on="1"/>
        <pt x="386" y="394" on="0"/>
        <pt x="260" y="394" on="0"/>
        <pt x="184" y="321" on="0"/>
        <pt x="183" y="252" on="1"/>
        <pt x="187" y="185" on="0"/>
        <pt x="259" y="111" on="0"/>
        <pt x="381" y="111" on="0"/>
        <pt x="439" y="146" on="1"/>
        <pt x="439" y="24" on="1"/>
        <pt x="380" y="-8" on="0"/>
        <pt x="297" y="-8" on="1"/>
        <pt x="183" y="-8" on="0"/>
        <pt x="35" y="137" on="0"/>
        <pt x="35" y="252" on="1"/>
        <pt x="37" y="366" on="0"/>
        <pt x="181" y="515" on="0"/>
        <pt x="306" y="515" on="1"/>
        <pt x="383" y="515" on="0"/>
        <pt x="439" y="486" on="1"/>
      </contour>
    </TTGlyph>
    <TTGlyph name="cdotaccent" xMin="35" yMin="-8" xMax="439" yMax="724">
      <contour>
        <pt x="252" y="561" on="0"/>
        <pt x="205" y="608" on="0"/>
        <pt x="205" y="677" on="0"/>
        <pt x="252" y="724" on="0"/>
        <pt x="323" y="724" on="0"/>
        <pt x="370" y="677" on="0"/>
        <pt x="370" y="608" on="0"/>
        <pt x="323" y="561" on="0"/>
      </contour>
      <contour>
        <pt x="187" y="185" on="0"/>
        <pt x="259" y="111" on="0"/>
        <pt x="381" y="111" on="0"/>
        <pt x="439" y="146" on="1"/>
        <pt x="439" y="24" on="1"/>
        <pt x="380" y="-8" on="0"/>
        <pt x="297" y="-8" on="1"/>
        <pt x="183" y="-8" on="0"/>
        <pt x="35" y="137" on="0"/>
        <pt x="35" y="252" on="1"/>
        <pt x="37" y="366" on="0"/>
        <pt x="181" y="515" on="0"/>
        <pt x="306" y="515" on="1"/>
        <pt x="383" y="515" on="0"/>
        <pt x="439" y="486" on="1"/>
        <pt x="439" y="361" on="1"/>
        <pt x="386" y="394" on="0"/>
        <pt x="260" y="394" on="0"/>
        <pt x="184" y="321" on="0"/>
        <pt x="183" y="252" on="1"/>
      </contour>
    </TTGlyph>
    <TTGlyph name="cedilla" xMin="160" yMin="-268" xMax="339" yMax="-51">
      <contour>
        <pt x="339" y="-125" on="1"/>
        <pt x="339" y="-188" on="0"/>
        <pt x="248" y="-268" on="0"/>
        <pt x="160" y="-268" on="1"/>
        <pt x="160" y="-177" on="1"/>
        <pt x="196" y="-177" on="0"/>
        <pt x="235" y="-143" on="0"/>
        <pt x="235" y="-85" on="0"/>
        <pt x="209" y="-51" on="1"/>
        <pt x="322" y="-51" on="1"/>
        <pt x="339" y="-78" on="0"/>
      </contour>
    </TTGlyph>
    <TTGlyph name="cent" xMin="30" yMin="-111" xMax="438" yMax="620">
      <contour>
        <pt x="438" y="361" on="1"/>
        <pt x="385" y="394" on="0"/>
        <pt x="258" y="394" on="0"/>
        <pt x="179" y="320" on="0"/>
        <pt x="178" y="252" on="1"/>
        <pt x="182" y="186" on="0"/>
        <pt x="257" y="111" on="0"/>
        <pt x="380" y="111" on="0"/>
        <pt x="438" y="146" on="1"/>
        <pt x="438" y="24" on="1"/>
        <pt x="403" y="6" on="0"/>
        <pt x="359" y="-2" on="1"/>
        <pt x="359" y="-111" on="1"/>
        <pt x="238" y="-111" on="1"/>
        <pt x="238" y="-3" on="1"/>
        <pt x="146" y="15" on="0"/>
        <pt x="30" y="153" on="0"/>
        <pt x="30" y="252" on="1"/>
        <pt x="32" y="349" on="0"/>
        <pt x="141" y="489" on="0"/>
        <pt x="237" y="508" on="1"/>
        <pt x="237" y="620" on="1"/>
        <pt x="359" y="620" on="1"/>
        <pt x="359" y="510" on="1"/>
        <pt x="402" y="502" on="0"/>
        <pt x="438" y="483" on="1"/>
      </contour>
    </TTGlyph>
    <TTGlyph name="circumflex" xMin="32" yMin="621" xMax="468" yMax="798">
      <contour>
        <pt x="188" y="798" on="1"/>
        <pt x="312" y="798" on="1"/>
        <pt x="468" y="621" on="1"/>
        <pt x="329" y="621" on="1"/>
        <pt x="250" y="717" on="1"/>
        <pt x="171" y="621" on="1"/>
        <pt x="32" y="621" on="1"/>
      </contour>
    </TTGlyph>
    <TTGlyph name="colon" xMin="55" yMin="0" xMax="231" yMax="507">
      <contour>
        <pt x="55" y="51" on="0"/>
        <pt x="55" y="125" on="0"/>
        <pt x="106" y="176" on="0"/>
        <pt x="180" y="176" on="0"/>
        <pt x="231" y="125" on="0"/>
        <pt x="231" y="51" on="0"/>
        <pt x="180" y="0" on="0"/>
        <pt x="106" y="0" on="0"/>
      </contour>
      <contour>
        <pt x="55" y="382" on="0"/>
        <pt x="55" y="456" on="0"/>
        <pt x="106" y="507" on="0"/>
        <pt x="180" y="507" on="0"/>
        <pt x="231" y="456" on="0"/>
        <pt x="231" y="382" on="0"/>
        <pt x="180" y="331" on="0"/>
        <pt x="106" y="331" on="0"/>
      </contour>
    </TTGlyph>
    <TTGlyph name="comma" xMin="-7" yMin="-127" xMax="255" yMax="134">
      <contour>
        <pt x="-7" y="-127" on="1"/>
        <pt x="94" y="134" on="1"/>
        <pt x="255" y="134" on="1"/>
        <pt x="119" y="-127" on="1"/>
      </contour>
    </TTGlyph>
    <TTGlyph name="commaaccent" xMin="139" yMin="-262" xMax="361" yMax="-51">
      <contour>
        <pt x="139" y="-262" on="1"/>
        <pt x="210" y="-51" on="1"/>
        <pt x="361" y="-51" on="1"/>
        <pt x="245" y="-262" on="1"/>
      </contour>
    </TTGlyph>
    <TTGlyph name="copyright" xMin="35" yMin="-8" xMax="726" yMax="683">
      <contour>
        <pt x="336" y="302" on="0"/>
        <pt x="377" y="263" on="0"/>
        <pt x="448" y="263" on="0"/>
        <pt x="487" y="287" on="1"/>
        <pt x="487" y="192" on="1"/>
        <pt x="448" y="171" on="0"/>
        <pt x="322" y="171" on="0"/>
        <pt x="221" y="263" on="0"/>
        <pt x="222" y="412" on="0"/>
        <pt x="317" y="506" on="0"/>
        <pt x="397" y="506" on="1"/>
        <pt x="446" y="506" on="0"/>
        <pt x="487" y="484" on="1"/>
        <pt x="487" y="390" on="1"/>
        <pt x="452" y="412" on="0"/>
        <pt x="379" y="412" on="0"/>
        <pt x="335" y="374" on="0"/>
        <pt x="334" y="337" on="1"/>
      </contour>
      <contour>
        <pt x="273" y="585" on="0"/>
        <pt x="132" y="444" on="0"/>
        <pt x="132" y="228" on="0"/>
        <pt x="273" y="88" on="0"/>
        <pt x="488" y="88" on="0"/>
        <pt x="629" y="228" on="0"/>
        <pt x="629" y="444" on="0"/>
        <pt x="488" y="585" on="0"/>
      </contour>
      <contour>
        <pt x="35" y="195" on="0"/>
        <pt x="35" y="481" on="0"/>
        <pt x="238" y="683" on="0"/>
        <pt x="524" y="683" on="0"/>
        <pt x="726" y="480" on="0"/>
        <pt x="726" y="195" on="0"/>
        <pt x="524" y="-8" on="0"/>
        <pt x="238" y="-8" on="0"/>
      </contour>
    </TTGlyph>
    <TTGlyph name="currency" xMin="28" yMin="60" xMax="543" yMax="560">
      <contour>
        <pt x="180" y="355" on="0"/>
        <pt x="180" y="267" on="0"/>
        <pt x="240" y="204" on="0"/>
        <pt x="332" y="204" on="0"/>
        <pt x="392" y="267" on="0"/>
        <pt x="392" y="355" on="0"/>
        <pt x="332" y="418" on="0"/>
        <pt x="240" y="418" on="0"/>
      </contour>
      <contour>
        <pt x="87" y="199" on="1"/>
        <pt x="58" y="251" on="0"/>
        <pt x="58" y="370" on="0"/>
        <pt x="86" y="421" on="1"/>
        <pt x="28" y="478" on="1"/>
        <pt x="113" y="560" on="1"/>
        <pt x="171" y="503" on="1"/>
        <pt x="222" y="531" on="0"/>
        <pt x="348" y="531" on="0"/>
        <pt x="400" y="504" on="1"/>
        <pt x="458" y="560" on="1"/>
        <pt x="543" y="478" on="1"/>
        <pt x="485" y="421" on="1"/>
        <pt x="514" y="368" on="0"/>
        <pt x="514" y="252" on="0"/>
        <pt x="484" y="199" on="1"/>
        <pt x="543" y="142" on="1"/>
        <pt x="458" y="60" on="1"/>
        <pt x="399" y="116" on="1"/>
        <pt x="349" y="90" on="0"/>
        <pt x="222" y="90" on="0"/>
        <pt x="171" y="117" on="1"/>
        <pt x="113" y="60" on="1"/>
        <pt x="28" y="142" on="1"/>
      </contour>
    </TTGlyph>
    <TTGlyph name="d" xMin="35" yMin="-6" xMax="551" yMax="707">
      <contour>
        <pt x="405" y="707" on="1"/>
        <pt x="551" y="707" on="1"/>
        <pt x="551" y="0" on="1"/>
        <pt x="405" y="0" on="1"/>
        <pt x="405" y="79" on="1"/>
        <pt x="354" y="-6" on="0"/>
        <pt x="154" y="-6" on="0"/>
        <pt x="35" y="148" on="0"/>
        <pt x="35" y="375" on="0"/>
        <pt x="159" y="513" on="0"/>
        <pt x="353" y="513" on="0"/>
        <pt x="405" y="429" on="1"/>
      </contour>
      <contour>
        <pt x="183" y="191" on="0"/>
        <pt x="247" y="116" on="0"/>
        <pt x="343" y="116" on="0"/>
        <pt x="405" y="194" on="0"/>
        <pt x="405" y="322" on="0"/>
        <pt x="338" y="392" on="0"/>
        <pt x="246" y="392" on="0"/>
        <pt x="183" y="318" on="0"/>
      </contour>
    </TTGlyph>
    <TTGlyph name="dagger" xMin="30" yMin="0" xMax="529" yMax="674">
      <contour>
        <pt x="529" y="523" on="1"/>
        <pt x="529" y="405" on="1"/>
        <pt x="344" y="405" on="1"/>
        <pt x="344" y="0" on="1"/>
        <pt x="214" y="0" on="1"/>
        <pt x="214" y="405" on="1"/>
        <pt x="30" y="405" on="1"/>
        <pt x="30" y="523" on="1"/>
        <pt x="214" y="523" on="1"/>
        <pt x="214" y="674" on="1"/>
        <pt x="344" y="674" on="1"/>
        <pt x="344" y="523" on="1"/>
      </contour>
    </TTGlyph>
    <TTGlyph name="daggerdbl" xMin="45" yMin="0" xMax="544" yMax="674">
      <contour>
        <pt x="544" y="405" on="1"/>
        <pt x="359" y="405" on="1"/>
        <pt x="359" y="269" on="1"/>
        <pt x="544" y="269" on="1"/>
        <pt x="544" y="151" on="1"/>
        <pt x="359" y="151" on="1"/>
        <pt x="359" y="0" on="1"/>
        <pt x="229" y="0" on="1"/>
        <pt x="229" y="151" on="1"/>
        <pt x="45" y="151" on="1"/>
        <pt x="45" y="269" on="1"/>
        <pt x="229" y="269" on="1"/>
        <pt x="229" y="405" on="1"/>
        <pt x="45" y="405" on="1"/>
        <pt x="45" y="523" on="1"/>
        <pt x="229" y="523" on="1"/>
        <pt x="229" y="674" on="1"/>
        <pt x="359" y="674" on="1"/>
        <pt x="359" y="523" on="1"/>
        <pt x="544" y="523" on="1"/>
      </contour>
    </TTGlyph>
    <TTGlyph name="dcaron" xMin="35" yMin="-6" xMax="821" yMax="708">
      <contour>
        <pt x="670" y="708" on="1"/>
        <pt x="821" y="708" on="1"/>
        <pt x="705" y="497" on="1"/>
        <pt x="599" y="497" on="1"/>
      </contour>
      <contour>
        <pt x="405" y="707" on="1"/>
        <pt x="551" y="707" on="1"/>
        <pt x="551" y="0" on="1"/>
        <pt x="405" y="0" on="1"/>
        <pt x="405" y="79" on="1"/>
        <pt x="354" y="-6" on="0"/>
        <pt x="154" y="-6" on="0"/>
        <pt x="35" y="148" on="0"/>
        <pt x="35" y="375" on="0"/>
        <pt x="159" y="513" on="0"/>
        <pt x="353" y="513" on="0"/>
        <pt x="405" y="429" on="1"/>
      </contour>
      <contour>
        <pt x="183" y="191" on="0"/>
        <pt x="247" y="116" on="0"/>
        <pt x="343" y="116" on="0"/>
        <pt x="405" y="194" on="0"/>
        <pt x="405" y="322" on="0"/>
        <pt x="338" y="392" on="0"/>
        <pt x="246" y="392" on="0"/>
        <pt x="183" y="318" on="0"/>
      </contour>
    </TTGlyph>
    <TTGlyph name="dcroat" xMin="35" yMin="-6" xMax="608" yMax="707">
      <contour>
        <pt x="608" y="646" on="1"/>
        <pt x="608" y="564" on="1"/>
        <pt x="551" y="564" on="1"/>
        <pt x="551" y="0" on="1"/>
        <pt x="405" y="0" on="1"/>
        <pt x="405" y="79" on="1"/>
        <pt x="354" y="-6" on="0"/>
        <pt x="154" y="-6" on="0"/>
        <pt x="35" y="148" on="0"/>
        <pt x="35" y="375" on="0"/>
        <pt x="159" y="513" on="0"/>
        <pt x="353" y="513" on="0"/>
        <pt x="405" y="429" on="1"/>
        <pt x="405" y="564" on="1"/>
        <pt x="254" y="564" on="1"/>
        <pt x="254" y="646" on="1"/>
        <pt x="405" y="646" on="1"/>
        <pt x="405" y="707" on="1"/>
        <pt x="551" y="707" on="1"/>
        <pt x="551" y="646" on="1"/>
      </contour>
      <contour>
        <pt x="183" y="191" on="0"/>
        <pt x="247" y="116" on="0"/>
        <pt x="343" y="116" on="0"/>
        <pt x="405" y="194" on="0"/>
        <pt x="405" y="322" on="0"/>
        <pt x="338" y="392" on="0"/>
        <pt x="246" y="392" on="0"/>
        <pt x="183" y="318" on="0"/>
      </contour>
    </TTGlyph>
    <TTGlyph name="degree" xMin="30" yMin="305" xMax="410" yMax="685">
      <contour>
        <pt x="132" y="531" on="0"/>
        <pt x="132" y="459" on="0"/>
        <pt x="184" y="407" on="0"/>
        <pt x="256" y="407" on="0"/>
        <pt x="308" y="459" on="0"/>
        <pt x="308" y="531" on="0"/>
        <pt x="256" y="583" on="0"/>
        <pt x="184" y="583" on="0"/>
      </contour>
      <contour>
        <pt x="30" y="416" on="0"/>
        <pt x="30" y="574" on="0"/>
        <pt x="141" y="685" on="0"/>
        <pt x="299" y="685" on="0"/>
        <pt x="410" y="574" on="0"/>
        <pt x="410" y="416" on="0"/>
        <pt x="299" y="305" on="0"/>
        <pt x="141" y="305" on="0"/>
      </contour>
    </TTGlyph>
    <TTGlyph name="dieresis" xMin="33" yMin="628" xMax="467" yMax="791">
      <contour>
        <pt x="348" y="628" on="0"/>
        <pt x="301" y="675" on="0"/>
        <pt x="301" y="744" on="0"/>
        <pt x="348" y="791" on="0"/>
        <pt x="419" y="791" on="0"/>
        <pt x="467" y="744" on="0"/>
        <pt x="467" y="675" on="0"/>
        <pt x="419" y="628" on="0"/>
      </contour>
      <contour>
        <pt x="80" y="628" on="0"/>
        <pt x="33" y="675" on="0"/>
        <pt x="33" y="744" on="0"/>
        <pt x="80" y="791" on="0"/>
        <pt x="151" y="791" on="0"/>
        <pt x="198" y="744" on="0"/>
        <pt x="198" y="675" on="0"/>
        <pt x="151" y="628" on="0"/>
      </contour>
    </TTGlyph>
    <TTGlyph name="divide" xMin="45" yMin="88" xMax="544" yMax="592">
      <contour>
        <pt x="214" y="133" on="0"/>
        <pt x="214" y="195" on="0"/>
        <pt x="259" y="240" on="0"/>
        <pt x="321" y="240" on="0"/>
        <pt x="366" y="195" on="0"/>
        <pt x="366" y="133" on="0"/>
        <pt x="321" y="88" on="0"/>
        <pt x="259" y="88" on="0"/>
      </contour>
      <contour>
        <pt x="45" y="275" on="1"/>
        <pt x="45" y="405" on="1"/>
        <pt x="544" y="405" on="1"/>
        <pt x="544" y="275" on="1"/>
      </contour>
      <contour>
        <pt x="214" y="485" on="0"/>
        <pt x="214" y="547" on="0"/>
        <pt x="259" y="592" on="0"/>
        <pt x="321" y="592" on="0"/>
        <pt x="366" y="547" on="0"/>
        <pt x="366" y="485" on="0"/>
        <pt x="321" y="440" on="0"/>
        <pt x="259" y="440" on="0"/>
      </contour>
    </TTGlyph>
    <TTGlyph name="dollar" xMin="34" yMin="-118" xMax="479" yMax="790">
      <contour>
        <pt x="281" y="547" on="1"/>
        <pt x="242" y="547" on="0"/>
        <pt x="201" y="515" on="0"/>
        <pt x="201" y="465" on="0"/>
        <pt x="251" y="426" on="0"/>
        <pt x="332" y="390" on="0"/>
        <pt x="373" y="369" on="0"/>
        <pt x="426" y="332" on="0"/>
        <pt x="442" y="312" on="1"/>
        <pt x="479" y="262" on="0"/>
        <pt x="479" y="120" on="0"/>
        <pt x="382" y="14" on="0"/>
        <pt x="299" y="-2" on="1"/>
        <pt x="299" y="-118" on="1"/>
        <pt x="178" y="-118" on="1"/>
        <pt x="178" y="-5" on="1"/>
        <pt x="95" y="3" on="0"/>
        <pt x="40" y="34" on="1"/>
        <pt x="40" y="189" on="1"/>
        <pt x="131" y="123" on="0"/>
        <pt x="234" y="123" on="1"/>
        <pt x="269" y="123" on="0"/>
        <pt x="315" y="160" on="0"/>
        <pt x="315" y="190" on="1"/>
        <pt x="315" y="212" on="0"/>
        <pt x="293" y="234" on="0"/>
        <pt x="278" y="245" on="0"/>
        <pt x="249" y="260" on="0"/>
        <pt x="239" y="265" on="1"/>
        <pt x="208" y="281" on="0"/>
        <pt x="178" y="293" on="1"/>
        <pt x="113" y="323" on="0"/>
        <pt x="34" y="411" on="0"/>
        <pt x="34" y="561" on="0"/>
        <pt x="136" y="664" on="0"/>
        <pt x="227" y="675" on="1"/>
        <pt x="227" y="790" on="1"/>
        <pt x="349" y="790" on="1"/>
        <pt x="349" y="673" on="1"/>
        <pt x="402" y="665" on="0"/>
        <pt x="449" y="644" on="1"/>
        <pt x="449" y="500" on="1"/>
        <pt x="368" y="547" on="0"/>
      </contour>
    </TTGlyph>
    <TTGlyph name="dotaccent" xMin="167" yMin="629" xMax="332" yMax="792">
      <contour>
        <pt x="214" y="629" on="0"/>
        <pt x="167" y="676" on="0"/>
        <pt x="167" y="745" on="0"/>
        <pt x="214" y="792" on="0"/>
        <pt x="285" y="792" on="0"/>
        <pt x="332" y="745" on="0"/>
        <pt x="332" y="676" on="0"/>
        <pt x="285" y="629" on="0"/>
      </contour>
    </TTGlyph>
    <TTGlyph name="dotlessi" xMin="65" yMin="0" xMax="211" yMax="507">
      <contour>
        <pt x="65" y="0" on="1"/>
        <pt x="65" y="507" on="1"/>
        <pt x="211" y="507" on="1"/>
        <pt x="211" y="0" on="1"/>
      </contour>
    </TTGlyph>
    <TTGlyph name="dvMatraAA_Candrabindu" xMin="-90" yMin="0" xMax="380" yMax="1047">
      <contour>
        <pt x="-30" y="559" on="1"/>
        <pt x="-30" y="671" on="1"/>
        <pt x="311" y="671" on="1"/>
        <pt x="311" y="559" on="1"/>
        <pt x="211" y="559" on="1"/>
        <pt x="211" y="0" on="1"/>
        <pt x="70" y="0" on="1"/>
        <pt x="70" y="559" on="1"/>
      </contour>
      <contour>
        <pt x="76" y="948" on="0"/>
        <pt x="76" y="1006" on="0"/>
        <pt x="117" y="1047" on="0"/>
        <pt x="175" y="1047" on="0"/>
        <pt x="216" y="1006" on="0"/>
        <pt x="216" y="948" on="0"/>
        <pt x="175" y="907" on="0"/>
        <pt x="117" y="907" on="0"/>
      </contour>
      <contour>
        <pt x="380" y="835" on="0"/>
        <pt x="244" y="733" on="0"/>
        <pt x="39" y="733" on="0"/>
        <pt x="-90" y="830" on="0"/>
        <pt x="-90" y="922" on="1"/>
        <pt x="46" y="922" on="1"/>
        <pt x="46" y="883" on="0"/>
        <pt x="101" y="833" on="0"/>
        <pt x="191" y="833" on="0"/>
        <pt x="244" y="883" on="0"/>
        <pt x="244" y="922" on="1"/>
        <pt x="380" y="922" on="1"/>
      </contour>
    </TTGlyph>
    <TTGlyph name="dvMatraAI_Candrabindu" xMin="-477" yMin="664" xMax="347" yMax="1047">
      <contour>
        <pt x="211" y="922" on="1"/>
        <pt x="347" y="922" on="1"/>
        <pt x="347" y="835" on="0"/>
        <pt x="211" y="733" on="0"/>
        <pt x="6" y="733" on="0"/>
        <pt x="-123" y="830" on="0"/>
        <pt x="-123" y="922" on="1"/>
        <pt x="13" y="922" on="1"/>
        <pt x="13" y="883" on="0"/>
        <pt x="68" y="833" on="0"/>
        <pt x="158" y="833" on="0"/>
        <pt x="211" y="883" on="0"/>
      </contour>
      <contour>
        <pt x="-394" y="984" on="1"/>
        <pt x="-268" y="984" on="0"/>
        <pt x="-194" y="862" on="1"/>
        <pt x="-74" y="664" on="1"/>
        <pt x="-235" y="664" on="1"/>
        <pt x="-351" y="726" on="0"/>
        <pt x="-421" y="726" on="1"/>
        <pt x="-451" y="726" on="0"/>
        <pt x="-477" y="719" on="1"/>
        <pt x="-477" y="819" on="1"/>
        <pt x="-446" y="828" on="0"/>
        <pt x="-364" y="828" on="0"/>
        <pt x="-273" y="781" on="0"/>
        <pt x="-179" y="701" on="1"/>
        <pt x="-274" y="813" on="1"/>
        <pt x="-304" y="848" on="0"/>
        <pt x="-361" y="880" on="0"/>
        <pt x="-444" y="880" on="0"/>
        <pt x="-477" y="870" on="1"/>
        <pt x="-477" y="975" on="1"/>
        <pt x="-450" y="984" on="0"/>
      </contour>
      <contour>
        <pt x="142" y="907" on="0"/>
        <pt x="84" y="907" on="0"/>
        <pt x="43" y="948" on="0"/>
        <pt x="43" y="1006" on="0"/>
        <pt x="84" y="1047" on="0"/>
        <pt x="142" y="1047" on="0"/>
        <pt x="183" y="1006" on="0"/>
        <pt x="183" y="948" on="0"/>
      </contour>
    </TTGlyph>
    <TTGlyph name="dvMatraE_Candrabindu" xMin="-427" yMin="664" xMax="338" yMax="1047">
      <contour>
        <pt x="34" y="948" on="0"/>
        <pt x="34" y="1006" on="0"/>
        <pt x="75" y="1047" on="0"/>
        <pt x="133" y="1047" on="0"/>
        <pt x="174" y="1006" on="0"/>
        <pt x="174" y="948" on="0"/>
        <pt x="133" y="907" on="0"/>
        <pt x="75" y="907" on="0"/>
      </contour>
      <contour>
        <pt x="338" y="835" on="0"/>
        <pt x="202" y="733" on="0"/>
        <pt x="-3" y="733" on="0"/>
        <pt x="-132" y="830" on="0"/>
        <pt x="-132" y="922" on="1"/>
        <pt x="4" y="922" on="1"/>
        <pt x="4" y="883" on="0"/>
        <pt x="59" y="833" on="0"/>
        <pt x="149" y="833" on="0"/>
        <pt x="202" y="883" on="0"/>
        <pt x="202" y="922" on="1"/>
        <pt x="338" y="922" on="1"/>
      </contour>
      <contour>
        <pt x="-363" y="810" on="1"/>
        <pt x="-394" y="810" on="0"/>
        <pt x="-427" y="800" on="1"/>
        <pt x="-427" y="918" on="1"/>
        <pt x="-391" y="925" on="0"/>
        <pt x="-340" y="924" on="1"/>
        <pt x="-233" y="923" on="0"/>
        <pt x="-174" y="833" on="1"/>
        <pt x="-64" y="664" on="1"/>
        <pt x="-215" y="664" on="1"/>
        <pt x="-287" y="769" on="1"/>
        <pt x="-314" y="810" on="0"/>
      </contour>
    </TTGlyph>
    <TTGlyph name="dvSHA_MatraVocalicR" xMin="0" yMin="-271" xMax="800" yMax="681">
      <contour>
        <pt x="700" y="559" on="1"/>
        <pt x="700" y="-36" on="1"/>
        <pt x="648" y="-36" on="0"/>
        <pt x="590" y="-74" on="0"/>
        <pt x="590" y="-104" on="1"/>
        <pt x="590" y="-163" on="0"/>
        <pt x="726" y="-163" on="0"/>
        <pt x="772" y="-136" on="1"/>
        <pt x="772" y="-245" on="1"/>
        <pt x="714" y="-271" on="0"/>
        <pt x="558" y="-271" on="0"/>
        <pt x="449" y="-190" on="0"/>
        <pt x="449" y="-115" on="1"/>
        <pt x="449" y="-70" on="0"/>
        <pt x="506" y="5" on="0"/>
        <pt x="558" y="20" on="1"/>
        <pt x="558" y="189" on="1"/>
        <pt x="418" y="223" on="0"/>
        <pt x="327" y="260" on="1"/>
        <pt x="112" y="128" on="1"/>
        <pt x="0" y="212" on="1"/>
        <pt x="199" y="329" on="1"/>
        <pt x="96" y="404" on="0"/>
        <pt x="96" y="510" on="1"/>
        <pt x="96" y="581" on="0"/>
        <pt x="205" y="681" on="0"/>
        <pt x="380" y="681" on="0"/>
        <pt x="494" y="583" on="0"/>
        <pt x="494" y="415" on="0"/>
        <pt x="434" y="351" on="1"/>
        <pt x="470" y="338" on="0"/>
        <pt x="558" y="312" on="1"/>
        <pt x="558" y="671" on="1"/>
        <pt x="800" y="671" on="1"/>
        <pt x="800" y="559" on="1"/>
      </contour>
      <contour>
        <pt x="354" y="525" on="0"/>
        <pt x="323" y="566" on="0"/>
        <pt x="268" y="566" on="0"/>
        <pt x="236" y="533" on="0"/>
        <pt x="236" y="506" on="1"/>
        <pt x="236" y="451" on="0"/>
        <pt x="308" y="407" on="1"/>
        <pt x="354" y="442" on="0"/>
        <pt x="354" y="496" on="1"/>
      </contour>
    </TTGlyph>
    <TTGlyph name="e" xMin="35" yMin="-5" xMax="489" yMax="512">
      <contour>
        <pt x="458" y="29" on="1"/>
        <pt x="406" y="-5" on="0"/>
        <pt x="174" y="-5" on="0"/>
        <pt x="35" y="140" on="0"/>
        <pt x="35" y="375" on="0"/>
        <pt x="170" y="512" on="0"/>
        <pt x="371" y="512" on="0"/>
        <pt x="489" y="393" on="0"/>
        <pt x="489" y="275" on="1"/>
        <pt x="489" y="252" on="0"/>
        <pt x="481" y="196" on="1"/>
        <pt x="183" y="196" on="1"/>
        <pt x="198" y="154" on="0"/>
        <pt x="272" y="108" on="0"/>
        <pt x="324" y="108" on="1"/>
        <pt x="401" y="108" on="0"/>
        <pt x="458" y="151" on="1"/>
      </contour>
      <contour>
        <pt x="353" y="300" on="1"/>
        <pt x="353" y="312" on="1"/>
        <pt x="346" y="401" on="0"/>
        <pt x="275" y="401" on="1"/>
        <pt x="240" y="401" on="0"/>
        <pt x="186" y="350" on="0"/>
        <pt x="177" y="300" on="1"/>
      </contour>
    </TTGlyph>
    <TTGlyph name="eacute" xMin="35" yMin="-5" xMax="489" yMax="730">
      <contour>
        <pt x="458" y="29" on="1"/>
        <pt x="406" y="-5" on="0"/>
        <pt x="174" y="-5" on="0"/>
        <pt x="35" y="140" on="0"/>
        <pt x="35" y="375" on="0"/>
        <pt x="170" y="512" on="0"/>
        <pt x="371" y="512" on="0"/>
        <pt x="489" y="393" on="0"/>
        <pt x="489" y="275" on="1"/>
        <pt x="489" y="252" on="0"/>
        <pt x="481" y="196" on="1"/>
        <pt x="183" y="196" on="1"/>
        <pt x="198" y="154" on="0"/>
        <pt x="272" y="108" on="0"/>
        <pt x="324" y="108" on="1"/>
        <pt x="401" y="108" on="0"/>
        <pt x="458" y="151" on="1"/>
      </contour>
      <contour>
        <pt x="353" y="300" on="1"/>
        <pt x="353" y="312" on="1"/>
        <pt x="346" y="401" on="0"/>
        <pt x="275" y="401" on="1"/>
        <pt x="240" y="401" on="0"/>
        <pt x="186" y="350" on="0"/>
        <pt x="177" y="300" on="1"/>
      </contour>
      <contour>
        <pt x="457" y="730" on="1"/>
        <pt x="346" y="553" on="1"/>
        <pt x="225" y="553" on="1"/>
        <pt x="311" y="730" on="1"/>
      </contour>
    </TTGlyph>
    <TTGlyph name="ebreve" xMin="35" yMin="-5" xMax="489" yMax="731">
      <contour>
        <pt x="458" y="29" on="1"/>
        <pt x="406" y="-5" on="0"/>
        <pt x="174" y="-5" on="0"/>
        <pt x="35" y="140" on="0"/>
        <pt x="35" y="375" on="0"/>
        <pt x="170" y="512" on="0"/>
        <pt x="371" y="512" on="0"/>
        <pt x="489" y="393" on="0"/>
        <pt x="489" y="275" on="1"/>
        <pt x="489" y="252" on="0"/>
        <pt x="481" y="196" on="1"/>
        <pt x="183" y="196" on="1"/>
        <pt x="198" y="154" on="0"/>
        <pt x="272" y="108" on="0"/>
        <pt x="324" y="108" on="1"/>
        <pt x="401" y="108" on="0"/>
        <pt x="458" y="151" on="1"/>
      </contour>
      <contour>
        <pt x="353" y="300" on="1"/>
        <pt x="353" y="312" on="1"/>
        <pt x="346" y="401" on="0"/>
        <pt x="275" y="401" on="1"/>
        <pt x="240" y="401" on="0"/>
        <pt x="186" y="350" on="0"/>
        <pt x="177" y="300" on="1"/>
      </contour>
      <contour>
        <pt x="356" y="731" on="1"/>
        <pt x="468" y="731" on="1"/>
        <pt x="468" y="638" on="0"/>
        <pt x="359" y="550" on="0"/>
        <pt x="181" y="550" on="0"/>
        <pt x="72" y="638" on="0"/>
        <pt x="72" y="731" on="1"/>
        <pt x="184" y="731" on="1"/>
        <pt x="184" y="689" on="0"/>
        <pt x="231" y="642" on="0"/>
        <pt x="309" y="642" on="0"/>
        <pt x="356" y="689" on="0"/>
      </contour>
    </TTGlyph>
    <TTGlyph name="ecaron" xMin="35" yMin="-5" xMax="490" yMax="730">
      <contour>
        <pt x="458" y="29" on="1"/>
        <pt x="406" y="-5" on="0"/>
        <pt x="174" y="-5" on="0"/>
        <pt x="35" y="140" on="0"/>
        <pt x="35" y="375" on="0"/>
        <pt x="170" y="512" on="0"/>
        <pt x="371" y="512" on="0"/>
        <pt x="489" y="393" on="0"/>
        <pt x="489" y="275" on="1"/>
        <pt x="489" y="252" on="0"/>
        <pt x="481" y="196" on="1"/>
        <pt x="183" y="196" on="1"/>
        <pt x="198" y="154" on="0"/>
        <pt x="272" y="108" on="0"/>
        <pt x="324" y="108" on="1"/>
        <pt x="401" y="108" on="0"/>
        <pt x="458" y="151" on="1"/>
      </contour>
      <contour>
        <pt x="353" y="300" on="1"/>
        <pt x="353" y="312" on="1"/>
        <pt x="346" y="401" on="0"/>
        <pt x="275" y="401" on="1"/>
        <pt x="240" y="401" on="0"/>
        <pt x="186" y="350" on="0"/>
        <pt x="177" y="300" on="1"/>
      </contour>
      <contour>
        <pt x="334" y="553" on="1"/>
        <pt x="210" y="553" on="1"/>
        <pt x="54" y="730" on="1"/>
        <pt x="193" y="730" on="1"/>
        <pt x="272" y="634" on="1"/>
        <pt x="351" y="730" on="1"/>
        <pt x="490" y="730" on="1"/>
      </contour>
    </TTGlyph>
    <TTGlyph name="ecircumflex" xMin="35" yMin="-5" xMax="489" yMax="731">
      <contour>
        <pt x="458" y="29" on="1"/>
        <pt x="406" y="-5" on="0"/>
        <pt x="174" y="-5" on="0"/>
        <pt x="35" y="140" on="0"/>
        <pt x="35" y="375" on="0"/>
        <pt x="170" y="512" on="0"/>
        <pt x="371" y="512" on="0"/>
        <pt x="489" y="393" on="0"/>
        <pt x="489" y="275" on="1"/>
        <pt x="489" y="252" on="0"/>
        <pt x="481" y="196" on="1"/>
        <pt x="183" y="196" on="1"/>
        <pt x="198" y="154" on="0"/>
        <pt x="272" y="108" on="0"/>
        <pt x="324" y="108" on="1"/>
        <pt x="401" y="108" on="0"/>
        <pt x="458" y="151" on="1"/>
      </contour>
      <contour>
        <pt x="353" y="300" on="1"/>
        <pt x="353" y="312" on="1"/>
        <pt x="346" y="401" on="0"/>
        <pt x="275" y="401" on="1"/>
        <pt x="240" y="401" on="0"/>
        <pt x="186" y="350" on="0"/>
        <pt x="177" y="300" on="1"/>
      </contour>
      <contour>
        <pt x="269" y="650" on="1"/>
        <pt x="190" y="554" on="1"/>
        <pt x="51" y="554" on="1"/>
        <pt x="207" y="731" on="1"/>
        <pt x="331" y="731" on="1"/>
        <pt x="487" y="554" on="1"/>
        <pt x="348" y="554" on="1"/>
      </contour>
    </TTGlyph>
    <TTGlyph name="edieresis" xMin="35" yMin="-5" xMax="501" yMax="724">
      <contour>
        <pt x="458" y="29" on="1"/>
        <pt x="406" y="-5" on="0"/>
        <pt x="174" y="-5" on="0"/>
        <pt x="35" y="140" on="0"/>
        <pt x="35" y="375" on="0"/>
        <pt x="170" y="512" on="0"/>
        <pt x="371" y="512" on="0"/>
        <pt x="489" y="393" on="0"/>
        <pt x="489" y="275" on="1"/>
        <pt x="489" y="252" on="0"/>
        <pt x="481" y="196" on="1"/>
        <pt x="183" y="196" on="1"/>
        <pt x="198" y="154" on="0"/>
        <pt x="272" y="108" on="0"/>
        <pt x="324" y="108" on="1"/>
        <pt x="401" y="108" on="0"/>
        <pt x="458" y="151" on="1"/>
      </contour>
      <contour>
        <pt x="353" y="300" on="1"/>
        <pt x="353" y="312" on="1"/>
        <pt x="346" y="401" on="0"/>
        <pt x="275" y="401" on="1"/>
        <pt x="240" y="401" on="0"/>
        <pt x="186" y="350" on="0"/>
        <pt x="177" y="300" on="1"/>
      </contour>
      <contour>
        <pt x="232" y="608" on="0"/>
        <pt x="185" y="561" on="0"/>
        <pt x="114" y="561" on="0"/>
        <pt x="67" y="608" on="0"/>
        <pt x="67" y="677" on="0"/>
        <pt x="114" y="724" on="0"/>
        <pt x="185" y="724" on="0"/>
        <pt x="232" y="677" on="0"/>
      </contour>
      <contour>
        <pt x="501" y="608" on="0"/>
        <pt x="453" y="561" on="0"/>
        <pt x="382" y="561" on="0"/>
        <pt x="335" y="608" on="0"/>
        <pt x="335" y="677" on="0"/>
        <pt x="382" y="724" on="0"/>
        <pt x="453" y="724" on="0"/>
        <pt x="501" y="677" on="0"/>
      </contour>
    </TTGlyph>
    <TTGlyph name="edotaccent" xMin="35" yMin="-5" xMax="489" yMax="724">
      <contour>
        <pt x="458" y="29" on="1"/>
        <pt x="406" y="-5" on="0"/>
        <pt x="174" y="-5" on="0"/>
        <pt x="35" y="140" on="0"/>
        <pt x="35" y="375" on="0"/>
        <pt x="170" y="512" on="0"/>
        <pt x="371" y="512" on="0"/>
        <pt x="489" y="393" on="0"/>
        <pt x="489" y="275" on="1"/>
        <pt x="489" y="252" on="0"/>
        <pt x="481" y="196" on="1"/>
        <pt x="183" y="196" on="1"/>
        <pt x="198" y="154" on="0"/>
        <pt x="272" y="108" on="0"/>
        <pt x="324" y="108" on="1"/>
        <pt x="401" y="108" on="0"/>
        <pt x="458" y="151" on="1"/>
      </contour>
      <contour>
        <pt x="353" y="300" on="1"/>
        <pt x="353" y="312" on="1"/>
        <pt x="346" y="401" on="0"/>
        <pt x="275" y="401" on="1"/>
        <pt x="240" y="401" on="0"/>
        <pt x="186" y="350" on="0"/>
        <pt x="177" y="300" on="1"/>
      </contour>
      <contour>
        <pt x="362" y="608" on="0"/>
        <pt x="315" y="561" on="0"/>
        <pt x="244" y="561" on="0"/>
        <pt x="197" y="608" on="0"/>
        <pt x="197" y="677" on="0"/>
        <pt x="244" y="724" on="0"/>
        <pt x="315" y="724" on="0"/>
        <pt x="362" y="677" on="0"/>
      </contour>
    </TTGlyph>
    <TTGlyph name="egrave" xMin="35" yMin="-5" xMax="489" yMax="731">
      <contour>
        <pt x="458" y="29" on="1"/>
        <pt x="406" y="-5" on="0"/>
        <pt x="174" y="-5" on="0"/>
        <pt x="35" y="140" on="0"/>
        <pt x="35" y="375" on="0"/>
        <pt x="170" y="512" on="0"/>
        <pt x="371" y="512" on="0"/>
        <pt x="489" y="393" on="0"/>
        <pt x="489" y="275" on="1"/>
        <pt x="489" y="252" on="0"/>
        <pt x="481" y="196" on="1"/>
        <pt x="183" y="196" on="1"/>
        <pt x="198" y="154" on="0"/>
        <pt x="272" y="108" on="0"/>
        <pt x="324" y="108" on="1"/>
        <pt x="401" y="108" on="0"/>
        <pt x="458" y="151" on="1"/>
      </contour>
      <contour>
        <pt x="353" y="300" on="1"/>
        <pt x="353" y="312" on="1"/>
        <pt x="346" y="401" on="0"/>
        <pt x="275" y="401" on="1"/>
        <pt x="240" y="401" on="0"/>
        <pt x="186" y="350" on="0"/>
        <pt x="177" y="300" on="1"/>
      </contour>
      <contour>
        <pt x="336" y="554" on="1"/>
        <pt x="215" y="554" on="1"/>
        <pt x="104" y="731" on="1"/>
        <pt x="250" y="731" on="1"/>
      </contour>
    </TTGlyph>
    <TTGlyph name="eight" xMin="35" yMin="-10" xMax="510" yMax="666">
      <contour>
        <pt x="510" y="182" on="1"/>
        <pt x="510" y="96" on="0"/>
        <pt x="377" y="-10" on="0"/>
        <pt x="162" y="-10" on="0"/>
        <pt x="35" y="91" on="0"/>
        <pt x="35" y="177" on="1"/>
        <pt x="35" y="283" on="0"/>
        <pt x="130" y="330" on="1"/>
        <pt x="45" y="379" on="0"/>
        <pt x="45" y="563" on="0"/>
        <pt x="172" y="666" on="0"/>
        <pt x="372" y="666" on="0"/>
        <pt x="499" y="568" on="0"/>
        <pt x="499" y="381" on="0"/>
        <pt x="417" y="333" on="1"/>
        <pt x="510" y="290" on="0"/>
      </contour>
      <contour>
        <pt x="270" y="550" on="1"/>
        <pt x="230" y="550" on="0"/>
        <pt x="192" y="505" on="0"/>
        <pt x="192" y="435" on="0"/>
        <pt x="238" y="393" on="0"/>
        <pt x="307" y="393" on="0"/>
        <pt x="353" y="435" on="0"/>
        <pt x="353" y="473" on="1"/>
        <pt x="353" y="550" on="0"/>
      </contour>
      <contour>
        <pt x="181" y="150" on="0"/>
        <pt x="224" y="106" on="0"/>
        <pt x="317" y="106" on="0"/>
        <pt x="364" y="151" on="0"/>
        <pt x="364" y="219" on="0"/>
        <pt x="315" y="265" on="0"/>
        <pt x="226" y="265" on="0"/>
        <pt x="181" y="215" on="0"/>
      </contour>
    </TTGlyph>
    <TTGlyph name="ellipsis" xMin="60" yMin="-8" xMax="878" yMax="170">
      <contour>
        <pt x="700" y="44" on="0"/>
        <pt x="700" y="118" on="0"/>
        <pt x="752" y="170" on="0"/>
        <pt x="826" y="170" on="0"/>
        <pt x="878" y="118" on="0"/>
        <pt x="878" y="44" on="0"/>
        <pt x="826" y="-8" on="0"/>
        <pt x="752" y="-8" on="0"/>
      </contour>
      <contour>
        <pt x="380" y="44" on="0"/>
        <pt x="380" y="118" on="0"/>
        <pt x="432" y="170" on="0"/>
        <pt x="506" y="170" on="0"/>
        <pt x="558" y="118" on="0"/>
        <pt x="558" y="44" on="0"/>
        <pt x="506" y="-8" on="0"/>
        <pt x="432" y="-8" on="0"/>
      </contour>
      <contour>
        <pt x="60" y="44" on="0"/>
        <pt x="60" y="118" on="0"/>
        <pt x="112" y="170" on="0"/>
        <pt x="186" y="170" on="0"/>
        <pt x="238" y="118" on="0"/>
        <pt x="238" y="44" on="0"/>
        <pt x="186" y="-8" on="0"/>
        <pt x="112" y="-8" on="0"/>
      </contour>
    </TTGlyph>
    <TTGlyph name="emacron" xMin="35" yMin="-5" xMax="489" yMax="692">
      <contour>
        <pt x="458" y="29" on="1"/>
        <pt x="406" y="-5" on="0"/>
        <pt x="174" y="-5" on="0"/>
        <pt x="35" y="140" on="0"/>
        <pt x="35" y="375" on="0"/>
        <pt x="170" y="512" on="0"/>
        <pt x="371" y="512" on="0"/>
        <pt x="489" y="393" on="0"/>
        <pt x="489" y="275" on="1"/>
        <pt x="489" y="252" on="0"/>
        <pt x="481" y="196" on="1"/>
        <pt x="183" y="196" on="1"/>
        <pt x="198" y="154" on="0"/>
        <pt x="272" y="108" on="0"/>
        <pt x="324" y="108" on="1"/>
        <pt x="401" y="108" on="0"/>
        <pt x="458" y="151" on="1"/>
      </contour>
      <contour>
        <pt x="353" y="300" on="1"/>
        <pt x="353" y="312" on="1"/>
        <pt x="346" y="401" on="0"/>
        <pt x="275" y="401" on="1"/>
        <pt x="240" y="401" on="0"/>
        <pt x="186" y="350" on="0"/>
        <pt x="177" y="300" on="1"/>
      </contour>
      <contour>
        <pt x="448" y="692" on="1"/>
        <pt x="448" y="593" on="1"/>
        <pt x="92" y="593" on="1"/>
        <pt x="92" y="692" on="1"/>
      </contour>
    </TTGlyph>
    <TTGlyph name="emdash" xMin="45" yMin="218" xMax="791" yMax="325">
      <contour>
        <pt x="45" y="218" on="1"/>
        <pt x="45" y="325" on="1"/>
        <pt x="791" y="325" on="1"/>
        <pt x="791" y="218" on="1"/>
      </contour>
    </TTGlyph>
    <TTGlyph name="endash" xMin="45" yMin="215" xMax="510" yMax="322">
      <contour>
        <pt x="45" y="215" on="1"/>
        <pt x="45" y="322" on="1"/>
        <pt x="510" y="322" on="1"/>
        <pt x="510" y="215" on="1"/>
      </contour>
    </TTGlyph>
    <TTGlyph name="eng" xMin="60" yMin="-198" xMax="525" yMax="512">
      <contour>
        <pt x="206" y="507" on="1"/>
        <pt x="206" y="421" on="1"/>
        <pt x="225" y="463" on="0"/>
        <pt x="304" y="512" on="0"/>
        <pt x="359" y="512" on="1"/>
        <pt x="437" y="512" on="0"/>
        <pt x="525" y="419" on="0"/>
        <pt x="525" y="329" on="1"/>
        <pt x="525" y="-21" on="1"/>
        <pt x="525" y="-101" on="0"/>
        <pt x="435" y="-198" on="0"/>
        <pt x="350" y="-198" on="1"/>
        <pt x="315" y="-198" on="0"/>
        <pt x="271" y="-182" on="1"/>
        <pt x="271" y="-71" on="1"/>
        <pt x="304" y="-86" on="0"/>
        <pt x="328" y="-86" on="1"/>
        <pt x="379" y="-86" on="0"/>
        <pt x="379" y="-19" on="1"/>
        <pt x="379" y="302" on="1"/>
        <pt x="379" y="347" on="0"/>
        <pt x="337" y="394" on="0"/>
        <pt x="259" y="394" on="0"/>
        <pt x="206" y="331" on="0"/>
        <pt x="206" y="268" on="1"/>
        <pt x="206" y="0" on="1"/>
        <pt x="60" y="0" on="1"/>
        <pt x="60" y="507" on="1"/>
      </contour>
    </TTGlyph>
    <TTGlyph name="eogonek" xMin="35" yMin="-238" xMax="489" yMax="512">
      <contour>
        <pt x="457" y="-213" on="1"/>
        <pt x="409" y="-238" on="0"/>
        <pt x="278" y="-238" on="0"/>
        <pt x="211" y="-172" on="0"/>
        <pt x="211" y="-58" on="0"/>
        <pt x="263" y="-3" on="1"/>
        <pt x="154" y="7" on="0"/>
        <pt x="35" y="149" on="0"/>
        <pt x="35" y="375" on="0"/>
        <pt x="170" y="512" on="0"/>
        <pt x="371" y="512" on="0"/>
        <pt x="489" y="393" on="0"/>
        <pt x="489" y="275" on="1"/>
        <pt x="489" y="252" on="0"/>
        <pt x="481" y="196" on="1"/>
        <pt x="183" y="196" on="1"/>
        <pt x="198" y="154" on="0"/>
        <pt x="272" y="108" on="0"/>
        <pt x="324" y="108" on="1"/>
        <pt x="401" y="108" on="0"/>
        <pt x="458" y="151" on="1"/>
        <pt x="458" y="29" on="1"/>
        <pt x="451" y="24" on="0"/>
        <pt x="443" y="21" on="1"/>
        <pt x="327" y="-52" on="0"/>
        <pt x="327" y="-108" on="1"/>
        <pt x="327" y="-142" on="0"/>
        <pt x="414" y="-142" on="0"/>
        <pt x="457" y="-112" on="1"/>
      </contour>
      <contour>
        <pt x="353" y="300" on="1"/>
        <pt x="353" y="312" on="1"/>
        <pt x="346" y="401" on="0"/>
        <pt x="275" y="401" on="1"/>
        <pt x="240" y="401" on="0"/>
        <pt x="186" y="350" on="0"/>
        <pt x="177" y="300" on="1"/>
      </contour>
    </TTGlyph>
    <TTGlyph name="equal" xMin="45" yMin="166" xMax="544" yMax="514">
      <contour>
        <pt x="45" y="166" on="1"/>
        <pt x="45" y="286" on="1"/>
        <pt x="544" y="286" on="1"/>
        <pt x="544" y="166" on="1"/>
      </contour>
      <contour>
        <pt x="45" y="394" on="1"/>
        <pt x="45" y="514" on="1"/>
        <pt x="544" y="514" on="1"/>
        <pt x="544" y="394" on="1"/>
      </contour>
    </TTGlyph>
    <TTGlyph name="eth" xMin="35" yMin="-10" xMax="510" yMax="682">
      <contour>
        <pt x="510" y="289" on="1"/>
        <pt x="510" y="154" on="0"/>
        <pt x="386" y="-10" on="0"/>
        <pt x="159" y="-10" on="0"/>
        <pt x="35" y="114" on="0"/>
        <pt x="35" y="293" on="0"/>
        <pt x="142" y="402" on="0"/>
        <pt x="308" y="402" on="0"/>
        <pt x="362" y="351" on="1"/>
        <pt x="349" y="437" on="0"/>
        <pt x="300" y="512" on="1"/>
        <pt x="157" y="442" on="1"/>
        <pt x="157" y="523" on="1"/>
        <pt x="254" y="570" on="1"/>
        <pt x="204" y="624" on="0"/>
        <pt x="128" y="674" on="1"/>
        <pt x="312" y="674" on="1"/>
        <pt x="340" y="654" on="0"/>
        <pt x="369" y="627" on="1"/>
        <pt x="482" y="682" on="1"/>
        <pt x="482" y="601" on="1"/>
        <pt x="417" y="569" on="1"/>
        <pt x="462" y="506" on="0"/>
        <pt x="510" y="357" on="0"/>
      </contour>
      <contour>
        <pt x="229" y="120" on="0"/>
        <pt x="305" y="120" on="0"/>
        <pt x="355" y="170" on="0"/>
        <pt x="363" y="235" on="1"/>
        <pt x="321" y="279" on="0"/>
        <pt x="266" y="279" on="1"/>
        <pt x="227" y="279" on="0"/>
        <pt x="184" y="234" on="0"/>
        <pt x="184" y="161" on="0"/>
      </contour>
    </TTGlyph>
    <TTGlyph name="exclam" xMin="52" yMin="-8" xMax="234" yMax="674">
      <contour>
        <pt x="52" y="45" on="0"/>
        <pt x="52" y="121" on="0"/>
        <pt x="105" y="174" on="0"/>
        <pt x="181" y="174" on="0"/>
        <pt x="234" y="121" on="0"/>
        <pt x="234" y="45" on="0"/>
        <pt x="181" y="-8" on="0"/>
        <pt x="105" y="-8" on="0"/>
      </contour>
      <contour>
        <pt x="75" y="236" on="1"/>
        <pt x="75" y="674" on="1"/>
        <pt x="214" y="674" on="1"/>
        <pt x="214" y="236" on="1"/>
      </contour>
    </TTGlyph>
    <TTGlyph name="exclamdown" xMin="52" yMin="-165" xMax="234" yMax="517">
      <contour>
        <pt x="75" y="-165" on="1"/>
        <pt x="75" y="273" on="1"/>
        <pt x="214" y="273" on="1"/>
        <pt x="214" y="-165" on="1"/>
      </contour>
      <contour>
        <pt x="52" y="388" on="0"/>
        <pt x="52" y="464" on="0"/>
        <pt x="105" y="517" on="0"/>
        <pt x="181" y="517" on="0"/>
        <pt x="234" y="464" on="0"/>
        <pt x="234" y="388" on="0"/>
        <pt x="181" y="335" on="0"/>
        <pt x="105" y="335" on="0"/>
      </contour>
    </TTGlyph>
    <TTGlyph name="f" xMin="30" yMin="0" xMax="366" yMax="720">
      <contour>
        <pt x="366" y="592" on="1"/>
        <pt x="338" y="603" on="0"/>
        <pt x="308" y="603" on="1"/>
        <pt x="241" y="603" on="0"/>
        <pt x="241" y="526" on="1"/>
        <pt x="241" y="507" on="1"/>
        <pt x="336" y="507" on="1"/>
        <pt x="336" y="400" on="1"/>
        <pt x="241" y="400" on="1"/>
        <pt x="241" y="0" on="1"/>
        <pt x="96" y="0" on="1"/>
        <pt x="96" y="400" on="1"/>
        <pt x="30" y="400" on="1"/>
        <pt x="30" y="507" on="1"/>
        <pt x="96" y="507" on="1"/>
        <pt x="96" y="526" on="1"/>
        <pt x="96" y="618" on="0"/>
        <pt x="199" y="720" on="0"/>
        <pt x="290" y="720" on="1"/>
        <pt x="337" y="720" on="0"/>
        <pt x="366" y="710" on="1"/>
      </contour>
    </TTGlyph>
    <TTGlyph name="ff" xMin="30" yMin="0" xMax="656" yMax="720">
      <contour>
        <pt x="656" y="592" on="1"/>
        <pt x="629" y="603" on="0"/>
        <pt x="598" y="603" on="1"/>
        <pt x="531" y="603" on="0"/>
        <pt x="531" y="526" on="1"/>
        <pt x="531" y="507" on="1"/>
        <pt x="626" y="507" on="1"/>
        <pt x="626" y="400" on="1"/>
        <pt x="531" y="400" on="1"/>
        <pt x="531" y="0" on="1"/>
        <pt x="386" y="0" on="1"/>
        <pt x="386" y="400" on="1"/>
        <pt x="241" y="400" on="1"/>
        <pt x="241" y="0" on="1"/>
        <pt x="96" y="0" on="1"/>
        <pt x="96" y="400" on="1"/>
        <pt x="30" y="400" on="1"/>
        <pt x="30" y="507" on="1"/>
        <pt x="96" y="507" on="1"/>
        <pt x="96" y="526" on="1"/>
        <pt x="96" y="618" on="0"/>
        <pt x="199" y="720" on="0"/>
        <pt x="377" y="720" on="0"/>
        <pt x="456" y="685" on="1"/>
        <pt x="505" y="720" on="0"/>
        <pt x="580" y="720" on="1"/>
        <pt x="627" y="720" on="0"/>
        <pt x="656" y="710" on="1"/>
      </contour>
      <contour>
        <pt x="386" y="507" on="1"/>
        <pt x="386" y="526" on="1"/>
        <pt x="386" y="561" on="0"/>
        <pt x="393" y="588" on="1"/>
        <pt x="342" y="603" on="0"/>
        <pt x="277" y="603" on="0"/>
        <pt x="241" y="569" on="0"/>
        <pt x="241" y="526" on="1"/>
        <pt x="241" y="507" on="1"/>
      </contour>
    </TTGlyph>
    <TTGlyph name="ffi" xMin="30" yMin="0" xMax="822" yMax="720">
      <contour>
        <pt x="822" y="507" on="1"/>
        <pt x="822" y="0" on="1"/>
        <pt x="676" y="0" on="1"/>
        <pt x="676" y="400" on="1"/>
        <pt x="531" y="400" on="1"/>
        <pt x="531" y="0" on="1"/>
        <pt x="386" y="0" on="1"/>
        <pt x="386" y="400" on="1"/>
        <pt x="241" y="400" on="1"/>
        <pt x="241" y="0" on="1"/>
        <pt x="96" y="0" on="1"/>
        <pt x="96" y="400" on="1"/>
        <pt x="30" y="400" on="1"/>
        <pt x="30" y="507" on="1"/>
        <pt x="96" y="507" on="1"/>
        <pt x="96" y="526" on="1"/>
        <pt x="96" y="618" on="0"/>
        <pt x="199" y="720" on="0"/>
        <pt x="377" y="720" on="0"/>
        <pt x="456" y="685" on="1"/>
        <pt x="505" y="720" on="0"/>
        <pt x="678" y="720" on="0"/>
        <pt x="769" y="678" on="1"/>
        <pt x="769" y="560" on="1"/>
        <pt x="674" y="603" on="0"/>
        <pt x="604" y="603" on="1"/>
        <pt x="567" y="603" on="0"/>
        <pt x="531" y="569" on="0"/>
        <pt x="531" y="526" on="1"/>
        <pt x="531" y="507" on="1"/>
      </contour>
      <contour>
        <pt x="386" y="507" on="1"/>
        <pt x="386" y="526" on="1"/>
        <pt x="386" y="561" on="0"/>
        <pt x="393" y="588" on="1"/>
        <pt x="342" y="603" on="0"/>
        <pt x="277" y="603" on="0"/>
        <pt x="241" y="569" on="0"/>
        <pt x="241" y="526" on="1"/>
        <pt x="241" y="507" on="1"/>
      </contour>
    </TTGlyph>
    <TTGlyph name="ffl" xMin="30" yMin="0" xMax="823" yMax="720">
      <contour>
        <pt x="96" y="507" on="1"/>
        <pt x="96" y="526" on="1"/>
        <pt x="96" y="618" on="0"/>
        <pt x="199" y="720" on="0"/>
        <pt x="377" y="720" on="0"/>
        <pt x="456" y="685" on="1"/>
        <pt x="505" y="720" on="0"/>
        <pt x="580" y="720" on="1"/>
        <pt x="690" y="720" on="0"/>
        <pt x="823" y="657" on="1"/>
        <pt x="823" y="0" on="1"/>
        <pt x="677" y="0" on="1"/>
        <pt x="677" y="593" on="1"/>
        <pt x="637" y="603" on="0"/>
        <pt x="569" y="603" on="0"/>
        <pt x="531" y="571" on="0"/>
        <pt x="531" y="526" on="1"/>
        <pt x="531" y="507" on="1"/>
        <pt x="626" y="507" on="1"/>
        <pt x="626" y="400" on="1"/>
        <pt x="531" y="400" on="1"/>
        <pt x="531" y="0" on="1"/>
        <pt x="386" y="0" on="1"/>
        <pt x="386" y="400" on="1"/>
        <pt x="241" y="400" on="1"/>
        <pt x="241" y="0" on="1"/>
        <pt x="96" y="0" on="1"/>
        <pt x="96" y="400" on="1"/>
        <pt x="30" y="400" on="1"/>
        <pt x="30" y="507" on="1"/>
      </contour>
      <contour>
        <pt x="386" y="507" on="1"/>
        <pt x="386" y="526" on="1"/>
        <pt x="386" y="561" on="0"/>
        <pt x="393" y="588" on="1"/>
        <pt x="342" y="603" on="0"/>
        <pt x="277" y="603" on="0"/>
        <pt x="241" y="569" on="0"/>
        <pt x="241" y="526" on="1"/>
        <pt x="241" y="507" on="1"/>
      </contour>
    </TTGlyph>
    <TTGlyph name="fi" xMin="30" yMin="0" xMax="532" yMax="720">
      <contour>
        <pt x="532" y="507" on="1"/>
        <pt x="532" y="0" on="1"/>
        <pt x="386" y="0" on="1"/>
        <pt x="386" y="400" on="1"/>
        <pt x="241" y="400" on="1"/>
        <pt x="241" y="0" on="1"/>
        <pt x="96" y="0" on="1"/>
        <pt x="96" y="400" on="1"/>
        <pt x="30" y="400" on="1"/>
        <pt x="30" y="507" on="1"/>
        <pt x="96" y="507" on="1"/>
        <pt x="96" y="526" on="1"/>
        <pt x="96" y="618" on="0"/>
        <pt x="199" y="720" on="0"/>
        <pt x="388" y="720" on="0"/>
        <pt x="479" y="678" on="1"/>
        <pt x="479" y="560" on="1"/>
        <pt x="384" y="603" on="0"/>
        <pt x="314" y="603" on="1"/>
        <pt x="277" y="603" on="0"/>
        <pt x="241" y="569" on="0"/>
        <pt x="241" y="526" on="1"/>
        <pt x="241" y="507" on="1"/>
      </contour>
    </TTGlyph>
</ttFont>
